G75*
%MOIN*%
%OFA0B0*%
%FSLAX25Y25*%
%IPPOS*%
%LPD*%
%AMOC8*
5,1,8,0,0,1.08239X$1,22.5*
%
%ADD10C,0.13398*%
%ADD11OC8,0.10800*%
%ADD12C,0.06737*%
%ADD13C,0.08674*%
%ADD14OC8,0.06800*%
%ADD15C,0.06800*%
%ADD16R,0.05950X0.05950*%
%ADD17C,0.06706*%
%ADD18C,0.07800*%
%ADD19R,0.07800X0.07800*%
%ADD20C,0.10800*%
%ADD21C,0.06737*%
%ADD22C,0.04375*%
%ADD23C,0.05162*%
%ADD24R,0.05162X0.05162*%
D10*
X0020187Y0023500D03*
X0016187Y0337000D03*
X0673187Y0020750D03*
X0675437Y0338000D03*
D11*
X0340687Y0331500D03*
X0340687Y0255250D03*
D12*
X0194437Y0167719D02*
X0194437Y0161781D01*
X0184437Y0161781D02*
X0184437Y0167719D01*
X0174437Y0167719D02*
X0174437Y0161781D01*
X0164437Y0161781D02*
X0164437Y0167719D01*
X0154437Y0167719D02*
X0154437Y0161781D01*
X0554219Y0164250D02*
X0560156Y0164250D01*
X0560156Y0154250D02*
X0554219Y0154250D01*
X0554219Y0174250D02*
X0560156Y0174250D01*
X0560156Y0184250D02*
X0554219Y0184250D01*
X0634219Y0168500D02*
X0640156Y0168500D01*
X0640156Y0158500D02*
X0634219Y0158500D01*
D13*
X0604520Y0035098D03*
X0584520Y0035098D03*
X0564520Y0035098D03*
X0544520Y0035098D03*
X0461020Y0035348D03*
X0441020Y0035348D03*
X0421020Y0035348D03*
X0401020Y0035348D03*
X0330020Y0034098D03*
X0310020Y0034098D03*
X0290020Y0034098D03*
X0236854Y0033402D03*
X0216854Y0033402D03*
X0196854Y0033402D03*
X0176854Y0033402D03*
X0608604Y0331652D03*
X0628604Y0331652D03*
D14*
X0136187Y0237250D03*
X0126187Y0237250D03*
X0116187Y0237250D03*
X0116187Y0227250D03*
X0126187Y0227250D03*
X0136187Y0227250D03*
D15*
X0132187Y0330250D02*
X0132187Y0336250D01*
X0142187Y0336250D02*
X0142187Y0330250D01*
X0152187Y0330250D02*
X0152187Y0336250D01*
X0162187Y0336250D02*
X0162187Y0330250D01*
X0361187Y0175750D02*
X0361187Y0169750D01*
X0371187Y0169750D02*
X0371187Y0175750D01*
X0381187Y0175750D02*
X0381187Y0169750D01*
X0391187Y0169750D02*
X0391187Y0175750D01*
X0401187Y0175750D02*
X0401187Y0169750D01*
X0411187Y0169750D02*
X0411187Y0175750D01*
X0421187Y0175750D02*
X0421187Y0169750D01*
X0431187Y0169750D02*
X0431187Y0175750D01*
X0441187Y0175750D02*
X0441187Y0169750D01*
X0600937Y0168250D02*
X0606937Y0168250D01*
X0606937Y0158250D02*
X0600937Y0158250D01*
X0536187Y0322500D02*
X0536187Y0328500D01*
X0526187Y0328500D02*
X0526187Y0322500D01*
X0516187Y0322500D02*
X0516187Y0328500D01*
D16*
X0118937Y0191250D03*
X0108937Y0191250D03*
X0098937Y0191250D03*
X0088937Y0191250D03*
X0078937Y0191250D03*
X0078937Y0181250D03*
X0088937Y0181250D03*
X0098937Y0181250D03*
X0108937Y0181250D03*
X0118937Y0181250D03*
D17*
X0092122Y0285486D03*
X0052752Y0285486D03*
D18*
X0386203Y0341750D03*
X0396203Y0341750D03*
X0406203Y0341750D03*
X0416203Y0341750D03*
X0426203Y0341750D03*
X0436203Y0341750D03*
X0446203Y0341750D03*
X0456203Y0341750D03*
X0466203Y0341750D03*
X0476203Y0341750D03*
X0486203Y0341750D03*
X0496203Y0341750D03*
X0506203Y0341750D03*
X0516203Y0341750D03*
X0526203Y0341750D03*
X0545937Y0309250D03*
X0555937Y0309250D03*
X0555937Y0299250D03*
X0545937Y0299250D03*
X0545937Y0289250D03*
X0555937Y0289250D03*
X0555937Y0279250D03*
X0545937Y0279250D03*
X0545937Y0269250D03*
X0555937Y0269250D03*
X0555937Y0259250D03*
X0545937Y0259250D03*
X0555937Y0249250D03*
D19*
X0545937Y0249250D03*
X0536203Y0341750D03*
D20*
X0556937Y0339250D03*
X0556937Y0216250D03*
X0260837Y0216250D03*
X0260837Y0339250D03*
D21*
X0589937Y0294000D03*
X0589937Y0284000D03*
X0649937Y0284000D03*
X0649937Y0294000D03*
X0589937Y0224000D03*
X0589937Y0204000D03*
X0649937Y0204000D03*
D22*
X0510187Y0228250D03*
X0500937Y0223750D03*
X0471187Y0214250D03*
X0430187Y0223000D03*
X0422187Y0213000D03*
X0379687Y0227750D03*
X0371187Y0227750D03*
X0365437Y0240250D03*
X0372187Y0249750D03*
X0396937Y0243750D03*
X0397187Y0264250D03*
X0313187Y0267000D03*
X0283937Y0249500D03*
X0293187Y0244750D03*
X0306937Y0236000D03*
X0318187Y0230000D03*
X0328187Y0210250D03*
X0294437Y0210250D03*
X0273937Y0203750D03*
X0256687Y0196000D03*
X0242187Y0229750D03*
X0230687Y0235000D03*
X0237187Y0240250D03*
X0226437Y0230250D03*
X0218687Y0244500D03*
X0205937Y0249500D03*
X0236073Y0267000D03*
X0162937Y0255000D03*
X0142937Y0249500D03*
X0157187Y0243500D03*
X0137187Y0262750D03*
X0091187Y0255000D03*
X0073687Y0250750D03*
X0051437Y0258750D03*
X0022937Y0250750D03*
X0035437Y0220250D03*
X0073687Y0215500D03*
X0088437Y0210000D03*
X0128687Y0210000D03*
X0143687Y0203750D03*
X0156187Y0195500D03*
X0149187Y0188500D03*
X0160437Y0181750D03*
X0174687Y0181500D03*
X0179437Y0195000D03*
X0171937Y0210000D03*
X0179687Y0221000D03*
X0128687Y0182500D03*
X0128937Y0164750D03*
X0495437Y0184750D03*
X0501187Y0175750D03*
X0510187Y0170750D03*
D23*
X0526437Y0193500D03*
X0483937Y0193500D03*
X0526187Y0253250D03*
X0516187Y0259000D03*
X0506203Y0264250D03*
X0496203Y0269750D03*
X0486203Y0274250D03*
X0476203Y0280000D03*
X0466203Y0284250D03*
X0456203Y0289000D03*
X0446203Y0294250D03*
X0436203Y0298500D03*
X0426203Y0304250D03*
X0416203Y0309500D03*
X0406203Y0315750D03*
X0273937Y0296500D03*
X0225437Y0296500D03*
X0272187Y0105500D03*
X0356937Y0105250D03*
D24*
X0328187Y0115750D03*
X0303687Y0115500D03*
M02*
