G75*
%MOIN*%
%OFA0B0*%
%FSLAX25Y25*%
%IPPOS*%
%LPD*%
%AMOC8*
5,1,8,0,0,1.08239X$1,22.5*
%
%ADD10C,0.00000*%
%ADD11C,0.00100*%
D10*
X0001000Y0005063D02*
X0001000Y0354138D01*
X0690920Y0354138D01*
X0690920Y0005063D01*
X0131187Y0005000D01*
X0131187Y0083500D01*
X0066187Y0083500D01*
X0066187Y0005063D01*
X0001000Y0005063D01*
X0013888Y0023500D02*
X0013890Y0023658D01*
X0013896Y0023816D01*
X0013906Y0023974D01*
X0013920Y0024132D01*
X0013938Y0024289D01*
X0013959Y0024446D01*
X0013985Y0024602D01*
X0014015Y0024758D01*
X0014048Y0024913D01*
X0014086Y0025066D01*
X0014127Y0025219D01*
X0014172Y0025371D01*
X0014221Y0025522D01*
X0014274Y0025671D01*
X0014330Y0025819D01*
X0014390Y0025965D01*
X0014454Y0026110D01*
X0014522Y0026253D01*
X0014593Y0026395D01*
X0014667Y0026535D01*
X0014745Y0026672D01*
X0014827Y0026808D01*
X0014911Y0026942D01*
X0015000Y0027073D01*
X0015091Y0027202D01*
X0015186Y0027329D01*
X0015283Y0027454D01*
X0015384Y0027576D01*
X0015488Y0027695D01*
X0015595Y0027812D01*
X0015705Y0027926D01*
X0015818Y0028037D01*
X0015933Y0028146D01*
X0016051Y0028251D01*
X0016172Y0028353D01*
X0016295Y0028453D01*
X0016421Y0028549D01*
X0016549Y0028642D01*
X0016679Y0028732D01*
X0016812Y0028818D01*
X0016947Y0028902D01*
X0017083Y0028981D01*
X0017222Y0029058D01*
X0017363Y0029130D01*
X0017505Y0029200D01*
X0017649Y0029265D01*
X0017795Y0029327D01*
X0017942Y0029385D01*
X0018091Y0029440D01*
X0018241Y0029491D01*
X0018392Y0029538D01*
X0018544Y0029581D01*
X0018697Y0029620D01*
X0018852Y0029656D01*
X0019007Y0029687D01*
X0019163Y0029715D01*
X0019319Y0029739D01*
X0019476Y0029759D01*
X0019634Y0029775D01*
X0019791Y0029787D01*
X0019950Y0029795D01*
X0020108Y0029799D01*
X0020266Y0029799D01*
X0020424Y0029795D01*
X0020583Y0029787D01*
X0020740Y0029775D01*
X0020898Y0029759D01*
X0021055Y0029739D01*
X0021211Y0029715D01*
X0021367Y0029687D01*
X0021522Y0029656D01*
X0021677Y0029620D01*
X0021830Y0029581D01*
X0021982Y0029538D01*
X0022133Y0029491D01*
X0022283Y0029440D01*
X0022432Y0029385D01*
X0022579Y0029327D01*
X0022725Y0029265D01*
X0022869Y0029200D01*
X0023011Y0029130D01*
X0023152Y0029058D01*
X0023291Y0028981D01*
X0023427Y0028902D01*
X0023562Y0028818D01*
X0023695Y0028732D01*
X0023825Y0028642D01*
X0023953Y0028549D01*
X0024079Y0028453D01*
X0024202Y0028353D01*
X0024323Y0028251D01*
X0024441Y0028146D01*
X0024556Y0028037D01*
X0024669Y0027926D01*
X0024779Y0027812D01*
X0024886Y0027695D01*
X0024990Y0027576D01*
X0025091Y0027454D01*
X0025188Y0027329D01*
X0025283Y0027202D01*
X0025374Y0027073D01*
X0025463Y0026942D01*
X0025547Y0026808D01*
X0025629Y0026672D01*
X0025707Y0026535D01*
X0025781Y0026395D01*
X0025852Y0026253D01*
X0025920Y0026110D01*
X0025984Y0025965D01*
X0026044Y0025819D01*
X0026100Y0025671D01*
X0026153Y0025522D01*
X0026202Y0025371D01*
X0026247Y0025219D01*
X0026288Y0025066D01*
X0026326Y0024913D01*
X0026359Y0024758D01*
X0026389Y0024602D01*
X0026415Y0024446D01*
X0026436Y0024289D01*
X0026454Y0024132D01*
X0026468Y0023974D01*
X0026478Y0023816D01*
X0026484Y0023658D01*
X0026486Y0023500D01*
X0026484Y0023342D01*
X0026478Y0023184D01*
X0026468Y0023026D01*
X0026454Y0022868D01*
X0026436Y0022711D01*
X0026415Y0022554D01*
X0026389Y0022398D01*
X0026359Y0022242D01*
X0026326Y0022087D01*
X0026288Y0021934D01*
X0026247Y0021781D01*
X0026202Y0021629D01*
X0026153Y0021478D01*
X0026100Y0021329D01*
X0026044Y0021181D01*
X0025984Y0021035D01*
X0025920Y0020890D01*
X0025852Y0020747D01*
X0025781Y0020605D01*
X0025707Y0020465D01*
X0025629Y0020328D01*
X0025547Y0020192D01*
X0025463Y0020058D01*
X0025374Y0019927D01*
X0025283Y0019798D01*
X0025188Y0019671D01*
X0025091Y0019546D01*
X0024990Y0019424D01*
X0024886Y0019305D01*
X0024779Y0019188D01*
X0024669Y0019074D01*
X0024556Y0018963D01*
X0024441Y0018854D01*
X0024323Y0018749D01*
X0024202Y0018647D01*
X0024079Y0018547D01*
X0023953Y0018451D01*
X0023825Y0018358D01*
X0023695Y0018268D01*
X0023562Y0018182D01*
X0023427Y0018098D01*
X0023291Y0018019D01*
X0023152Y0017942D01*
X0023011Y0017870D01*
X0022869Y0017800D01*
X0022725Y0017735D01*
X0022579Y0017673D01*
X0022432Y0017615D01*
X0022283Y0017560D01*
X0022133Y0017509D01*
X0021982Y0017462D01*
X0021830Y0017419D01*
X0021677Y0017380D01*
X0021522Y0017344D01*
X0021367Y0017313D01*
X0021211Y0017285D01*
X0021055Y0017261D01*
X0020898Y0017241D01*
X0020740Y0017225D01*
X0020583Y0017213D01*
X0020424Y0017205D01*
X0020266Y0017201D01*
X0020108Y0017201D01*
X0019950Y0017205D01*
X0019791Y0017213D01*
X0019634Y0017225D01*
X0019476Y0017241D01*
X0019319Y0017261D01*
X0019163Y0017285D01*
X0019007Y0017313D01*
X0018852Y0017344D01*
X0018697Y0017380D01*
X0018544Y0017419D01*
X0018392Y0017462D01*
X0018241Y0017509D01*
X0018091Y0017560D01*
X0017942Y0017615D01*
X0017795Y0017673D01*
X0017649Y0017735D01*
X0017505Y0017800D01*
X0017363Y0017870D01*
X0017222Y0017942D01*
X0017083Y0018019D01*
X0016947Y0018098D01*
X0016812Y0018182D01*
X0016679Y0018268D01*
X0016549Y0018358D01*
X0016421Y0018451D01*
X0016295Y0018547D01*
X0016172Y0018647D01*
X0016051Y0018749D01*
X0015933Y0018854D01*
X0015818Y0018963D01*
X0015705Y0019074D01*
X0015595Y0019188D01*
X0015488Y0019305D01*
X0015384Y0019424D01*
X0015283Y0019546D01*
X0015186Y0019671D01*
X0015091Y0019798D01*
X0015000Y0019927D01*
X0014911Y0020058D01*
X0014827Y0020192D01*
X0014745Y0020328D01*
X0014667Y0020465D01*
X0014593Y0020605D01*
X0014522Y0020747D01*
X0014454Y0020890D01*
X0014390Y0021035D01*
X0014330Y0021181D01*
X0014274Y0021329D01*
X0014221Y0021478D01*
X0014172Y0021629D01*
X0014127Y0021781D01*
X0014086Y0021934D01*
X0014048Y0022087D01*
X0014015Y0022242D01*
X0013985Y0022398D01*
X0013959Y0022554D01*
X0013938Y0022711D01*
X0013920Y0022868D01*
X0013906Y0023026D01*
X0013896Y0023184D01*
X0013890Y0023342D01*
X0013888Y0023500D01*
X0255837Y0216250D02*
X0255839Y0216391D01*
X0255845Y0216532D01*
X0255855Y0216672D01*
X0255869Y0216812D01*
X0255887Y0216952D01*
X0255908Y0217091D01*
X0255934Y0217230D01*
X0255963Y0217368D01*
X0255997Y0217504D01*
X0256034Y0217640D01*
X0256075Y0217775D01*
X0256120Y0217909D01*
X0256169Y0218041D01*
X0256221Y0218172D01*
X0256277Y0218301D01*
X0256337Y0218428D01*
X0256400Y0218554D01*
X0256466Y0218678D01*
X0256537Y0218801D01*
X0256610Y0218921D01*
X0256687Y0219039D01*
X0256767Y0219155D01*
X0256851Y0219268D01*
X0256937Y0219379D01*
X0257027Y0219488D01*
X0257120Y0219594D01*
X0257215Y0219697D01*
X0257314Y0219798D01*
X0257415Y0219896D01*
X0257519Y0219991D01*
X0257626Y0220083D01*
X0257735Y0220172D01*
X0257847Y0220257D01*
X0257961Y0220340D01*
X0258077Y0220420D01*
X0258196Y0220496D01*
X0258317Y0220568D01*
X0258439Y0220638D01*
X0258564Y0220703D01*
X0258690Y0220766D01*
X0258818Y0220824D01*
X0258948Y0220879D01*
X0259079Y0220931D01*
X0259212Y0220978D01*
X0259346Y0221022D01*
X0259481Y0221063D01*
X0259617Y0221099D01*
X0259754Y0221131D01*
X0259892Y0221160D01*
X0260030Y0221185D01*
X0260170Y0221205D01*
X0260310Y0221222D01*
X0260450Y0221235D01*
X0260591Y0221244D01*
X0260731Y0221249D01*
X0260872Y0221250D01*
X0261013Y0221247D01*
X0261154Y0221240D01*
X0261294Y0221229D01*
X0261434Y0221214D01*
X0261574Y0221195D01*
X0261713Y0221173D01*
X0261851Y0221146D01*
X0261989Y0221116D01*
X0262125Y0221081D01*
X0262261Y0221043D01*
X0262395Y0221001D01*
X0262529Y0220955D01*
X0262661Y0220906D01*
X0262791Y0220852D01*
X0262920Y0220795D01*
X0263047Y0220735D01*
X0263173Y0220671D01*
X0263296Y0220603D01*
X0263418Y0220532D01*
X0263538Y0220458D01*
X0263655Y0220380D01*
X0263770Y0220299D01*
X0263883Y0220215D01*
X0263994Y0220128D01*
X0264102Y0220037D01*
X0264207Y0219944D01*
X0264310Y0219847D01*
X0264410Y0219748D01*
X0264507Y0219646D01*
X0264601Y0219541D01*
X0264692Y0219434D01*
X0264780Y0219324D01*
X0264865Y0219212D01*
X0264947Y0219097D01*
X0265026Y0218980D01*
X0265101Y0218861D01*
X0265173Y0218740D01*
X0265241Y0218617D01*
X0265306Y0218492D01*
X0265368Y0218365D01*
X0265425Y0218236D01*
X0265480Y0218106D01*
X0265530Y0217975D01*
X0265577Y0217842D01*
X0265620Y0217708D01*
X0265659Y0217572D01*
X0265694Y0217436D01*
X0265726Y0217299D01*
X0265753Y0217161D01*
X0265777Y0217022D01*
X0265797Y0216882D01*
X0265813Y0216742D01*
X0265825Y0216602D01*
X0265833Y0216461D01*
X0265837Y0216320D01*
X0265837Y0216180D01*
X0265833Y0216039D01*
X0265825Y0215898D01*
X0265813Y0215758D01*
X0265797Y0215618D01*
X0265777Y0215478D01*
X0265753Y0215339D01*
X0265726Y0215201D01*
X0265694Y0215064D01*
X0265659Y0214928D01*
X0265620Y0214792D01*
X0265577Y0214658D01*
X0265530Y0214525D01*
X0265480Y0214394D01*
X0265425Y0214264D01*
X0265368Y0214135D01*
X0265306Y0214008D01*
X0265241Y0213883D01*
X0265173Y0213760D01*
X0265101Y0213639D01*
X0265026Y0213520D01*
X0264947Y0213403D01*
X0264865Y0213288D01*
X0264780Y0213176D01*
X0264692Y0213066D01*
X0264601Y0212959D01*
X0264507Y0212854D01*
X0264410Y0212752D01*
X0264310Y0212653D01*
X0264207Y0212556D01*
X0264102Y0212463D01*
X0263994Y0212372D01*
X0263883Y0212285D01*
X0263770Y0212201D01*
X0263655Y0212120D01*
X0263538Y0212042D01*
X0263418Y0211968D01*
X0263296Y0211897D01*
X0263173Y0211829D01*
X0263047Y0211765D01*
X0262920Y0211705D01*
X0262791Y0211648D01*
X0262661Y0211594D01*
X0262529Y0211545D01*
X0262395Y0211499D01*
X0262261Y0211457D01*
X0262125Y0211419D01*
X0261989Y0211384D01*
X0261851Y0211354D01*
X0261713Y0211327D01*
X0261574Y0211305D01*
X0261434Y0211286D01*
X0261294Y0211271D01*
X0261154Y0211260D01*
X0261013Y0211253D01*
X0260872Y0211250D01*
X0260731Y0211251D01*
X0260591Y0211256D01*
X0260450Y0211265D01*
X0260310Y0211278D01*
X0260170Y0211295D01*
X0260030Y0211315D01*
X0259892Y0211340D01*
X0259754Y0211369D01*
X0259617Y0211401D01*
X0259481Y0211437D01*
X0259346Y0211478D01*
X0259212Y0211522D01*
X0259079Y0211569D01*
X0258948Y0211621D01*
X0258818Y0211676D01*
X0258690Y0211734D01*
X0258564Y0211797D01*
X0258439Y0211862D01*
X0258317Y0211932D01*
X0258196Y0212004D01*
X0258077Y0212080D01*
X0257961Y0212160D01*
X0257847Y0212243D01*
X0257735Y0212328D01*
X0257626Y0212417D01*
X0257519Y0212509D01*
X0257415Y0212604D01*
X0257314Y0212702D01*
X0257215Y0212803D01*
X0257120Y0212906D01*
X0257027Y0213012D01*
X0256937Y0213121D01*
X0256851Y0213232D01*
X0256767Y0213345D01*
X0256687Y0213461D01*
X0256610Y0213579D01*
X0256537Y0213699D01*
X0256466Y0213822D01*
X0256400Y0213946D01*
X0256337Y0214072D01*
X0256277Y0214199D01*
X0256221Y0214328D01*
X0256169Y0214459D01*
X0256120Y0214591D01*
X0256075Y0214725D01*
X0256034Y0214860D01*
X0255997Y0214996D01*
X0255963Y0215132D01*
X0255934Y0215270D01*
X0255908Y0215409D01*
X0255887Y0215548D01*
X0255869Y0215688D01*
X0255855Y0215828D01*
X0255845Y0215968D01*
X0255839Y0216109D01*
X0255837Y0216250D01*
X0089169Y0285486D02*
X0089171Y0285594D01*
X0089177Y0285703D01*
X0089187Y0285811D01*
X0089201Y0285918D01*
X0089219Y0286025D01*
X0089240Y0286132D01*
X0089266Y0286237D01*
X0089296Y0286342D01*
X0089329Y0286445D01*
X0089366Y0286547D01*
X0089407Y0286647D01*
X0089451Y0286746D01*
X0089500Y0286844D01*
X0089551Y0286939D01*
X0089606Y0287032D01*
X0089665Y0287124D01*
X0089727Y0287213D01*
X0089792Y0287300D01*
X0089860Y0287384D01*
X0089931Y0287466D01*
X0090005Y0287545D01*
X0090082Y0287621D01*
X0090162Y0287695D01*
X0090245Y0287765D01*
X0090330Y0287833D01*
X0090417Y0287897D01*
X0090507Y0287958D01*
X0090599Y0288016D01*
X0090693Y0288070D01*
X0090789Y0288121D01*
X0090886Y0288168D01*
X0090986Y0288212D01*
X0091087Y0288252D01*
X0091189Y0288288D01*
X0091292Y0288320D01*
X0091397Y0288349D01*
X0091503Y0288373D01*
X0091609Y0288394D01*
X0091716Y0288411D01*
X0091824Y0288424D01*
X0091932Y0288433D01*
X0092041Y0288438D01*
X0092149Y0288439D01*
X0092258Y0288436D01*
X0092366Y0288429D01*
X0092474Y0288418D01*
X0092581Y0288403D01*
X0092688Y0288384D01*
X0092794Y0288361D01*
X0092899Y0288335D01*
X0093004Y0288304D01*
X0093106Y0288270D01*
X0093208Y0288232D01*
X0093308Y0288190D01*
X0093407Y0288145D01*
X0093504Y0288096D01*
X0093598Y0288043D01*
X0093691Y0287987D01*
X0093782Y0287928D01*
X0093871Y0287865D01*
X0093957Y0287800D01*
X0094041Y0287731D01*
X0094122Y0287659D01*
X0094200Y0287584D01*
X0094276Y0287506D01*
X0094349Y0287425D01*
X0094419Y0287342D01*
X0094485Y0287257D01*
X0094549Y0287169D01*
X0094609Y0287078D01*
X0094666Y0286986D01*
X0094719Y0286891D01*
X0094769Y0286795D01*
X0094815Y0286697D01*
X0094858Y0286597D01*
X0094897Y0286496D01*
X0094932Y0286393D01*
X0094964Y0286290D01*
X0094991Y0286185D01*
X0095015Y0286079D01*
X0095035Y0285972D01*
X0095051Y0285865D01*
X0095063Y0285757D01*
X0095071Y0285649D01*
X0095075Y0285540D01*
X0095075Y0285432D01*
X0095071Y0285323D01*
X0095063Y0285215D01*
X0095051Y0285107D01*
X0095035Y0285000D01*
X0095015Y0284893D01*
X0094991Y0284787D01*
X0094964Y0284682D01*
X0094932Y0284579D01*
X0094897Y0284476D01*
X0094858Y0284375D01*
X0094815Y0284275D01*
X0094769Y0284177D01*
X0094719Y0284081D01*
X0094666Y0283986D01*
X0094609Y0283894D01*
X0094549Y0283803D01*
X0094485Y0283715D01*
X0094419Y0283630D01*
X0094349Y0283547D01*
X0094276Y0283466D01*
X0094200Y0283388D01*
X0094122Y0283313D01*
X0094041Y0283241D01*
X0093957Y0283172D01*
X0093871Y0283107D01*
X0093782Y0283044D01*
X0093691Y0282985D01*
X0093599Y0282929D01*
X0093504Y0282876D01*
X0093407Y0282827D01*
X0093308Y0282782D01*
X0093208Y0282740D01*
X0093106Y0282702D01*
X0093004Y0282668D01*
X0092899Y0282637D01*
X0092794Y0282611D01*
X0092688Y0282588D01*
X0092581Y0282569D01*
X0092474Y0282554D01*
X0092366Y0282543D01*
X0092258Y0282536D01*
X0092149Y0282533D01*
X0092041Y0282534D01*
X0091932Y0282539D01*
X0091824Y0282548D01*
X0091716Y0282561D01*
X0091609Y0282578D01*
X0091503Y0282599D01*
X0091397Y0282623D01*
X0091292Y0282652D01*
X0091189Y0282684D01*
X0091087Y0282720D01*
X0090986Y0282760D01*
X0090886Y0282804D01*
X0090789Y0282851D01*
X0090693Y0282902D01*
X0090599Y0282956D01*
X0090507Y0283014D01*
X0090417Y0283075D01*
X0090330Y0283139D01*
X0090245Y0283207D01*
X0090162Y0283277D01*
X0090082Y0283351D01*
X0090005Y0283427D01*
X0089931Y0283506D01*
X0089860Y0283588D01*
X0089792Y0283672D01*
X0089727Y0283759D01*
X0089665Y0283848D01*
X0089606Y0283940D01*
X0089551Y0284033D01*
X0089500Y0284128D01*
X0089451Y0284226D01*
X0089407Y0284325D01*
X0089366Y0284425D01*
X0089329Y0284527D01*
X0089296Y0284630D01*
X0089266Y0284735D01*
X0089240Y0284840D01*
X0089219Y0284947D01*
X0089201Y0285054D01*
X0089187Y0285161D01*
X0089177Y0285269D01*
X0089171Y0285378D01*
X0089169Y0285486D01*
X0049799Y0285486D02*
X0049801Y0285594D01*
X0049807Y0285703D01*
X0049817Y0285811D01*
X0049831Y0285918D01*
X0049849Y0286025D01*
X0049870Y0286132D01*
X0049896Y0286237D01*
X0049926Y0286342D01*
X0049959Y0286445D01*
X0049996Y0286547D01*
X0050037Y0286647D01*
X0050081Y0286746D01*
X0050130Y0286844D01*
X0050181Y0286939D01*
X0050236Y0287032D01*
X0050295Y0287124D01*
X0050357Y0287213D01*
X0050422Y0287300D01*
X0050490Y0287384D01*
X0050561Y0287466D01*
X0050635Y0287545D01*
X0050712Y0287621D01*
X0050792Y0287695D01*
X0050875Y0287765D01*
X0050960Y0287833D01*
X0051047Y0287897D01*
X0051137Y0287958D01*
X0051229Y0288016D01*
X0051323Y0288070D01*
X0051419Y0288121D01*
X0051516Y0288168D01*
X0051616Y0288212D01*
X0051717Y0288252D01*
X0051819Y0288288D01*
X0051922Y0288320D01*
X0052027Y0288349D01*
X0052133Y0288373D01*
X0052239Y0288394D01*
X0052346Y0288411D01*
X0052454Y0288424D01*
X0052562Y0288433D01*
X0052671Y0288438D01*
X0052779Y0288439D01*
X0052888Y0288436D01*
X0052996Y0288429D01*
X0053104Y0288418D01*
X0053211Y0288403D01*
X0053318Y0288384D01*
X0053424Y0288361D01*
X0053529Y0288335D01*
X0053634Y0288304D01*
X0053736Y0288270D01*
X0053838Y0288232D01*
X0053938Y0288190D01*
X0054037Y0288145D01*
X0054134Y0288096D01*
X0054228Y0288043D01*
X0054321Y0287987D01*
X0054412Y0287928D01*
X0054501Y0287865D01*
X0054587Y0287800D01*
X0054671Y0287731D01*
X0054752Y0287659D01*
X0054830Y0287584D01*
X0054906Y0287506D01*
X0054979Y0287425D01*
X0055049Y0287342D01*
X0055115Y0287257D01*
X0055179Y0287169D01*
X0055239Y0287078D01*
X0055296Y0286986D01*
X0055349Y0286891D01*
X0055399Y0286795D01*
X0055445Y0286697D01*
X0055488Y0286597D01*
X0055527Y0286496D01*
X0055562Y0286393D01*
X0055594Y0286290D01*
X0055621Y0286185D01*
X0055645Y0286079D01*
X0055665Y0285972D01*
X0055681Y0285865D01*
X0055693Y0285757D01*
X0055701Y0285649D01*
X0055705Y0285540D01*
X0055705Y0285432D01*
X0055701Y0285323D01*
X0055693Y0285215D01*
X0055681Y0285107D01*
X0055665Y0285000D01*
X0055645Y0284893D01*
X0055621Y0284787D01*
X0055594Y0284682D01*
X0055562Y0284579D01*
X0055527Y0284476D01*
X0055488Y0284375D01*
X0055445Y0284275D01*
X0055399Y0284177D01*
X0055349Y0284081D01*
X0055296Y0283986D01*
X0055239Y0283894D01*
X0055179Y0283803D01*
X0055115Y0283715D01*
X0055049Y0283630D01*
X0054979Y0283547D01*
X0054906Y0283466D01*
X0054830Y0283388D01*
X0054752Y0283313D01*
X0054671Y0283241D01*
X0054587Y0283172D01*
X0054501Y0283107D01*
X0054412Y0283044D01*
X0054321Y0282985D01*
X0054229Y0282929D01*
X0054134Y0282876D01*
X0054037Y0282827D01*
X0053938Y0282782D01*
X0053838Y0282740D01*
X0053736Y0282702D01*
X0053634Y0282668D01*
X0053529Y0282637D01*
X0053424Y0282611D01*
X0053318Y0282588D01*
X0053211Y0282569D01*
X0053104Y0282554D01*
X0052996Y0282543D01*
X0052888Y0282536D01*
X0052779Y0282533D01*
X0052671Y0282534D01*
X0052562Y0282539D01*
X0052454Y0282548D01*
X0052346Y0282561D01*
X0052239Y0282578D01*
X0052133Y0282599D01*
X0052027Y0282623D01*
X0051922Y0282652D01*
X0051819Y0282684D01*
X0051717Y0282720D01*
X0051616Y0282760D01*
X0051516Y0282804D01*
X0051419Y0282851D01*
X0051323Y0282902D01*
X0051229Y0282956D01*
X0051137Y0283014D01*
X0051047Y0283075D01*
X0050960Y0283139D01*
X0050875Y0283207D01*
X0050792Y0283277D01*
X0050712Y0283351D01*
X0050635Y0283427D01*
X0050561Y0283506D01*
X0050490Y0283588D01*
X0050422Y0283672D01*
X0050357Y0283759D01*
X0050295Y0283848D01*
X0050236Y0283940D01*
X0050181Y0284033D01*
X0050130Y0284128D01*
X0050081Y0284226D01*
X0050037Y0284325D01*
X0049996Y0284425D01*
X0049959Y0284527D01*
X0049926Y0284630D01*
X0049896Y0284735D01*
X0049870Y0284840D01*
X0049849Y0284947D01*
X0049831Y0285054D01*
X0049817Y0285161D01*
X0049807Y0285269D01*
X0049801Y0285378D01*
X0049799Y0285486D01*
X0009888Y0337000D02*
X0009890Y0337158D01*
X0009896Y0337316D01*
X0009906Y0337474D01*
X0009920Y0337632D01*
X0009938Y0337789D01*
X0009959Y0337946D01*
X0009985Y0338102D01*
X0010015Y0338258D01*
X0010048Y0338413D01*
X0010086Y0338566D01*
X0010127Y0338719D01*
X0010172Y0338871D01*
X0010221Y0339022D01*
X0010274Y0339171D01*
X0010330Y0339319D01*
X0010390Y0339465D01*
X0010454Y0339610D01*
X0010522Y0339753D01*
X0010593Y0339895D01*
X0010667Y0340035D01*
X0010745Y0340172D01*
X0010827Y0340308D01*
X0010911Y0340442D01*
X0011000Y0340573D01*
X0011091Y0340702D01*
X0011186Y0340829D01*
X0011283Y0340954D01*
X0011384Y0341076D01*
X0011488Y0341195D01*
X0011595Y0341312D01*
X0011705Y0341426D01*
X0011818Y0341537D01*
X0011933Y0341646D01*
X0012051Y0341751D01*
X0012172Y0341853D01*
X0012295Y0341953D01*
X0012421Y0342049D01*
X0012549Y0342142D01*
X0012679Y0342232D01*
X0012812Y0342318D01*
X0012947Y0342402D01*
X0013083Y0342481D01*
X0013222Y0342558D01*
X0013363Y0342630D01*
X0013505Y0342700D01*
X0013649Y0342765D01*
X0013795Y0342827D01*
X0013942Y0342885D01*
X0014091Y0342940D01*
X0014241Y0342991D01*
X0014392Y0343038D01*
X0014544Y0343081D01*
X0014697Y0343120D01*
X0014852Y0343156D01*
X0015007Y0343187D01*
X0015163Y0343215D01*
X0015319Y0343239D01*
X0015476Y0343259D01*
X0015634Y0343275D01*
X0015791Y0343287D01*
X0015950Y0343295D01*
X0016108Y0343299D01*
X0016266Y0343299D01*
X0016424Y0343295D01*
X0016583Y0343287D01*
X0016740Y0343275D01*
X0016898Y0343259D01*
X0017055Y0343239D01*
X0017211Y0343215D01*
X0017367Y0343187D01*
X0017522Y0343156D01*
X0017677Y0343120D01*
X0017830Y0343081D01*
X0017982Y0343038D01*
X0018133Y0342991D01*
X0018283Y0342940D01*
X0018432Y0342885D01*
X0018579Y0342827D01*
X0018725Y0342765D01*
X0018869Y0342700D01*
X0019011Y0342630D01*
X0019152Y0342558D01*
X0019291Y0342481D01*
X0019427Y0342402D01*
X0019562Y0342318D01*
X0019695Y0342232D01*
X0019825Y0342142D01*
X0019953Y0342049D01*
X0020079Y0341953D01*
X0020202Y0341853D01*
X0020323Y0341751D01*
X0020441Y0341646D01*
X0020556Y0341537D01*
X0020669Y0341426D01*
X0020779Y0341312D01*
X0020886Y0341195D01*
X0020990Y0341076D01*
X0021091Y0340954D01*
X0021188Y0340829D01*
X0021283Y0340702D01*
X0021374Y0340573D01*
X0021463Y0340442D01*
X0021547Y0340308D01*
X0021629Y0340172D01*
X0021707Y0340035D01*
X0021781Y0339895D01*
X0021852Y0339753D01*
X0021920Y0339610D01*
X0021984Y0339465D01*
X0022044Y0339319D01*
X0022100Y0339171D01*
X0022153Y0339022D01*
X0022202Y0338871D01*
X0022247Y0338719D01*
X0022288Y0338566D01*
X0022326Y0338413D01*
X0022359Y0338258D01*
X0022389Y0338102D01*
X0022415Y0337946D01*
X0022436Y0337789D01*
X0022454Y0337632D01*
X0022468Y0337474D01*
X0022478Y0337316D01*
X0022484Y0337158D01*
X0022486Y0337000D01*
X0022484Y0336842D01*
X0022478Y0336684D01*
X0022468Y0336526D01*
X0022454Y0336368D01*
X0022436Y0336211D01*
X0022415Y0336054D01*
X0022389Y0335898D01*
X0022359Y0335742D01*
X0022326Y0335587D01*
X0022288Y0335434D01*
X0022247Y0335281D01*
X0022202Y0335129D01*
X0022153Y0334978D01*
X0022100Y0334829D01*
X0022044Y0334681D01*
X0021984Y0334535D01*
X0021920Y0334390D01*
X0021852Y0334247D01*
X0021781Y0334105D01*
X0021707Y0333965D01*
X0021629Y0333828D01*
X0021547Y0333692D01*
X0021463Y0333558D01*
X0021374Y0333427D01*
X0021283Y0333298D01*
X0021188Y0333171D01*
X0021091Y0333046D01*
X0020990Y0332924D01*
X0020886Y0332805D01*
X0020779Y0332688D01*
X0020669Y0332574D01*
X0020556Y0332463D01*
X0020441Y0332354D01*
X0020323Y0332249D01*
X0020202Y0332147D01*
X0020079Y0332047D01*
X0019953Y0331951D01*
X0019825Y0331858D01*
X0019695Y0331768D01*
X0019562Y0331682D01*
X0019427Y0331598D01*
X0019291Y0331519D01*
X0019152Y0331442D01*
X0019011Y0331370D01*
X0018869Y0331300D01*
X0018725Y0331235D01*
X0018579Y0331173D01*
X0018432Y0331115D01*
X0018283Y0331060D01*
X0018133Y0331009D01*
X0017982Y0330962D01*
X0017830Y0330919D01*
X0017677Y0330880D01*
X0017522Y0330844D01*
X0017367Y0330813D01*
X0017211Y0330785D01*
X0017055Y0330761D01*
X0016898Y0330741D01*
X0016740Y0330725D01*
X0016583Y0330713D01*
X0016424Y0330705D01*
X0016266Y0330701D01*
X0016108Y0330701D01*
X0015950Y0330705D01*
X0015791Y0330713D01*
X0015634Y0330725D01*
X0015476Y0330741D01*
X0015319Y0330761D01*
X0015163Y0330785D01*
X0015007Y0330813D01*
X0014852Y0330844D01*
X0014697Y0330880D01*
X0014544Y0330919D01*
X0014392Y0330962D01*
X0014241Y0331009D01*
X0014091Y0331060D01*
X0013942Y0331115D01*
X0013795Y0331173D01*
X0013649Y0331235D01*
X0013505Y0331300D01*
X0013363Y0331370D01*
X0013222Y0331442D01*
X0013083Y0331519D01*
X0012947Y0331598D01*
X0012812Y0331682D01*
X0012679Y0331768D01*
X0012549Y0331858D01*
X0012421Y0331951D01*
X0012295Y0332047D01*
X0012172Y0332147D01*
X0012051Y0332249D01*
X0011933Y0332354D01*
X0011818Y0332463D01*
X0011705Y0332574D01*
X0011595Y0332688D01*
X0011488Y0332805D01*
X0011384Y0332924D01*
X0011283Y0333046D01*
X0011186Y0333171D01*
X0011091Y0333298D01*
X0011000Y0333427D01*
X0010911Y0333558D01*
X0010827Y0333692D01*
X0010745Y0333828D01*
X0010667Y0333965D01*
X0010593Y0334105D01*
X0010522Y0334247D01*
X0010454Y0334390D01*
X0010390Y0334535D01*
X0010330Y0334681D01*
X0010274Y0334829D01*
X0010221Y0334978D01*
X0010172Y0335129D01*
X0010127Y0335281D01*
X0010086Y0335434D01*
X0010048Y0335587D01*
X0010015Y0335742D01*
X0009985Y0335898D01*
X0009959Y0336054D01*
X0009938Y0336211D01*
X0009920Y0336368D01*
X0009906Y0336526D01*
X0009896Y0336684D01*
X0009890Y0336842D01*
X0009888Y0337000D01*
X0255837Y0339250D02*
X0255839Y0339391D01*
X0255845Y0339532D01*
X0255855Y0339672D01*
X0255869Y0339812D01*
X0255887Y0339952D01*
X0255908Y0340091D01*
X0255934Y0340230D01*
X0255963Y0340368D01*
X0255997Y0340504D01*
X0256034Y0340640D01*
X0256075Y0340775D01*
X0256120Y0340909D01*
X0256169Y0341041D01*
X0256221Y0341172D01*
X0256277Y0341301D01*
X0256337Y0341428D01*
X0256400Y0341554D01*
X0256466Y0341678D01*
X0256537Y0341801D01*
X0256610Y0341921D01*
X0256687Y0342039D01*
X0256767Y0342155D01*
X0256851Y0342268D01*
X0256937Y0342379D01*
X0257027Y0342488D01*
X0257120Y0342594D01*
X0257215Y0342697D01*
X0257314Y0342798D01*
X0257415Y0342896D01*
X0257519Y0342991D01*
X0257626Y0343083D01*
X0257735Y0343172D01*
X0257847Y0343257D01*
X0257961Y0343340D01*
X0258077Y0343420D01*
X0258196Y0343496D01*
X0258317Y0343568D01*
X0258439Y0343638D01*
X0258564Y0343703D01*
X0258690Y0343766D01*
X0258818Y0343824D01*
X0258948Y0343879D01*
X0259079Y0343931D01*
X0259212Y0343978D01*
X0259346Y0344022D01*
X0259481Y0344063D01*
X0259617Y0344099D01*
X0259754Y0344131D01*
X0259892Y0344160D01*
X0260030Y0344185D01*
X0260170Y0344205D01*
X0260310Y0344222D01*
X0260450Y0344235D01*
X0260591Y0344244D01*
X0260731Y0344249D01*
X0260872Y0344250D01*
X0261013Y0344247D01*
X0261154Y0344240D01*
X0261294Y0344229D01*
X0261434Y0344214D01*
X0261574Y0344195D01*
X0261713Y0344173D01*
X0261851Y0344146D01*
X0261989Y0344116D01*
X0262125Y0344081D01*
X0262261Y0344043D01*
X0262395Y0344001D01*
X0262529Y0343955D01*
X0262661Y0343906D01*
X0262791Y0343852D01*
X0262920Y0343795D01*
X0263047Y0343735D01*
X0263173Y0343671D01*
X0263296Y0343603D01*
X0263418Y0343532D01*
X0263538Y0343458D01*
X0263655Y0343380D01*
X0263770Y0343299D01*
X0263883Y0343215D01*
X0263994Y0343128D01*
X0264102Y0343037D01*
X0264207Y0342944D01*
X0264310Y0342847D01*
X0264410Y0342748D01*
X0264507Y0342646D01*
X0264601Y0342541D01*
X0264692Y0342434D01*
X0264780Y0342324D01*
X0264865Y0342212D01*
X0264947Y0342097D01*
X0265026Y0341980D01*
X0265101Y0341861D01*
X0265173Y0341740D01*
X0265241Y0341617D01*
X0265306Y0341492D01*
X0265368Y0341365D01*
X0265425Y0341236D01*
X0265480Y0341106D01*
X0265530Y0340975D01*
X0265577Y0340842D01*
X0265620Y0340708D01*
X0265659Y0340572D01*
X0265694Y0340436D01*
X0265726Y0340299D01*
X0265753Y0340161D01*
X0265777Y0340022D01*
X0265797Y0339882D01*
X0265813Y0339742D01*
X0265825Y0339602D01*
X0265833Y0339461D01*
X0265837Y0339320D01*
X0265837Y0339180D01*
X0265833Y0339039D01*
X0265825Y0338898D01*
X0265813Y0338758D01*
X0265797Y0338618D01*
X0265777Y0338478D01*
X0265753Y0338339D01*
X0265726Y0338201D01*
X0265694Y0338064D01*
X0265659Y0337928D01*
X0265620Y0337792D01*
X0265577Y0337658D01*
X0265530Y0337525D01*
X0265480Y0337394D01*
X0265425Y0337264D01*
X0265368Y0337135D01*
X0265306Y0337008D01*
X0265241Y0336883D01*
X0265173Y0336760D01*
X0265101Y0336639D01*
X0265026Y0336520D01*
X0264947Y0336403D01*
X0264865Y0336288D01*
X0264780Y0336176D01*
X0264692Y0336066D01*
X0264601Y0335959D01*
X0264507Y0335854D01*
X0264410Y0335752D01*
X0264310Y0335653D01*
X0264207Y0335556D01*
X0264102Y0335463D01*
X0263994Y0335372D01*
X0263883Y0335285D01*
X0263770Y0335201D01*
X0263655Y0335120D01*
X0263538Y0335042D01*
X0263418Y0334968D01*
X0263296Y0334897D01*
X0263173Y0334829D01*
X0263047Y0334765D01*
X0262920Y0334705D01*
X0262791Y0334648D01*
X0262661Y0334594D01*
X0262529Y0334545D01*
X0262395Y0334499D01*
X0262261Y0334457D01*
X0262125Y0334419D01*
X0261989Y0334384D01*
X0261851Y0334354D01*
X0261713Y0334327D01*
X0261574Y0334305D01*
X0261434Y0334286D01*
X0261294Y0334271D01*
X0261154Y0334260D01*
X0261013Y0334253D01*
X0260872Y0334250D01*
X0260731Y0334251D01*
X0260591Y0334256D01*
X0260450Y0334265D01*
X0260310Y0334278D01*
X0260170Y0334295D01*
X0260030Y0334315D01*
X0259892Y0334340D01*
X0259754Y0334369D01*
X0259617Y0334401D01*
X0259481Y0334437D01*
X0259346Y0334478D01*
X0259212Y0334522D01*
X0259079Y0334569D01*
X0258948Y0334621D01*
X0258818Y0334676D01*
X0258690Y0334734D01*
X0258564Y0334797D01*
X0258439Y0334862D01*
X0258317Y0334932D01*
X0258196Y0335004D01*
X0258077Y0335080D01*
X0257961Y0335160D01*
X0257847Y0335243D01*
X0257735Y0335328D01*
X0257626Y0335417D01*
X0257519Y0335509D01*
X0257415Y0335604D01*
X0257314Y0335702D01*
X0257215Y0335803D01*
X0257120Y0335906D01*
X0257027Y0336012D01*
X0256937Y0336121D01*
X0256851Y0336232D01*
X0256767Y0336345D01*
X0256687Y0336461D01*
X0256610Y0336579D01*
X0256537Y0336699D01*
X0256466Y0336822D01*
X0256400Y0336946D01*
X0256337Y0337072D01*
X0256277Y0337199D01*
X0256221Y0337328D01*
X0256169Y0337459D01*
X0256120Y0337591D01*
X0256075Y0337725D01*
X0256034Y0337860D01*
X0255997Y0337996D01*
X0255963Y0338132D01*
X0255934Y0338270D01*
X0255908Y0338409D01*
X0255887Y0338548D01*
X0255869Y0338688D01*
X0255855Y0338828D01*
X0255845Y0338968D01*
X0255839Y0339109D01*
X0255837Y0339250D01*
X0551937Y0339250D02*
X0551939Y0339391D01*
X0551945Y0339532D01*
X0551955Y0339672D01*
X0551969Y0339812D01*
X0551987Y0339952D01*
X0552008Y0340091D01*
X0552034Y0340230D01*
X0552063Y0340368D01*
X0552097Y0340504D01*
X0552134Y0340640D01*
X0552175Y0340775D01*
X0552220Y0340909D01*
X0552269Y0341041D01*
X0552321Y0341172D01*
X0552377Y0341301D01*
X0552437Y0341428D01*
X0552500Y0341554D01*
X0552566Y0341678D01*
X0552637Y0341801D01*
X0552710Y0341921D01*
X0552787Y0342039D01*
X0552867Y0342155D01*
X0552951Y0342268D01*
X0553037Y0342379D01*
X0553127Y0342488D01*
X0553220Y0342594D01*
X0553315Y0342697D01*
X0553414Y0342798D01*
X0553515Y0342896D01*
X0553619Y0342991D01*
X0553726Y0343083D01*
X0553835Y0343172D01*
X0553947Y0343257D01*
X0554061Y0343340D01*
X0554177Y0343420D01*
X0554296Y0343496D01*
X0554417Y0343568D01*
X0554539Y0343638D01*
X0554664Y0343703D01*
X0554790Y0343766D01*
X0554918Y0343824D01*
X0555048Y0343879D01*
X0555179Y0343931D01*
X0555312Y0343978D01*
X0555446Y0344022D01*
X0555581Y0344063D01*
X0555717Y0344099D01*
X0555854Y0344131D01*
X0555992Y0344160D01*
X0556130Y0344185D01*
X0556270Y0344205D01*
X0556410Y0344222D01*
X0556550Y0344235D01*
X0556691Y0344244D01*
X0556831Y0344249D01*
X0556972Y0344250D01*
X0557113Y0344247D01*
X0557254Y0344240D01*
X0557394Y0344229D01*
X0557534Y0344214D01*
X0557674Y0344195D01*
X0557813Y0344173D01*
X0557951Y0344146D01*
X0558089Y0344116D01*
X0558225Y0344081D01*
X0558361Y0344043D01*
X0558495Y0344001D01*
X0558629Y0343955D01*
X0558761Y0343906D01*
X0558891Y0343852D01*
X0559020Y0343795D01*
X0559147Y0343735D01*
X0559273Y0343671D01*
X0559396Y0343603D01*
X0559518Y0343532D01*
X0559638Y0343458D01*
X0559755Y0343380D01*
X0559870Y0343299D01*
X0559983Y0343215D01*
X0560094Y0343128D01*
X0560202Y0343037D01*
X0560307Y0342944D01*
X0560410Y0342847D01*
X0560510Y0342748D01*
X0560607Y0342646D01*
X0560701Y0342541D01*
X0560792Y0342434D01*
X0560880Y0342324D01*
X0560965Y0342212D01*
X0561047Y0342097D01*
X0561126Y0341980D01*
X0561201Y0341861D01*
X0561273Y0341740D01*
X0561341Y0341617D01*
X0561406Y0341492D01*
X0561468Y0341365D01*
X0561525Y0341236D01*
X0561580Y0341106D01*
X0561630Y0340975D01*
X0561677Y0340842D01*
X0561720Y0340708D01*
X0561759Y0340572D01*
X0561794Y0340436D01*
X0561826Y0340299D01*
X0561853Y0340161D01*
X0561877Y0340022D01*
X0561897Y0339882D01*
X0561913Y0339742D01*
X0561925Y0339602D01*
X0561933Y0339461D01*
X0561937Y0339320D01*
X0561937Y0339180D01*
X0561933Y0339039D01*
X0561925Y0338898D01*
X0561913Y0338758D01*
X0561897Y0338618D01*
X0561877Y0338478D01*
X0561853Y0338339D01*
X0561826Y0338201D01*
X0561794Y0338064D01*
X0561759Y0337928D01*
X0561720Y0337792D01*
X0561677Y0337658D01*
X0561630Y0337525D01*
X0561580Y0337394D01*
X0561525Y0337264D01*
X0561468Y0337135D01*
X0561406Y0337008D01*
X0561341Y0336883D01*
X0561273Y0336760D01*
X0561201Y0336639D01*
X0561126Y0336520D01*
X0561047Y0336403D01*
X0560965Y0336288D01*
X0560880Y0336176D01*
X0560792Y0336066D01*
X0560701Y0335959D01*
X0560607Y0335854D01*
X0560510Y0335752D01*
X0560410Y0335653D01*
X0560307Y0335556D01*
X0560202Y0335463D01*
X0560094Y0335372D01*
X0559983Y0335285D01*
X0559870Y0335201D01*
X0559755Y0335120D01*
X0559638Y0335042D01*
X0559518Y0334968D01*
X0559396Y0334897D01*
X0559273Y0334829D01*
X0559147Y0334765D01*
X0559020Y0334705D01*
X0558891Y0334648D01*
X0558761Y0334594D01*
X0558629Y0334545D01*
X0558495Y0334499D01*
X0558361Y0334457D01*
X0558225Y0334419D01*
X0558089Y0334384D01*
X0557951Y0334354D01*
X0557813Y0334327D01*
X0557674Y0334305D01*
X0557534Y0334286D01*
X0557394Y0334271D01*
X0557254Y0334260D01*
X0557113Y0334253D01*
X0556972Y0334250D01*
X0556831Y0334251D01*
X0556691Y0334256D01*
X0556550Y0334265D01*
X0556410Y0334278D01*
X0556270Y0334295D01*
X0556130Y0334315D01*
X0555992Y0334340D01*
X0555854Y0334369D01*
X0555717Y0334401D01*
X0555581Y0334437D01*
X0555446Y0334478D01*
X0555312Y0334522D01*
X0555179Y0334569D01*
X0555048Y0334621D01*
X0554918Y0334676D01*
X0554790Y0334734D01*
X0554664Y0334797D01*
X0554539Y0334862D01*
X0554417Y0334932D01*
X0554296Y0335004D01*
X0554177Y0335080D01*
X0554061Y0335160D01*
X0553947Y0335243D01*
X0553835Y0335328D01*
X0553726Y0335417D01*
X0553619Y0335509D01*
X0553515Y0335604D01*
X0553414Y0335702D01*
X0553315Y0335803D01*
X0553220Y0335906D01*
X0553127Y0336012D01*
X0553037Y0336121D01*
X0552951Y0336232D01*
X0552867Y0336345D01*
X0552787Y0336461D01*
X0552710Y0336579D01*
X0552637Y0336699D01*
X0552566Y0336822D01*
X0552500Y0336946D01*
X0552437Y0337072D01*
X0552377Y0337199D01*
X0552321Y0337328D01*
X0552269Y0337459D01*
X0552220Y0337591D01*
X0552175Y0337725D01*
X0552134Y0337860D01*
X0552097Y0337996D01*
X0552063Y0338132D01*
X0552034Y0338270D01*
X0552008Y0338409D01*
X0551987Y0338548D01*
X0551969Y0338688D01*
X0551955Y0338828D01*
X0551945Y0338968D01*
X0551939Y0339109D01*
X0551937Y0339250D01*
X0669138Y0338000D02*
X0669140Y0338158D01*
X0669146Y0338316D01*
X0669156Y0338474D01*
X0669170Y0338632D01*
X0669188Y0338789D01*
X0669209Y0338946D01*
X0669235Y0339102D01*
X0669265Y0339258D01*
X0669298Y0339413D01*
X0669336Y0339566D01*
X0669377Y0339719D01*
X0669422Y0339871D01*
X0669471Y0340022D01*
X0669524Y0340171D01*
X0669580Y0340319D01*
X0669640Y0340465D01*
X0669704Y0340610D01*
X0669772Y0340753D01*
X0669843Y0340895D01*
X0669917Y0341035D01*
X0669995Y0341172D01*
X0670077Y0341308D01*
X0670161Y0341442D01*
X0670250Y0341573D01*
X0670341Y0341702D01*
X0670436Y0341829D01*
X0670533Y0341954D01*
X0670634Y0342076D01*
X0670738Y0342195D01*
X0670845Y0342312D01*
X0670955Y0342426D01*
X0671068Y0342537D01*
X0671183Y0342646D01*
X0671301Y0342751D01*
X0671422Y0342853D01*
X0671545Y0342953D01*
X0671671Y0343049D01*
X0671799Y0343142D01*
X0671929Y0343232D01*
X0672062Y0343318D01*
X0672197Y0343402D01*
X0672333Y0343481D01*
X0672472Y0343558D01*
X0672613Y0343630D01*
X0672755Y0343700D01*
X0672899Y0343765D01*
X0673045Y0343827D01*
X0673192Y0343885D01*
X0673341Y0343940D01*
X0673491Y0343991D01*
X0673642Y0344038D01*
X0673794Y0344081D01*
X0673947Y0344120D01*
X0674102Y0344156D01*
X0674257Y0344187D01*
X0674413Y0344215D01*
X0674569Y0344239D01*
X0674726Y0344259D01*
X0674884Y0344275D01*
X0675041Y0344287D01*
X0675200Y0344295D01*
X0675358Y0344299D01*
X0675516Y0344299D01*
X0675674Y0344295D01*
X0675833Y0344287D01*
X0675990Y0344275D01*
X0676148Y0344259D01*
X0676305Y0344239D01*
X0676461Y0344215D01*
X0676617Y0344187D01*
X0676772Y0344156D01*
X0676927Y0344120D01*
X0677080Y0344081D01*
X0677232Y0344038D01*
X0677383Y0343991D01*
X0677533Y0343940D01*
X0677682Y0343885D01*
X0677829Y0343827D01*
X0677975Y0343765D01*
X0678119Y0343700D01*
X0678261Y0343630D01*
X0678402Y0343558D01*
X0678541Y0343481D01*
X0678677Y0343402D01*
X0678812Y0343318D01*
X0678945Y0343232D01*
X0679075Y0343142D01*
X0679203Y0343049D01*
X0679329Y0342953D01*
X0679452Y0342853D01*
X0679573Y0342751D01*
X0679691Y0342646D01*
X0679806Y0342537D01*
X0679919Y0342426D01*
X0680029Y0342312D01*
X0680136Y0342195D01*
X0680240Y0342076D01*
X0680341Y0341954D01*
X0680438Y0341829D01*
X0680533Y0341702D01*
X0680624Y0341573D01*
X0680713Y0341442D01*
X0680797Y0341308D01*
X0680879Y0341172D01*
X0680957Y0341035D01*
X0681031Y0340895D01*
X0681102Y0340753D01*
X0681170Y0340610D01*
X0681234Y0340465D01*
X0681294Y0340319D01*
X0681350Y0340171D01*
X0681403Y0340022D01*
X0681452Y0339871D01*
X0681497Y0339719D01*
X0681538Y0339566D01*
X0681576Y0339413D01*
X0681609Y0339258D01*
X0681639Y0339102D01*
X0681665Y0338946D01*
X0681686Y0338789D01*
X0681704Y0338632D01*
X0681718Y0338474D01*
X0681728Y0338316D01*
X0681734Y0338158D01*
X0681736Y0338000D01*
X0681734Y0337842D01*
X0681728Y0337684D01*
X0681718Y0337526D01*
X0681704Y0337368D01*
X0681686Y0337211D01*
X0681665Y0337054D01*
X0681639Y0336898D01*
X0681609Y0336742D01*
X0681576Y0336587D01*
X0681538Y0336434D01*
X0681497Y0336281D01*
X0681452Y0336129D01*
X0681403Y0335978D01*
X0681350Y0335829D01*
X0681294Y0335681D01*
X0681234Y0335535D01*
X0681170Y0335390D01*
X0681102Y0335247D01*
X0681031Y0335105D01*
X0680957Y0334965D01*
X0680879Y0334828D01*
X0680797Y0334692D01*
X0680713Y0334558D01*
X0680624Y0334427D01*
X0680533Y0334298D01*
X0680438Y0334171D01*
X0680341Y0334046D01*
X0680240Y0333924D01*
X0680136Y0333805D01*
X0680029Y0333688D01*
X0679919Y0333574D01*
X0679806Y0333463D01*
X0679691Y0333354D01*
X0679573Y0333249D01*
X0679452Y0333147D01*
X0679329Y0333047D01*
X0679203Y0332951D01*
X0679075Y0332858D01*
X0678945Y0332768D01*
X0678812Y0332682D01*
X0678677Y0332598D01*
X0678541Y0332519D01*
X0678402Y0332442D01*
X0678261Y0332370D01*
X0678119Y0332300D01*
X0677975Y0332235D01*
X0677829Y0332173D01*
X0677682Y0332115D01*
X0677533Y0332060D01*
X0677383Y0332009D01*
X0677232Y0331962D01*
X0677080Y0331919D01*
X0676927Y0331880D01*
X0676772Y0331844D01*
X0676617Y0331813D01*
X0676461Y0331785D01*
X0676305Y0331761D01*
X0676148Y0331741D01*
X0675990Y0331725D01*
X0675833Y0331713D01*
X0675674Y0331705D01*
X0675516Y0331701D01*
X0675358Y0331701D01*
X0675200Y0331705D01*
X0675041Y0331713D01*
X0674884Y0331725D01*
X0674726Y0331741D01*
X0674569Y0331761D01*
X0674413Y0331785D01*
X0674257Y0331813D01*
X0674102Y0331844D01*
X0673947Y0331880D01*
X0673794Y0331919D01*
X0673642Y0331962D01*
X0673491Y0332009D01*
X0673341Y0332060D01*
X0673192Y0332115D01*
X0673045Y0332173D01*
X0672899Y0332235D01*
X0672755Y0332300D01*
X0672613Y0332370D01*
X0672472Y0332442D01*
X0672333Y0332519D01*
X0672197Y0332598D01*
X0672062Y0332682D01*
X0671929Y0332768D01*
X0671799Y0332858D01*
X0671671Y0332951D01*
X0671545Y0333047D01*
X0671422Y0333147D01*
X0671301Y0333249D01*
X0671183Y0333354D01*
X0671068Y0333463D01*
X0670955Y0333574D01*
X0670845Y0333688D01*
X0670738Y0333805D01*
X0670634Y0333924D01*
X0670533Y0334046D01*
X0670436Y0334171D01*
X0670341Y0334298D01*
X0670250Y0334427D01*
X0670161Y0334558D01*
X0670077Y0334692D01*
X0669995Y0334828D01*
X0669917Y0334965D01*
X0669843Y0335105D01*
X0669772Y0335247D01*
X0669704Y0335390D01*
X0669640Y0335535D01*
X0669580Y0335681D01*
X0669524Y0335829D01*
X0669471Y0335978D01*
X0669422Y0336129D01*
X0669377Y0336281D01*
X0669336Y0336434D01*
X0669298Y0336587D01*
X0669265Y0336742D01*
X0669235Y0336898D01*
X0669209Y0337054D01*
X0669188Y0337211D01*
X0669170Y0337368D01*
X0669156Y0337526D01*
X0669146Y0337684D01*
X0669140Y0337842D01*
X0669138Y0338000D01*
X0551937Y0216250D02*
X0551939Y0216391D01*
X0551945Y0216532D01*
X0551955Y0216672D01*
X0551969Y0216812D01*
X0551987Y0216952D01*
X0552008Y0217091D01*
X0552034Y0217230D01*
X0552063Y0217368D01*
X0552097Y0217504D01*
X0552134Y0217640D01*
X0552175Y0217775D01*
X0552220Y0217909D01*
X0552269Y0218041D01*
X0552321Y0218172D01*
X0552377Y0218301D01*
X0552437Y0218428D01*
X0552500Y0218554D01*
X0552566Y0218678D01*
X0552637Y0218801D01*
X0552710Y0218921D01*
X0552787Y0219039D01*
X0552867Y0219155D01*
X0552951Y0219268D01*
X0553037Y0219379D01*
X0553127Y0219488D01*
X0553220Y0219594D01*
X0553315Y0219697D01*
X0553414Y0219798D01*
X0553515Y0219896D01*
X0553619Y0219991D01*
X0553726Y0220083D01*
X0553835Y0220172D01*
X0553947Y0220257D01*
X0554061Y0220340D01*
X0554177Y0220420D01*
X0554296Y0220496D01*
X0554417Y0220568D01*
X0554539Y0220638D01*
X0554664Y0220703D01*
X0554790Y0220766D01*
X0554918Y0220824D01*
X0555048Y0220879D01*
X0555179Y0220931D01*
X0555312Y0220978D01*
X0555446Y0221022D01*
X0555581Y0221063D01*
X0555717Y0221099D01*
X0555854Y0221131D01*
X0555992Y0221160D01*
X0556130Y0221185D01*
X0556270Y0221205D01*
X0556410Y0221222D01*
X0556550Y0221235D01*
X0556691Y0221244D01*
X0556831Y0221249D01*
X0556972Y0221250D01*
X0557113Y0221247D01*
X0557254Y0221240D01*
X0557394Y0221229D01*
X0557534Y0221214D01*
X0557674Y0221195D01*
X0557813Y0221173D01*
X0557951Y0221146D01*
X0558089Y0221116D01*
X0558225Y0221081D01*
X0558361Y0221043D01*
X0558495Y0221001D01*
X0558629Y0220955D01*
X0558761Y0220906D01*
X0558891Y0220852D01*
X0559020Y0220795D01*
X0559147Y0220735D01*
X0559273Y0220671D01*
X0559396Y0220603D01*
X0559518Y0220532D01*
X0559638Y0220458D01*
X0559755Y0220380D01*
X0559870Y0220299D01*
X0559983Y0220215D01*
X0560094Y0220128D01*
X0560202Y0220037D01*
X0560307Y0219944D01*
X0560410Y0219847D01*
X0560510Y0219748D01*
X0560607Y0219646D01*
X0560701Y0219541D01*
X0560792Y0219434D01*
X0560880Y0219324D01*
X0560965Y0219212D01*
X0561047Y0219097D01*
X0561126Y0218980D01*
X0561201Y0218861D01*
X0561273Y0218740D01*
X0561341Y0218617D01*
X0561406Y0218492D01*
X0561468Y0218365D01*
X0561525Y0218236D01*
X0561580Y0218106D01*
X0561630Y0217975D01*
X0561677Y0217842D01*
X0561720Y0217708D01*
X0561759Y0217572D01*
X0561794Y0217436D01*
X0561826Y0217299D01*
X0561853Y0217161D01*
X0561877Y0217022D01*
X0561897Y0216882D01*
X0561913Y0216742D01*
X0561925Y0216602D01*
X0561933Y0216461D01*
X0561937Y0216320D01*
X0561937Y0216180D01*
X0561933Y0216039D01*
X0561925Y0215898D01*
X0561913Y0215758D01*
X0561897Y0215618D01*
X0561877Y0215478D01*
X0561853Y0215339D01*
X0561826Y0215201D01*
X0561794Y0215064D01*
X0561759Y0214928D01*
X0561720Y0214792D01*
X0561677Y0214658D01*
X0561630Y0214525D01*
X0561580Y0214394D01*
X0561525Y0214264D01*
X0561468Y0214135D01*
X0561406Y0214008D01*
X0561341Y0213883D01*
X0561273Y0213760D01*
X0561201Y0213639D01*
X0561126Y0213520D01*
X0561047Y0213403D01*
X0560965Y0213288D01*
X0560880Y0213176D01*
X0560792Y0213066D01*
X0560701Y0212959D01*
X0560607Y0212854D01*
X0560510Y0212752D01*
X0560410Y0212653D01*
X0560307Y0212556D01*
X0560202Y0212463D01*
X0560094Y0212372D01*
X0559983Y0212285D01*
X0559870Y0212201D01*
X0559755Y0212120D01*
X0559638Y0212042D01*
X0559518Y0211968D01*
X0559396Y0211897D01*
X0559273Y0211829D01*
X0559147Y0211765D01*
X0559020Y0211705D01*
X0558891Y0211648D01*
X0558761Y0211594D01*
X0558629Y0211545D01*
X0558495Y0211499D01*
X0558361Y0211457D01*
X0558225Y0211419D01*
X0558089Y0211384D01*
X0557951Y0211354D01*
X0557813Y0211327D01*
X0557674Y0211305D01*
X0557534Y0211286D01*
X0557394Y0211271D01*
X0557254Y0211260D01*
X0557113Y0211253D01*
X0556972Y0211250D01*
X0556831Y0211251D01*
X0556691Y0211256D01*
X0556550Y0211265D01*
X0556410Y0211278D01*
X0556270Y0211295D01*
X0556130Y0211315D01*
X0555992Y0211340D01*
X0555854Y0211369D01*
X0555717Y0211401D01*
X0555581Y0211437D01*
X0555446Y0211478D01*
X0555312Y0211522D01*
X0555179Y0211569D01*
X0555048Y0211621D01*
X0554918Y0211676D01*
X0554790Y0211734D01*
X0554664Y0211797D01*
X0554539Y0211862D01*
X0554417Y0211932D01*
X0554296Y0212004D01*
X0554177Y0212080D01*
X0554061Y0212160D01*
X0553947Y0212243D01*
X0553835Y0212328D01*
X0553726Y0212417D01*
X0553619Y0212509D01*
X0553515Y0212604D01*
X0553414Y0212702D01*
X0553315Y0212803D01*
X0553220Y0212906D01*
X0553127Y0213012D01*
X0553037Y0213121D01*
X0552951Y0213232D01*
X0552867Y0213345D01*
X0552787Y0213461D01*
X0552710Y0213579D01*
X0552637Y0213699D01*
X0552566Y0213822D01*
X0552500Y0213946D01*
X0552437Y0214072D01*
X0552377Y0214199D01*
X0552321Y0214328D01*
X0552269Y0214459D01*
X0552220Y0214591D01*
X0552175Y0214725D01*
X0552134Y0214860D01*
X0552097Y0214996D01*
X0552063Y0215132D01*
X0552034Y0215270D01*
X0552008Y0215409D01*
X0551987Y0215548D01*
X0551969Y0215688D01*
X0551955Y0215828D01*
X0551945Y0215968D01*
X0551939Y0216109D01*
X0551937Y0216250D01*
X0666888Y0020750D02*
X0666890Y0020908D01*
X0666896Y0021066D01*
X0666906Y0021224D01*
X0666920Y0021382D01*
X0666938Y0021539D01*
X0666959Y0021696D01*
X0666985Y0021852D01*
X0667015Y0022008D01*
X0667048Y0022163D01*
X0667086Y0022316D01*
X0667127Y0022469D01*
X0667172Y0022621D01*
X0667221Y0022772D01*
X0667274Y0022921D01*
X0667330Y0023069D01*
X0667390Y0023215D01*
X0667454Y0023360D01*
X0667522Y0023503D01*
X0667593Y0023645D01*
X0667667Y0023785D01*
X0667745Y0023922D01*
X0667827Y0024058D01*
X0667911Y0024192D01*
X0668000Y0024323D01*
X0668091Y0024452D01*
X0668186Y0024579D01*
X0668283Y0024704D01*
X0668384Y0024826D01*
X0668488Y0024945D01*
X0668595Y0025062D01*
X0668705Y0025176D01*
X0668818Y0025287D01*
X0668933Y0025396D01*
X0669051Y0025501D01*
X0669172Y0025603D01*
X0669295Y0025703D01*
X0669421Y0025799D01*
X0669549Y0025892D01*
X0669679Y0025982D01*
X0669812Y0026068D01*
X0669947Y0026152D01*
X0670083Y0026231D01*
X0670222Y0026308D01*
X0670363Y0026380D01*
X0670505Y0026450D01*
X0670649Y0026515D01*
X0670795Y0026577D01*
X0670942Y0026635D01*
X0671091Y0026690D01*
X0671241Y0026741D01*
X0671392Y0026788D01*
X0671544Y0026831D01*
X0671697Y0026870D01*
X0671852Y0026906D01*
X0672007Y0026937D01*
X0672163Y0026965D01*
X0672319Y0026989D01*
X0672476Y0027009D01*
X0672634Y0027025D01*
X0672791Y0027037D01*
X0672950Y0027045D01*
X0673108Y0027049D01*
X0673266Y0027049D01*
X0673424Y0027045D01*
X0673583Y0027037D01*
X0673740Y0027025D01*
X0673898Y0027009D01*
X0674055Y0026989D01*
X0674211Y0026965D01*
X0674367Y0026937D01*
X0674522Y0026906D01*
X0674677Y0026870D01*
X0674830Y0026831D01*
X0674982Y0026788D01*
X0675133Y0026741D01*
X0675283Y0026690D01*
X0675432Y0026635D01*
X0675579Y0026577D01*
X0675725Y0026515D01*
X0675869Y0026450D01*
X0676011Y0026380D01*
X0676152Y0026308D01*
X0676291Y0026231D01*
X0676427Y0026152D01*
X0676562Y0026068D01*
X0676695Y0025982D01*
X0676825Y0025892D01*
X0676953Y0025799D01*
X0677079Y0025703D01*
X0677202Y0025603D01*
X0677323Y0025501D01*
X0677441Y0025396D01*
X0677556Y0025287D01*
X0677669Y0025176D01*
X0677779Y0025062D01*
X0677886Y0024945D01*
X0677990Y0024826D01*
X0678091Y0024704D01*
X0678188Y0024579D01*
X0678283Y0024452D01*
X0678374Y0024323D01*
X0678463Y0024192D01*
X0678547Y0024058D01*
X0678629Y0023922D01*
X0678707Y0023785D01*
X0678781Y0023645D01*
X0678852Y0023503D01*
X0678920Y0023360D01*
X0678984Y0023215D01*
X0679044Y0023069D01*
X0679100Y0022921D01*
X0679153Y0022772D01*
X0679202Y0022621D01*
X0679247Y0022469D01*
X0679288Y0022316D01*
X0679326Y0022163D01*
X0679359Y0022008D01*
X0679389Y0021852D01*
X0679415Y0021696D01*
X0679436Y0021539D01*
X0679454Y0021382D01*
X0679468Y0021224D01*
X0679478Y0021066D01*
X0679484Y0020908D01*
X0679486Y0020750D01*
X0679484Y0020592D01*
X0679478Y0020434D01*
X0679468Y0020276D01*
X0679454Y0020118D01*
X0679436Y0019961D01*
X0679415Y0019804D01*
X0679389Y0019648D01*
X0679359Y0019492D01*
X0679326Y0019337D01*
X0679288Y0019184D01*
X0679247Y0019031D01*
X0679202Y0018879D01*
X0679153Y0018728D01*
X0679100Y0018579D01*
X0679044Y0018431D01*
X0678984Y0018285D01*
X0678920Y0018140D01*
X0678852Y0017997D01*
X0678781Y0017855D01*
X0678707Y0017715D01*
X0678629Y0017578D01*
X0678547Y0017442D01*
X0678463Y0017308D01*
X0678374Y0017177D01*
X0678283Y0017048D01*
X0678188Y0016921D01*
X0678091Y0016796D01*
X0677990Y0016674D01*
X0677886Y0016555D01*
X0677779Y0016438D01*
X0677669Y0016324D01*
X0677556Y0016213D01*
X0677441Y0016104D01*
X0677323Y0015999D01*
X0677202Y0015897D01*
X0677079Y0015797D01*
X0676953Y0015701D01*
X0676825Y0015608D01*
X0676695Y0015518D01*
X0676562Y0015432D01*
X0676427Y0015348D01*
X0676291Y0015269D01*
X0676152Y0015192D01*
X0676011Y0015120D01*
X0675869Y0015050D01*
X0675725Y0014985D01*
X0675579Y0014923D01*
X0675432Y0014865D01*
X0675283Y0014810D01*
X0675133Y0014759D01*
X0674982Y0014712D01*
X0674830Y0014669D01*
X0674677Y0014630D01*
X0674522Y0014594D01*
X0674367Y0014563D01*
X0674211Y0014535D01*
X0674055Y0014511D01*
X0673898Y0014491D01*
X0673740Y0014475D01*
X0673583Y0014463D01*
X0673424Y0014455D01*
X0673266Y0014451D01*
X0673108Y0014451D01*
X0672950Y0014455D01*
X0672791Y0014463D01*
X0672634Y0014475D01*
X0672476Y0014491D01*
X0672319Y0014511D01*
X0672163Y0014535D01*
X0672007Y0014563D01*
X0671852Y0014594D01*
X0671697Y0014630D01*
X0671544Y0014669D01*
X0671392Y0014712D01*
X0671241Y0014759D01*
X0671091Y0014810D01*
X0670942Y0014865D01*
X0670795Y0014923D01*
X0670649Y0014985D01*
X0670505Y0015050D01*
X0670363Y0015120D01*
X0670222Y0015192D01*
X0670083Y0015269D01*
X0669947Y0015348D01*
X0669812Y0015432D01*
X0669679Y0015518D01*
X0669549Y0015608D01*
X0669421Y0015701D01*
X0669295Y0015797D01*
X0669172Y0015897D01*
X0669051Y0015999D01*
X0668933Y0016104D01*
X0668818Y0016213D01*
X0668705Y0016324D01*
X0668595Y0016438D01*
X0668488Y0016555D01*
X0668384Y0016674D01*
X0668283Y0016796D01*
X0668186Y0016921D01*
X0668091Y0017048D01*
X0668000Y0017177D01*
X0667911Y0017308D01*
X0667827Y0017442D01*
X0667745Y0017578D01*
X0667667Y0017715D01*
X0667593Y0017855D01*
X0667522Y0017997D01*
X0667454Y0018140D01*
X0667390Y0018285D01*
X0667330Y0018431D01*
X0667274Y0018579D01*
X0667221Y0018728D01*
X0667172Y0018879D01*
X0667127Y0019031D01*
X0667086Y0019184D01*
X0667048Y0019337D01*
X0667015Y0019492D01*
X0666985Y0019648D01*
X0666959Y0019804D01*
X0666938Y0019961D01*
X0666920Y0020118D01*
X0666906Y0020276D01*
X0666896Y0020434D01*
X0666890Y0020592D01*
X0666888Y0020750D01*
D11*
X0669187Y0020750D02*
X0677187Y0020750D01*
X0673187Y0016750D02*
X0673187Y0024750D01*
X0669287Y0020750D02*
X0669289Y0020874D01*
X0669295Y0020999D01*
X0669305Y0021123D01*
X0669319Y0021246D01*
X0669336Y0021369D01*
X0669358Y0021492D01*
X0669384Y0021614D01*
X0669413Y0021734D01*
X0669447Y0021854D01*
X0669484Y0021973D01*
X0669525Y0022090D01*
X0669569Y0022206D01*
X0669617Y0022321D01*
X0669669Y0022434D01*
X0669725Y0022545D01*
X0669784Y0022655D01*
X0669846Y0022762D01*
X0669912Y0022868D01*
X0669981Y0022971D01*
X0670054Y0023072D01*
X0670130Y0023171D01*
X0670208Y0023267D01*
X0670290Y0023361D01*
X0670375Y0023452D01*
X0670462Y0023541D01*
X0670553Y0023626D01*
X0670646Y0023709D01*
X0670742Y0023788D01*
X0670840Y0023864D01*
X0670940Y0023938D01*
X0671043Y0024008D01*
X0671148Y0024074D01*
X0671255Y0024138D01*
X0671364Y0024198D01*
X0671475Y0024254D01*
X0671587Y0024307D01*
X0671702Y0024356D01*
X0671817Y0024402D01*
X0671935Y0024443D01*
X0672053Y0024482D01*
X0672173Y0024516D01*
X0672293Y0024546D01*
X0672415Y0024573D01*
X0672537Y0024595D01*
X0672660Y0024614D01*
X0672783Y0024629D01*
X0672907Y0024640D01*
X0673032Y0024647D01*
X0673156Y0024650D01*
X0673280Y0024649D01*
X0673405Y0024644D01*
X0673529Y0024635D01*
X0673652Y0024622D01*
X0673776Y0024605D01*
X0673898Y0024585D01*
X0674020Y0024560D01*
X0674141Y0024531D01*
X0674261Y0024499D01*
X0674380Y0024463D01*
X0674498Y0024423D01*
X0674615Y0024379D01*
X0674730Y0024332D01*
X0674843Y0024281D01*
X0674955Y0024226D01*
X0675065Y0024168D01*
X0675173Y0024107D01*
X0675279Y0024042D01*
X0675383Y0023973D01*
X0675484Y0023902D01*
X0675584Y0023827D01*
X0675681Y0023749D01*
X0675775Y0023668D01*
X0675867Y0023584D01*
X0675956Y0023497D01*
X0676042Y0023407D01*
X0676125Y0023315D01*
X0676205Y0023220D01*
X0676283Y0023122D01*
X0676357Y0023022D01*
X0676428Y0022920D01*
X0676495Y0022816D01*
X0676559Y0022709D01*
X0676620Y0022600D01*
X0676677Y0022490D01*
X0676731Y0022378D01*
X0676781Y0022264D01*
X0676828Y0022149D01*
X0676870Y0022032D01*
X0676909Y0021914D01*
X0676945Y0021794D01*
X0676976Y0021674D01*
X0677003Y0021553D01*
X0677027Y0021431D01*
X0677047Y0021308D01*
X0677063Y0021184D01*
X0677075Y0021061D01*
X0677083Y0020937D01*
X0677087Y0020812D01*
X0677087Y0020688D01*
X0677083Y0020563D01*
X0677075Y0020439D01*
X0677063Y0020316D01*
X0677047Y0020192D01*
X0677027Y0020069D01*
X0677003Y0019947D01*
X0676976Y0019826D01*
X0676945Y0019706D01*
X0676909Y0019586D01*
X0676870Y0019468D01*
X0676828Y0019351D01*
X0676781Y0019236D01*
X0676731Y0019122D01*
X0676677Y0019010D01*
X0676620Y0018900D01*
X0676559Y0018791D01*
X0676495Y0018684D01*
X0676428Y0018580D01*
X0676357Y0018478D01*
X0676283Y0018378D01*
X0676205Y0018280D01*
X0676125Y0018185D01*
X0676042Y0018093D01*
X0675956Y0018003D01*
X0675867Y0017916D01*
X0675775Y0017832D01*
X0675681Y0017751D01*
X0675584Y0017673D01*
X0675484Y0017598D01*
X0675383Y0017527D01*
X0675279Y0017458D01*
X0675173Y0017393D01*
X0675065Y0017332D01*
X0674955Y0017274D01*
X0674843Y0017219D01*
X0674730Y0017168D01*
X0674615Y0017121D01*
X0674498Y0017077D01*
X0674380Y0017037D01*
X0674261Y0017001D01*
X0674141Y0016969D01*
X0674020Y0016940D01*
X0673898Y0016915D01*
X0673776Y0016895D01*
X0673652Y0016878D01*
X0673529Y0016865D01*
X0673405Y0016856D01*
X0673280Y0016851D01*
X0673156Y0016850D01*
X0673032Y0016853D01*
X0672907Y0016860D01*
X0672783Y0016871D01*
X0672660Y0016886D01*
X0672537Y0016905D01*
X0672415Y0016927D01*
X0672293Y0016954D01*
X0672173Y0016984D01*
X0672053Y0017018D01*
X0671935Y0017057D01*
X0671817Y0017098D01*
X0671702Y0017144D01*
X0671587Y0017193D01*
X0671475Y0017246D01*
X0671364Y0017302D01*
X0671255Y0017362D01*
X0671148Y0017426D01*
X0671043Y0017492D01*
X0670940Y0017562D01*
X0670840Y0017636D01*
X0670742Y0017712D01*
X0670646Y0017791D01*
X0670553Y0017874D01*
X0670462Y0017959D01*
X0670375Y0018048D01*
X0670290Y0018139D01*
X0670208Y0018233D01*
X0670130Y0018329D01*
X0670054Y0018428D01*
X0669981Y0018529D01*
X0669912Y0018632D01*
X0669846Y0018738D01*
X0669784Y0018845D01*
X0669725Y0018955D01*
X0669669Y0019066D01*
X0669617Y0019179D01*
X0669569Y0019294D01*
X0669525Y0019410D01*
X0669484Y0019527D01*
X0669447Y0019646D01*
X0669413Y0019766D01*
X0669384Y0019886D01*
X0669358Y0020008D01*
X0669336Y0020131D01*
X0669319Y0020254D01*
X0669305Y0020377D01*
X0669295Y0020501D01*
X0669289Y0020626D01*
X0669287Y0020750D01*
X0671237Y0020750D02*
X0671239Y0020838D01*
X0671245Y0020926D01*
X0671255Y0021014D01*
X0671269Y0021101D01*
X0671287Y0021187D01*
X0671308Y0021272D01*
X0671334Y0021357D01*
X0671363Y0021440D01*
X0671396Y0021522D01*
X0671433Y0021602D01*
X0671473Y0021680D01*
X0671517Y0021757D01*
X0671564Y0021831D01*
X0671615Y0021903D01*
X0671668Y0021973D01*
X0671725Y0022041D01*
X0671785Y0022105D01*
X0671848Y0022167D01*
X0671913Y0022226D01*
X0671981Y0022282D01*
X0672052Y0022335D01*
X0672124Y0022385D01*
X0672199Y0022431D01*
X0672276Y0022474D01*
X0672355Y0022514D01*
X0672436Y0022549D01*
X0672518Y0022582D01*
X0672601Y0022610D01*
X0672686Y0022635D01*
X0672772Y0022655D01*
X0672858Y0022672D01*
X0672945Y0022685D01*
X0673033Y0022694D01*
X0673121Y0022699D01*
X0673209Y0022700D01*
X0673297Y0022697D01*
X0673385Y0022690D01*
X0673472Y0022679D01*
X0673559Y0022664D01*
X0673645Y0022645D01*
X0673731Y0022623D01*
X0673815Y0022596D01*
X0673897Y0022566D01*
X0673979Y0022532D01*
X0674059Y0022494D01*
X0674136Y0022453D01*
X0674212Y0022409D01*
X0674286Y0022361D01*
X0674358Y0022309D01*
X0674427Y0022255D01*
X0674494Y0022197D01*
X0674558Y0022137D01*
X0674619Y0022073D01*
X0674678Y0022007D01*
X0674733Y0021939D01*
X0674785Y0021867D01*
X0674834Y0021794D01*
X0674879Y0021719D01*
X0674921Y0021641D01*
X0674960Y0021562D01*
X0674995Y0021481D01*
X0675026Y0021398D01*
X0675053Y0021315D01*
X0675077Y0021230D01*
X0675097Y0021144D01*
X0675113Y0021057D01*
X0675125Y0020970D01*
X0675133Y0020882D01*
X0675137Y0020794D01*
X0675137Y0020706D01*
X0675133Y0020618D01*
X0675125Y0020530D01*
X0675113Y0020443D01*
X0675097Y0020356D01*
X0675077Y0020270D01*
X0675053Y0020185D01*
X0675026Y0020102D01*
X0674995Y0020019D01*
X0674960Y0019938D01*
X0674921Y0019859D01*
X0674879Y0019781D01*
X0674834Y0019706D01*
X0674785Y0019633D01*
X0674733Y0019561D01*
X0674678Y0019493D01*
X0674619Y0019427D01*
X0674558Y0019363D01*
X0674494Y0019303D01*
X0674427Y0019245D01*
X0674358Y0019191D01*
X0674286Y0019139D01*
X0674212Y0019091D01*
X0674136Y0019047D01*
X0674059Y0019006D01*
X0673979Y0018968D01*
X0673897Y0018934D01*
X0673815Y0018904D01*
X0673731Y0018877D01*
X0673645Y0018855D01*
X0673559Y0018836D01*
X0673472Y0018821D01*
X0673385Y0018810D01*
X0673297Y0018803D01*
X0673209Y0018800D01*
X0673121Y0018801D01*
X0673033Y0018806D01*
X0672945Y0018815D01*
X0672858Y0018828D01*
X0672772Y0018845D01*
X0672686Y0018865D01*
X0672601Y0018890D01*
X0672518Y0018918D01*
X0672436Y0018951D01*
X0672355Y0018986D01*
X0672276Y0019026D01*
X0672199Y0019069D01*
X0672124Y0019115D01*
X0672052Y0019165D01*
X0671981Y0019218D01*
X0671913Y0019274D01*
X0671848Y0019333D01*
X0671785Y0019395D01*
X0671725Y0019459D01*
X0671668Y0019527D01*
X0671615Y0019597D01*
X0671564Y0019669D01*
X0671517Y0019743D01*
X0671473Y0019820D01*
X0671433Y0019898D01*
X0671396Y0019978D01*
X0671363Y0020060D01*
X0671334Y0020143D01*
X0671308Y0020228D01*
X0671287Y0020313D01*
X0671269Y0020399D01*
X0671255Y0020486D01*
X0671245Y0020574D01*
X0671239Y0020662D01*
X0671237Y0020750D01*
X0553037Y0216250D02*
X0553039Y0216374D01*
X0553045Y0216499D01*
X0553055Y0216623D01*
X0553069Y0216746D01*
X0553086Y0216869D01*
X0553108Y0216992D01*
X0553134Y0217114D01*
X0553163Y0217234D01*
X0553197Y0217354D01*
X0553234Y0217473D01*
X0553275Y0217590D01*
X0553319Y0217706D01*
X0553367Y0217821D01*
X0553419Y0217934D01*
X0553475Y0218045D01*
X0553534Y0218155D01*
X0553596Y0218262D01*
X0553662Y0218368D01*
X0553731Y0218471D01*
X0553804Y0218572D01*
X0553880Y0218671D01*
X0553958Y0218767D01*
X0554040Y0218861D01*
X0554125Y0218952D01*
X0554212Y0219041D01*
X0554303Y0219126D01*
X0554396Y0219209D01*
X0554492Y0219288D01*
X0554590Y0219364D01*
X0554690Y0219438D01*
X0554793Y0219508D01*
X0554898Y0219574D01*
X0555005Y0219638D01*
X0555114Y0219698D01*
X0555225Y0219754D01*
X0555337Y0219807D01*
X0555452Y0219856D01*
X0555567Y0219902D01*
X0555685Y0219943D01*
X0555803Y0219982D01*
X0555923Y0220016D01*
X0556043Y0220046D01*
X0556165Y0220073D01*
X0556287Y0220095D01*
X0556410Y0220114D01*
X0556533Y0220129D01*
X0556657Y0220140D01*
X0556782Y0220147D01*
X0556906Y0220150D01*
X0557030Y0220149D01*
X0557155Y0220144D01*
X0557279Y0220135D01*
X0557402Y0220122D01*
X0557526Y0220105D01*
X0557648Y0220085D01*
X0557770Y0220060D01*
X0557891Y0220031D01*
X0558011Y0219999D01*
X0558130Y0219963D01*
X0558248Y0219923D01*
X0558365Y0219879D01*
X0558480Y0219832D01*
X0558593Y0219781D01*
X0558705Y0219726D01*
X0558815Y0219668D01*
X0558923Y0219607D01*
X0559029Y0219542D01*
X0559133Y0219473D01*
X0559234Y0219402D01*
X0559334Y0219327D01*
X0559431Y0219249D01*
X0559525Y0219168D01*
X0559617Y0219084D01*
X0559706Y0218997D01*
X0559792Y0218907D01*
X0559875Y0218815D01*
X0559955Y0218720D01*
X0560033Y0218622D01*
X0560107Y0218522D01*
X0560178Y0218420D01*
X0560245Y0218316D01*
X0560309Y0218209D01*
X0560370Y0218100D01*
X0560427Y0217990D01*
X0560481Y0217878D01*
X0560531Y0217764D01*
X0560578Y0217649D01*
X0560620Y0217532D01*
X0560659Y0217414D01*
X0560695Y0217294D01*
X0560726Y0217174D01*
X0560753Y0217053D01*
X0560777Y0216931D01*
X0560797Y0216808D01*
X0560813Y0216684D01*
X0560825Y0216561D01*
X0560833Y0216437D01*
X0560837Y0216312D01*
X0560837Y0216188D01*
X0560833Y0216063D01*
X0560825Y0215939D01*
X0560813Y0215816D01*
X0560797Y0215692D01*
X0560777Y0215569D01*
X0560753Y0215447D01*
X0560726Y0215326D01*
X0560695Y0215206D01*
X0560659Y0215086D01*
X0560620Y0214968D01*
X0560578Y0214851D01*
X0560531Y0214736D01*
X0560481Y0214622D01*
X0560427Y0214510D01*
X0560370Y0214400D01*
X0560309Y0214291D01*
X0560245Y0214184D01*
X0560178Y0214080D01*
X0560107Y0213978D01*
X0560033Y0213878D01*
X0559955Y0213780D01*
X0559875Y0213685D01*
X0559792Y0213593D01*
X0559706Y0213503D01*
X0559617Y0213416D01*
X0559525Y0213332D01*
X0559431Y0213251D01*
X0559334Y0213173D01*
X0559234Y0213098D01*
X0559133Y0213027D01*
X0559029Y0212958D01*
X0558923Y0212893D01*
X0558815Y0212832D01*
X0558705Y0212774D01*
X0558593Y0212719D01*
X0558480Y0212668D01*
X0558365Y0212621D01*
X0558248Y0212577D01*
X0558130Y0212537D01*
X0558011Y0212501D01*
X0557891Y0212469D01*
X0557770Y0212440D01*
X0557648Y0212415D01*
X0557526Y0212395D01*
X0557402Y0212378D01*
X0557279Y0212365D01*
X0557155Y0212356D01*
X0557030Y0212351D01*
X0556906Y0212350D01*
X0556782Y0212353D01*
X0556657Y0212360D01*
X0556533Y0212371D01*
X0556410Y0212386D01*
X0556287Y0212405D01*
X0556165Y0212427D01*
X0556043Y0212454D01*
X0555923Y0212484D01*
X0555803Y0212518D01*
X0555685Y0212557D01*
X0555567Y0212598D01*
X0555452Y0212644D01*
X0555337Y0212693D01*
X0555225Y0212746D01*
X0555114Y0212802D01*
X0555005Y0212862D01*
X0554898Y0212926D01*
X0554793Y0212992D01*
X0554690Y0213062D01*
X0554590Y0213136D01*
X0554492Y0213212D01*
X0554396Y0213291D01*
X0554303Y0213374D01*
X0554212Y0213459D01*
X0554125Y0213548D01*
X0554040Y0213639D01*
X0553958Y0213733D01*
X0553880Y0213829D01*
X0553804Y0213928D01*
X0553731Y0214029D01*
X0553662Y0214132D01*
X0553596Y0214238D01*
X0553534Y0214345D01*
X0553475Y0214455D01*
X0553419Y0214566D01*
X0553367Y0214679D01*
X0553319Y0214794D01*
X0553275Y0214910D01*
X0553234Y0215027D01*
X0553197Y0215146D01*
X0553163Y0215266D01*
X0553134Y0215386D01*
X0553108Y0215508D01*
X0553086Y0215631D01*
X0553069Y0215754D01*
X0553055Y0215877D01*
X0553045Y0216001D01*
X0553039Y0216126D01*
X0553037Y0216250D01*
X0552937Y0212250D02*
X0560937Y0220250D01*
X0553037Y0339250D02*
X0553039Y0339374D01*
X0553045Y0339499D01*
X0553055Y0339623D01*
X0553069Y0339746D01*
X0553086Y0339869D01*
X0553108Y0339992D01*
X0553134Y0340114D01*
X0553163Y0340234D01*
X0553197Y0340354D01*
X0553234Y0340473D01*
X0553275Y0340590D01*
X0553319Y0340706D01*
X0553367Y0340821D01*
X0553419Y0340934D01*
X0553475Y0341045D01*
X0553534Y0341155D01*
X0553596Y0341262D01*
X0553662Y0341368D01*
X0553731Y0341471D01*
X0553804Y0341572D01*
X0553880Y0341671D01*
X0553958Y0341767D01*
X0554040Y0341861D01*
X0554125Y0341952D01*
X0554212Y0342041D01*
X0554303Y0342126D01*
X0554396Y0342209D01*
X0554492Y0342288D01*
X0554590Y0342364D01*
X0554690Y0342438D01*
X0554793Y0342508D01*
X0554898Y0342574D01*
X0555005Y0342638D01*
X0555114Y0342698D01*
X0555225Y0342754D01*
X0555337Y0342807D01*
X0555452Y0342856D01*
X0555567Y0342902D01*
X0555685Y0342943D01*
X0555803Y0342982D01*
X0555923Y0343016D01*
X0556043Y0343046D01*
X0556165Y0343073D01*
X0556287Y0343095D01*
X0556410Y0343114D01*
X0556533Y0343129D01*
X0556657Y0343140D01*
X0556782Y0343147D01*
X0556906Y0343150D01*
X0557030Y0343149D01*
X0557155Y0343144D01*
X0557279Y0343135D01*
X0557402Y0343122D01*
X0557526Y0343105D01*
X0557648Y0343085D01*
X0557770Y0343060D01*
X0557891Y0343031D01*
X0558011Y0342999D01*
X0558130Y0342963D01*
X0558248Y0342923D01*
X0558365Y0342879D01*
X0558480Y0342832D01*
X0558593Y0342781D01*
X0558705Y0342726D01*
X0558815Y0342668D01*
X0558923Y0342607D01*
X0559029Y0342542D01*
X0559133Y0342473D01*
X0559234Y0342402D01*
X0559334Y0342327D01*
X0559431Y0342249D01*
X0559525Y0342168D01*
X0559617Y0342084D01*
X0559706Y0341997D01*
X0559792Y0341907D01*
X0559875Y0341815D01*
X0559955Y0341720D01*
X0560033Y0341622D01*
X0560107Y0341522D01*
X0560178Y0341420D01*
X0560245Y0341316D01*
X0560309Y0341209D01*
X0560370Y0341100D01*
X0560427Y0340990D01*
X0560481Y0340878D01*
X0560531Y0340764D01*
X0560578Y0340649D01*
X0560620Y0340532D01*
X0560659Y0340414D01*
X0560695Y0340294D01*
X0560726Y0340174D01*
X0560753Y0340053D01*
X0560777Y0339931D01*
X0560797Y0339808D01*
X0560813Y0339684D01*
X0560825Y0339561D01*
X0560833Y0339437D01*
X0560837Y0339312D01*
X0560837Y0339188D01*
X0560833Y0339063D01*
X0560825Y0338939D01*
X0560813Y0338816D01*
X0560797Y0338692D01*
X0560777Y0338569D01*
X0560753Y0338447D01*
X0560726Y0338326D01*
X0560695Y0338206D01*
X0560659Y0338086D01*
X0560620Y0337968D01*
X0560578Y0337851D01*
X0560531Y0337736D01*
X0560481Y0337622D01*
X0560427Y0337510D01*
X0560370Y0337400D01*
X0560309Y0337291D01*
X0560245Y0337184D01*
X0560178Y0337080D01*
X0560107Y0336978D01*
X0560033Y0336878D01*
X0559955Y0336780D01*
X0559875Y0336685D01*
X0559792Y0336593D01*
X0559706Y0336503D01*
X0559617Y0336416D01*
X0559525Y0336332D01*
X0559431Y0336251D01*
X0559334Y0336173D01*
X0559234Y0336098D01*
X0559133Y0336027D01*
X0559029Y0335958D01*
X0558923Y0335893D01*
X0558815Y0335832D01*
X0558705Y0335774D01*
X0558593Y0335719D01*
X0558480Y0335668D01*
X0558365Y0335621D01*
X0558248Y0335577D01*
X0558130Y0335537D01*
X0558011Y0335501D01*
X0557891Y0335469D01*
X0557770Y0335440D01*
X0557648Y0335415D01*
X0557526Y0335395D01*
X0557402Y0335378D01*
X0557279Y0335365D01*
X0557155Y0335356D01*
X0557030Y0335351D01*
X0556906Y0335350D01*
X0556782Y0335353D01*
X0556657Y0335360D01*
X0556533Y0335371D01*
X0556410Y0335386D01*
X0556287Y0335405D01*
X0556165Y0335427D01*
X0556043Y0335454D01*
X0555923Y0335484D01*
X0555803Y0335518D01*
X0555685Y0335557D01*
X0555567Y0335598D01*
X0555452Y0335644D01*
X0555337Y0335693D01*
X0555225Y0335746D01*
X0555114Y0335802D01*
X0555005Y0335862D01*
X0554898Y0335926D01*
X0554793Y0335992D01*
X0554690Y0336062D01*
X0554590Y0336136D01*
X0554492Y0336212D01*
X0554396Y0336291D01*
X0554303Y0336374D01*
X0554212Y0336459D01*
X0554125Y0336548D01*
X0554040Y0336639D01*
X0553958Y0336733D01*
X0553880Y0336829D01*
X0553804Y0336928D01*
X0553731Y0337029D01*
X0553662Y0337132D01*
X0553596Y0337238D01*
X0553534Y0337345D01*
X0553475Y0337455D01*
X0553419Y0337566D01*
X0553367Y0337679D01*
X0553319Y0337794D01*
X0553275Y0337910D01*
X0553234Y0338027D01*
X0553197Y0338146D01*
X0553163Y0338266D01*
X0553134Y0338386D01*
X0553108Y0338508D01*
X0553086Y0338631D01*
X0553069Y0338754D01*
X0553055Y0338877D01*
X0553045Y0339001D01*
X0553039Y0339126D01*
X0553037Y0339250D01*
X0552937Y0335250D02*
X0560937Y0343250D01*
X0671437Y0338000D02*
X0679437Y0338000D01*
X0675437Y0334000D02*
X0675437Y0342000D01*
X0671537Y0338000D02*
X0671539Y0338124D01*
X0671545Y0338249D01*
X0671555Y0338373D01*
X0671569Y0338496D01*
X0671586Y0338619D01*
X0671608Y0338742D01*
X0671634Y0338864D01*
X0671663Y0338984D01*
X0671697Y0339104D01*
X0671734Y0339223D01*
X0671775Y0339340D01*
X0671819Y0339456D01*
X0671867Y0339571D01*
X0671919Y0339684D01*
X0671975Y0339795D01*
X0672034Y0339905D01*
X0672096Y0340012D01*
X0672162Y0340118D01*
X0672231Y0340221D01*
X0672304Y0340322D01*
X0672380Y0340421D01*
X0672458Y0340517D01*
X0672540Y0340611D01*
X0672625Y0340702D01*
X0672712Y0340791D01*
X0672803Y0340876D01*
X0672896Y0340959D01*
X0672992Y0341038D01*
X0673090Y0341114D01*
X0673190Y0341188D01*
X0673293Y0341258D01*
X0673398Y0341324D01*
X0673505Y0341388D01*
X0673614Y0341448D01*
X0673725Y0341504D01*
X0673837Y0341557D01*
X0673952Y0341606D01*
X0674067Y0341652D01*
X0674185Y0341693D01*
X0674303Y0341732D01*
X0674423Y0341766D01*
X0674543Y0341796D01*
X0674665Y0341823D01*
X0674787Y0341845D01*
X0674910Y0341864D01*
X0675033Y0341879D01*
X0675157Y0341890D01*
X0675282Y0341897D01*
X0675406Y0341900D01*
X0675530Y0341899D01*
X0675655Y0341894D01*
X0675779Y0341885D01*
X0675902Y0341872D01*
X0676026Y0341855D01*
X0676148Y0341835D01*
X0676270Y0341810D01*
X0676391Y0341781D01*
X0676511Y0341749D01*
X0676630Y0341713D01*
X0676748Y0341673D01*
X0676865Y0341629D01*
X0676980Y0341582D01*
X0677093Y0341531D01*
X0677205Y0341476D01*
X0677315Y0341418D01*
X0677423Y0341357D01*
X0677529Y0341292D01*
X0677633Y0341223D01*
X0677734Y0341152D01*
X0677834Y0341077D01*
X0677931Y0340999D01*
X0678025Y0340918D01*
X0678117Y0340834D01*
X0678206Y0340747D01*
X0678292Y0340657D01*
X0678375Y0340565D01*
X0678455Y0340470D01*
X0678533Y0340372D01*
X0678607Y0340272D01*
X0678678Y0340170D01*
X0678745Y0340066D01*
X0678809Y0339959D01*
X0678870Y0339850D01*
X0678927Y0339740D01*
X0678981Y0339628D01*
X0679031Y0339514D01*
X0679078Y0339399D01*
X0679120Y0339282D01*
X0679159Y0339164D01*
X0679195Y0339044D01*
X0679226Y0338924D01*
X0679253Y0338803D01*
X0679277Y0338681D01*
X0679297Y0338558D01*
X0679313Y0338434D01*
X0679325Y0338311D01*
X0679333Y0338187D01*
X0679337Y0338062D01*
X0679337Y0337938D01*
X0679333Y0337813D01*
X0679325Y0337689D01*
X0679313Y0337566D01*
X0679297Y0337442D01*
X0679277Y0337319D01*
X0679253Y0337197D01*
X0679226Y0337076D01*
X0679195Y0336956D01*
X0679159Y0336836D01*
X0679120Y0336718D01*
X0679078Y0336601D01*
X0679031Y0336486D01*
X0678981Y0336372D01*
X0678927Y0336260D01*
X0678870Y0336150D01*
X0678809Y0336041D01*
X0678745Y0335934D01*
X0678678Y0335830D01*
X0678607Y0335728D01*
X0678533Y0335628D01*
X0678455Y0335530D01*
X0678375Y0335435D01*
X0678292Y0335343D01*
X0678206Y0335253D01*
X0678117Y0335166D01*
X0678025Y0335082D01*
X0677931Y0335001D01*
X0677834Y0334923D01*
X0677734Y0334848D01*
X0677633Y0334777D01*
X0677529Y0334708D01*
X0677423Y0334643D01*
X0677315Y0334582D01*
X0677205Y0334524D01*
X0677093Y0334469D01*
X0676980Y0334418D01*
X0676865Y0334371D01*
X0676748Y0334327D01*
X0676630Y0334287D01*
X0676511Y0334251D01*
X0676391Y0334219D01*
X0676270Y0334190D01*
X0676148Y0334165D01*
X0676026Y0334145D01*
X0675902Y0334128D01*
X0675779Y0334115D01*
X0675655Y0334106D01*
X0675530Y0334101D01*
X0675406Y0334100D01*
X0675282Y0334103D01*
X0675157Y0334110D01*
X0675033Y0334121D01*
X0674910Y0334136D01*
X0674787Y0334155D01*
X0674665Y0334177D01*
X0674543Y0334204D01*
X0674423Y0334234D01*
X0674303Y0334268D01*
X0674185Y0334307D01*
X0674067Y0334348D01*
X0673952Y0334394D01*
X0673837Y0334443D01*
X0673725Y0334496D01*
X0673614Y0334552D01*
X0673505Y0334612D01*
X0673398Y0334676D01*
X0673293Y0334742D01*
X0673190Y0334812D01*
X0673090Y0334886D01*
X0672992Y0334962D01*
X0672896Y0335041D01*
X0672803Y0335124D01*
X0672712Y0335209D01*
X0672625Y0335298D01*
X0672540Y0335389D01*
X0672458Y0335483D01*
X0672380Y0335579D01*
X0672304Y0335678D01*
X0672231Y0335779D01*
X0672162Y0335882D01*
X0672096Y0335988D01*
X0672034Y0336095D01*
X0671975Y0336205D01*
X0671919Y0336316D01*
X0671867Y0336429D01*
X0671819Y0336544D01*
X0671775Y0336660D01*
X0671734Y0336777D01*
X0671697Y0336896D01*
X0671663Y0337016D01*
X0671634Y0337136D01*
X0671608Y0337258D01*
X0671586Y0337381D01*
X0671569Y0337504D01*
X0671555Y0337627D01*
X0671545Y0337751D01*
X0671539Y0337876D01*
X0671537Y0338000D01*
X0673487Y0338000D02*
X0673489Y0338088D01*
X0673495Y0338176D01*
X0673505Y0338264D01*
X0673519Y0338351D01*
X0673537Y0338437D01*
X0673558Y0338522D01*
X0673584Y0338607D01*
X0673613Y0338690D01*
X0673646Y0338772D01*
X0673683Y0338852D01*
X0673723Y0338930D01*
X0673767Y0339007D01*
X0673814Y0339081D01*
X0673865Y0339153D01*
X0673918Y0339223D01*
X0673975Y0339291D01*
X0674035Y0339355D01*
X0674098Y0339417D01*
X0674163Y0339476D01*
X0674231Y0339532D01*
X0674302Y0339585D01*
X0674374Y0339635D01*
X0674449Y0339681D01*
X0674526Y0339724D01*
X0674605Y0339764D01*
X0674686Y0339799D01*
X0674768Y0339832D01*
X0674851Y0339860D01*
X0674936Y0339885D01*
X0675022Y0339905D01*
X0675108Y0339922D01*
X0675195Y0339935D01*
X0675283Y0339944D01*
X0675371Y0339949D01*
X0675459Y0339950D01*
X0675547Y0339947D01*
X0675635Y0339940D01*
X0675722Y0339929D01*
X0675809Y0339914D01*
X0675895Y0339895D01*
X0675981Y0339873D01*
X0676065Y0339846D01*
X0676147Y0339816D01*
X0676229Y0339782D01*
X0676309Y0339744D01*
X0676386Y0339703D01*
X0676462Y0339659D01*
X0676536Y0339611D01*
X0676608Y0339559D01*
X0676677Y0339505D01*
X0676744Y0339447D01*
X0676808Y0339387D01*
X0676869Y0339323D01*
X0676928Y0339257D01*
X0676983Y0339189D01*
X0677035Y0339117D01*
X0677084Y0339044D01*
X0677129Y0338969D01*
X0677171Y0338891D01*
X0677210Y0338812D01*
X0677245Y0338731D01*
X0677276Y0338648D01*
X0677303Y0338565D01*
X0677327Y0338480D01*
X0677347Y0338394D01*
X0677363Y0338307D01*
X0677375Y0338220D01*
X0677383Y0338132D01*
X0677387Y0338044D01*
X0677387Y0337956D01*
X0677383Y0337868D01*
X0677375Y0337780D01*
X0677363Y0337693D01*
X0677347Y0337606D01*
X0677327Y0337520D01*
X0677303Y0337435D01*
X0677276Y0337352D01*
X0677245Y0337269D01*
X0677210Y0337188D01*
X0677171Y0337109D01*
X0677129Y0337031D01*
X0677084Y0336956D01*
X0677035Y0336883D01*
X0676983Y0336811D01*
X0676928Y0336743D01*
X0676869Y0336677D01*
X0676808Y0336613D01*
X0676744Y0336553D01*
X0676677Y0336495D01*
X0676608Y0336441D01*
X0676536Y0336389D01*
X0676462Y0336341D01*
X0676386Y0336297D01*
X0676309Y0336256D01*
X0676229Y0336218D01*
X0676147Y0336184D01*
X0676065Y0336154D01*
X0675981Y0336127D01*
X0675895Y0336105D01*
X0675809Y0336086D01*
X0675722Y0336071D01*
X0675635Y0336060D01*
X0675547Y0336053D01*
X0675459Y0336050D01*
X0675371Y0336051D01*
X0675283Y0336056D01*
X0675195Y0336065D01*
X0675108Y0336078D01*
X0675022Y0336095D01*
X0674936Y0336115D01*
X0674851Y0336140D01*
X0674768Y0336168D01*
X0674686Y0336201D01*
X0674605Y0336236D01*
X0674526Y0336276D01*
X0674449Y0336319D01*
X0674374Y0336365D01*
X0674302Y0336415D01*
X0674231Y0336468D01*
X0674163Y0336524D01*
X0674098Y0336583D01*
X0674035Y0336645D01*
X0673975Y0336709D01*
X0673918Y0336777D01*
X0673865Y0336847D01*
X0673814Y0336919D01*
X0673767Y0336993D01*
X0673723Y0337070D01*
X0673683Y0337148D01*
X0673646Y0337228D01*
X0673613Y0337310D01*
X0673584Y0337393D01*
X0673558Y0337478D01*
X0673537Y0337563D01*
X0673519Y0337649D01*
X0673505Y0337736D01*
X0673495Y0337824D01*
X0673489Y0337912D01*
X0673487Y0338000D01*
X0256937Y0339250D02*
X0256939Y0339374D01*
X0256945Y0339499D01*
X0256955Y0339623D01*
X0256969Y0339746D01*
X0256986Y0339869D01*
X0257008Y0339992D01*
X0257034Y0340114D01*
X0257063Y0340234D01*
X0257097Y0340354D01*
X0257134Y0340473D01*
X0257175Y0340590D01*
X0257219Y0340706D01*
X0257267Y0340821D01*
X0257319Y0340934D01*
X0257375Y0341045D01*
X0257434Y0341155D01*
X0257496Y0341262D01*
X0257562Y0341368D01*
X0257631Y0341471D01*
X0257704Y0341572D01*
X0257780Y0341671D01*
X0257858Y0341767D01*
X0257940Y0341861D01*
X0258025Y0341952D01*
X0258112Y0342041D01*
X0258203Y0342126D01*
X0258296Y0342209D01*
X0258392Y0342288D01*
X0258490Y0342364D01*
X0258590Y0342438D01*
X0258693Y0342508D01*
X0258798Y0342574D01*
X0258905Y0342638D01*
X0259014Y0342698D01*
X0259125Y0342754D01*
X0259237Y0342807D01*
X0259352Y0342856D01*
X0259467Y0342902D01*
X0259585Y0342943D01*
X0259703Y0342982D01*
X0259823Y0343016D01*
X0259943Y0343046D01*
X0260065Y0343073D01*
X0260187Y0343095D01*
X0260310Y0343114D01*
X0260433Y0343129D01*
X0260557Y0343140D01*
X0260682Y0343147D01*
X0260806Y0343150D01*
X0260930Y0343149D01*
X0261055Y0343144D01*
X0261179Y0343135D01*
X0261302Y0343122D01*
X0261426Y0343105D01*
X0261548Y0343085D01*
X0261670Y0343060D01*
X0261791Y0343031D01*
X0261911Y0342999D01*
X0262030Y0342963D01*
X0262148Y0342923D01*
X0262265Y0342879D01*
X0262380Y0342832D01*
X0262493Y0342781D01*
X0262605Y0342726D01*
X0262715Y0342668D01*
X0262823Y0342607D01*
X0262929Y0342542D01*
X0263033Y0342473D01*
X0263134Y0342402D01*
X0263234Y0342327D01*
X0263331Y0342249D01*
X0263425Y0342168D01*
X0263517Y0342084D01*
X0263606Y0341997D01*
X0263692Y0341907D01*
X0263775Y0341815D01*
X0263855Y0341720D01*
X0263933Y0341622D01*
X0264007Y0341522D01*
X0264078Y0341420D01*
X0264145Y0341316D01*
X0264209Y0341209D01*
X0264270Y0341100D01*
X0264327Y0340990D01*
X0264381Y0340878D01*
X0264431Y0340764D01*
X0264478Y0340649D01*
X0264520Y0340532D01*
X0264559Y0340414D01*
X0264595Y0340294D01*
X0264626Y0340174D01*
X0264653Y0340053D01*
X0264677Y0339931D01*
X0264697Y0339808D01*
X0264713Y0339684D01*
X0264725Y0339561D01*
X0264733Y0339437D01*
X0264737Y0339312D01*
X0264737Y0339188D01*
X0264733Y0339063D01*
X0264725Y0338939D01*
X0264713Y0338816D01*
X0264697Y0338692D01*
X0264677Y0338569D01*
X0264653Y0338447D01*
X0264626Y0338326D01*
X0264595Y0338206D01*
X0264559Y0338086D01*
X0264520Y0337968D01*
X0264478Y0337851D01*
X0264431Y0337736D01*
X0264381Y0337622D01*
X0264327Y0337510D01*
X0264270Y0337400D01*
X0264209Y0337291D01*
X0264145Y0337184D01*
X0264078Y0337080D01*
X0264007Y0336978D01*
X0263933Y0336878D01*
X0263855Y0336780D01*
X0263775Y0336685D01*
X0263692Y0336593D01*
X0263606Y0336503D01*
X0263517Y0336416D01*
X0263425Y0336332D01*
X0263331Y0336251D01*
X0263234Y0336173D01*
X0263134Y0336098D01*
X0263033Y0336027D01*
X0262929Y0335958D01*
X0262823Y0335893D01*
X0262715Y0335832D01*
X0262605Y0335774D01*
X0262493Y0335719D01*
X0262380Y0335668D01*
X0262265Y0335621D01*
X0262148Y0335577D01*
X0262030Y0335537D01*
X0261911Y0335501D01*
X0261791Y0335469D01*
X0261670Y0335440D01*
X0261548Y0335415D01*
X0261426Y0335395D01*
X0261302Y0335378D01*
X0261179Y0335365D01*
X0261055Y0335356D01*
X0260930Y0335351D01*
X0260806Y0335350D01*
X0260682Y0335353D01*
X0260557Y0335360D01*
X0260433Y0335371D01*
X0260310Y0335386D01*
X0260187Y0335405D01*
X0260065Y0335427D01*
X0259943Y0335454D01*
X0259823Y0335484D01*
X0259703Y0335518D01*
X0259585Y0335557D01*
X0259467Y0335598D01*
X0259352Y0335644D01*
X0259237Y0335693D01*
X0259125Y0335746D01*
X0259014Y0335802D01*
X0258905Y0335862D01*
X0258798Y0335926D01*
X0258693Y0335992D01*
X0258590Y0336062D01*
X0258490Y0336136D01*
X0258392Y0336212D01*
X0258296Y0336291D01*
X0258203Y0336374D01*
X0258112Y0336459D01*
X0258025Y0336548D01*
X0257940Y0336639D01*
X0257858Y0336733D01*
X0257780Y0336829D01*
X0257704Y0336928D01*
X0257631Y0337029D01*
X0257562Y0337132D01*
X0257496Y0337238D01*
X0257434Y0337345D01*
X0257375Y0337455D01*
X0257319Y0337566D01*
X0257267Y0337679D01*
X0257219Y0337794D01*
X0257175Y0337910D01*
X0257134Y0338027D01*
X0257097Y0338146D01*
X0257063Y0338266D01*
X0257034Y0338386D01*
X0257008Y0338508D01*
X0256986Y0338631D01*
X0256969Y0338754D01*
X0256955Y0338877D01*
X0256945Y0339001D01*
X0256939Y0339126D01*
X0256937Y0339250D01*
X0256837Y0335250D02*
X0264837Y0343250D01*
X0092122Y0285486D02*
X0092122Y0281486D01*
X0092122Y0285486D02*
X0088122Y0289486D01*
X0096122Y0289486D01*
X0092122Y0285486D01*
X0052752Y0285486D02*
X0052752Y0281486D01*
X0052752Y0285486D02*
X0048752Y0289486D01*
X0056752Y0289486D01*
X0052752Y0285486D01*
X0020187Y0337000D02*
X0012187Y0337000D01*
X0016187Y0333000D02*
X0016187Y0341000D01*
X0012287Y0337000D02*
X0012289Y0337124D01*
X0012295Y0337249D01*
X0012305Y0337373D01*
X0012319Y0337496D01*
X0012336Y0337619D01*
X0012358Y0337742D01*
X0012384Y0337864D01*
X0012413Y0337984D01*
X0012447Y0338104D01*
X0012484Y0338223D01*
X0012525Y0338340D01*
X0012569Y0338456D01*
X0012617Y0338571D01*
X0012669Y0338684D01*
X0012725Y0338795D01*
X0012784Y0338905D01*
X0012846Y0339012D01*
X0012912Y0339118D01*
X0012981Y0339221D01*
X0013054Y0339322D01*
X0013130Y0339421D01*
X0013208Y0339517D01*
X0013290Y0339611D01*
X0013375Y0339702D01*
X0013462Y0339791D01*
X0013553Y0339876D01*
X0013646Y0339959D01*
X0013742Y0340038D01*
X0013840Y0340114D01*
X0013940Y0340188D01*
X0014043Y0340258D01*
X0014148Y0340324D01*
X0014255Y0340388D01*
X0014364Y0340448D01*
X0014475Y0340504D01*
X0014587Y0340557D01*
X0014702Y0340606D01*
X0014817Y0340652D01*
X0014935Y0340693D01*
X0015053Y0340732D01*
X0015173Y0340766D01*
X0015293Y0340796D01*
X0015415Y0340823D01*
X0015537Y0340845D01*
X0015660Y0340864D01*
X0015783Y0340879D01*
X0015907Y0340890D01*
X0016032Y0340897D01*
X0016156Y0340900D01*
X0016280Y0340899D01*
X0016405Y0340894D01*
X0016529Y0340885D01*
X0016652Y0340872D01*
X0016776Y0340855D01*
X0016898Y0340835D01*
X0017020Y0340810D01*
X0017141Y0340781D01*
X0017261Y0340749D01*
X0017380Y0340713D01*
X0017498Y0340673D01*
X0017615Y0340629D01*
X0017730Y0340582D01*
X0017843Y0340531D01*
X0017955Y0340476D01*
X0018065Y0340418D01*
X0018173Y0340357D01*
X0018279Y0340292D01*
X0018383Y0340223D01*
X0018484Y0340152D01*
X0018584Y0340077D01*
X0018681Y0339999D01*
X0018775Y0339918D01*
X0018867Y0339834D01*
X0018956Y0339747D01*
X0019042Y0339657D01*
X0019125Y0339565D01*
X0019205Y0339470D01*
X0019283Y0339372D01*
X0019357Y0339272D01*
X0019428Y0339170D01*
X0019495Y0339066D01*
X0019559Y0338959D01*
X0019620Y0338850D01*
X0019677Y0338740D01*
X0019731Y0338628D01*
X0019781Y0338514D01*
X0019828Y0338399D01*
X0019870Y0338282D01*
X0019909Y0338164D01*
X0019945Y0338044D01*
X0019976Y0337924D01*
X0020003Y0337803D01*
X0020027Y0337681D01*
X0020047Y0337558D01*
X0020063Y0337434D01*
X0020075Y0337311D01*
X0020083Y0337187D01*
X0020087Y0337062D01*
X0020087Y0336938D01*
X0020083Y0336813D01*
X0020075Y0336689D01*
X0020063Y0336566D01*
X0020047Y0336442D01*
X0020027Y0336319D01*
X0020003Y0336197D01*
X0019976Y0336076D01*
X0019945Y0335956D01*
X0019909Y0335836D01*
X0019870Y0335718D01*
X0019828Y0335601D01*
X0019781Y0335486D01*
X0019731Y0335372D01*
X0019677Y0335260D01*
X0019620Y0335150D01*
X0019559Y0335041D01*
X0019495Y0334934D01*
X0019428Y0334830D01*
X0019357Y0334728D01*
X0019283Y0334628D01*
X0019205Y0334530D01*
X0019125Y0334435D01*
X0019042Y0334343D01*
X0018956Y0334253D01*
X0018867Y0334166D01*
X0018775Y0334082D01*
X0018681Y0334001D01*
X0018584Y0333923D01*
X0018484Y0333848D01*
X0018383Y0333777D01*
X0018279Y0333708D01*
X0018173Y0333643D01*
X0018065Y0333582D01*
X0017955Y0333524D01*
X0017843Y0333469D01*
X0017730Y0333418D01*
X0017615Y0333371D01*
X0017498Y0333327D01*
X0017380Y0333287D01*
X0017261Y0333251D01*
X0017141Y0333219D01*
X0017020Y0333190D01*
X0016898Y0333165D01*
X0016776Y0333145D01*
X0016652Y0333128D01*
X0016529Y0333115D01*
X0016405Y0333106D01*
X0016280Y0333101D01*
X0016156Y0333100D01*
X0016032Y0333103D01*
X0015907Y0333110D01*
X0015783Y0333121D01*
X0015660Y0333136D01*
X0015537Y0333155D01*
X0015415Y0333177D01*
X0015293Y0333204D01*
X0015173Y0333234D01*
X0015053Y0333268D01*
X0014935Y0333307D01*
X0014817Y0333348D01*
X0014702Y0333394D01*
X0014587Y0333443D01*
X0014475Y0333496D01*
X0014364Y0333552D01*
X0014255Y0333612D01*
X0014148Y0333676D01*
X0014043Y0333742D01*
X0013940Y0333812D01*
X0013840Y0333886D01*
X0013742Y0333962D01*
X0013646Y0334041D01*
X0013553Y0334124D01*
X0013462Y0334209D01*
X0013375Y0334298D01*
X0013290Y0334389D01*
X0013208Y0334483D01*
X0013130Y0334579D01*
X0013054Y0334678D01*
X0012981Y0334779D01*
X0012912Y0334882D01*
X0012846Y0334988D01*
X0012784Y0335095D01*
X0012725Y0335205D01*
X0012669Y0335316D01*
X0012617Y0335429D01*
X0012569Y0335544D01*
X0012525Y0335660D01*
X0012484Y0335777D01*
X0012447Y0335896D01*
X0012413Y0336016D01*
X0012384Y0336136D01*
X0012358Y0336258D01*
X0012336Y0336381D01*
X0012319Y0336504D01*
X0012305Y0336627D01*
X0012295Y0336751D01*
X0012289Y0336876D01*
X0012287Y0337000D01*
X0014237Y0337000D02*
X0014239Y0337088D01*
X0014245Y0337176D01*
X0014255Y0337264D01*
X0014269Y0337351D01*
X0014287Y0337437D01*
X0014308Y0337522D01*
X0014334Y0337607D01*
X0014363Y0337690D01*
X0014396Y0337772D01*
X0014433Y0337852D01*
X0014473Y0337930D01*
X0014517Y0338007D01*
X0014564Y0338081D01*
X0014615Y0338153D01*
X0014668Y0338223D01*
X0014725Y0338291D01*
X0014785Y0338355D01*
X0014848Y0338417D01*
X0014913Y0338476D01*
X0014981Y0338532D01*
X0015052Y0338585D01*
X0015124Y0338635D01*
X0015199Y0338681D01*
X0015276Y0338724D01*
X0015355Y0338764D01*
X0015436Y0338799D01*
X0015518Y0338832D01*
X0015601Y0338860D01*
X0015686Y0338885D01*
X0015772Y0338905D01*
X0015858Y0338922D01*
X0015945Y0338935D01*
X0016033Y0338944D01*
X0016121Y0338949D01*
X0016209Y0338950D01*
X0016297Y0338947D01*
X0016385Y0338940D01*
X0016472Y0338929D01*
X0016559Y0338914D01*
X0016645Y0338895D01*
X0016731Y0338873D01*
X0016815Y0338846D01*
X0016897Y0338816D01*
X0016979Y0338782D01*
X0017059Y0338744D01*
X0017136Y0338703D01*
X0017212Y0338659D01*
X0017286Y0338611D01*
X0017358Y0338559D01*
X0017427Y0338505D01*
X0017494Y0338447D01*
X0017558Y0338387D01*
X0017619Y0338323D01*
X0017678Y0338257D01*
X0017733Y0338189D01*
X0017785Y0338117D01*
X0017834Y0338044D01*
X0017879Y0337969D01*
X0017921Y0337891D01*
X0017960Y0337812D01*
X0017995Y0337731D01*
X0018026Y0337648D01*
X0018053Y0337565D01*
X0018077Y0337480D01*
X0018097Y0337394D01*
X0018113Y0337307D01*
X0018125Y0337220D01*
X0018133Y0337132D01*
X0018137Y0337044D01*
X0018137Y0336956D01*
X0018133Y0336868D01*
X0018125Y0336780D01*
X0018113Y0336693D01*
X0018097Y0336606D01*
X0018077Y0336520D01*
X0018053Y0336435D01*
X0018026Y0336352D01*
X0017995Y0336269D01*
X0017960Y0336188D01*
X0017921Y0336109D01*
X0017879Y0336031D01*
X0017834Y0335956D01*
X0017785Y0335883D01*
X0017733Y0335811D01*
X0017678Y0335743D01*
X0017619Y0335677D01*
X0017558Y0335613D01*
X0017494Y0335553D01*
X0017427Y0335495D01*
X0017358Y0335441D01*
X0017286Y0335389D01*
X0017212Y0335341D01*
X0017136Y0335297D01*
X0017059Y0335256D01*
X0016979Y0335218D01*
X0016897Y0335184D01*
X0016815Y0335154D01*
X0016731Y0335127D01*
X0016645Y0335105D01*
X0016559Y0335086D01*
X0016472Y0335071D01*
X0016385Y0335060D01*
X0016297Y0335053D01*
X0016209Y0335050D01*
X0016121Y0335051D01*
X0016033Y0335056D01*
X0015945Y0335065D01*
X0015858Y0335078D01*
X0015772Y0335095D01*
X0015686Y0335115D01*
X0015601Y0335140D01*
X0015518Y0335168D01*
X0015436Y0335201D01*
X0015355Y0335236D01*
X0015276Y0335276D01*
X0015199Y0335319D01*
X0015124Y0335365D01*
X0015052Y0335415D01*
X0014981Y0335468D01*
X0014913Y0335524D01*
X0014848Y0335583D01*
X0014785Y0335645D01*
X0014725Y0335709D01*
X0014668Y0335777D01*
X0014615Y0335847D01*
X0014564Y0335919D01*
X0014517Y0335993D01*
X0014473Y0336070D01*
X0014433Y0336148D01*
X0014396Y0336228D01*
X0014363Y0336310D01*
X0014334Y0336393D01*
X0014308Y0336478D01*
X0014287Y0336563D01*
X0014269Y0336649D01*
X0014255Y0336736D01*
X0014245Y0336824D01*
X0014239Y0336912D01*
X0014237Y0337000D01*
X0256937Y0216250D02*
X0256939Y0216374D01*
X0256945Y0216499D01*
X0256955Y0216623D01*
X0256969Y0216746D01*
X0256986Y0216869D01*
X0257008Y0216992D01*
X0257034Y0217114D01*
X0257063Y0217234D01*
X0257097Y0217354D01*
X0257134Y0217473D01*
X0257175Y0217590D01*
X0257219Y0217706D01*
X0257267Y0217821D01*
X0257319Y0217934D01*
X0257375Y0218045D01*
X0257434Y0218155D01*
X0257496Y0218262D01*
X0257562Y0218368D01*
X0257631Y0218471D01*
X0257704Y0218572D01*
X0257780Y0218671D01*
X0257858Y0218767D01*
X0257940Y0218861D01*
X0258025Y0218952D01*
X0258112Y0219041D01*
X0258203Y0219126D01*
X0258296Y0219209D01*
X0258392Y0219288D01*
X0258490Y0219364D01*
X0258590Y0219438D01*
X0258693Y0219508D01*
X0258798Y0219574D01*
X0258905Y0219638D01*
X0259014Y0219698D01*
X0259125Y0219754D01*
X0259237Y0219807D01*
X0259352Y0219856D01*
X0259467Y0219902D01*
X0259585Y0219943D01*
X0259703Y0219982D01*
X0259823Y0220016D01*
X0259943Y0220046D01*
X0260065Y0220073D01*
X0260187Y0220095D01*
X0260310Y0220114D01*
X0260433Y0220129D01*
X0260557Y0220140D01*
X0260682Y0220147D01*
X0260806Y0220150D01*
X0260930Y0220149D01*
X0261055Y0220144D01*
X0261179Y0220135D01*
X0261302Y0220122D01*
X0261426Y0220105D01*
X0261548Y0220085D01*
X0261670Y0220060D01*
X0261791Y0220031D01*
X0261911Y0219999D01*
X0262030Y0219963D01*
X0262148Y0219923D01*
X0262265Y0219879D01*
X0262380Y0219832D01*
X0262493Y0219781D01*
X0262605Y0219726D01*
X0262715Y0219668D01*
X0262823Y0219607D01*
X0262929Y0219542D01*
X0263033Y0219473D01*
X0263134Y0219402D01*
X0263234Y0219327D01*
X0263331Y0219249D01*
X0263425Y0219168D01*
X0263517Y0219084D01*
X0263606Y0218997D01*
X0263692Y0218907D01*
X0263775Y0218815D01*
X0263855Y0218720D01*
X0263933Y0218622D01*
X0264007Y0218522D01*
X0264078Y0218420D01*
X0264145Y0218316D01*
X0264209Y0218209D01*
X0264270Y0218100D01*
X0264327Y0217990D01*
X0264381Y0217878D01*
X0264431Y0217764D01*
X0264478Y0217649D01*
X0264520Y0217532D01*
X0264559Y0217414D01*
X0264595Y0217294D01*
X0264626Y0217174D01*
X0264653Y0217053D01*
X0264677Y0216931D01*
X0264697Y0216808D01*
X0264713Y0216684D01*
X0264725Y0216561D01*
X0264733Y0216437D01*
X0264737Y0216312D01*
X0264737Y0216188D01*
X0264733Y0216063D01*
X0264725Y0215939D01*
X0264713Y0215816D01*
X0264697Y0215692D01*
X0264677Y0215569D01*
X0264653Y0215447D01*
X0264626Y0215326D01*
X0264595Y0215206D01*
X0264559Y0215086D01*
X0264520Y0214968D01*
X0264478Y0214851D01*
X0264431Y0214736D01*
X0264381Y0214622D01*
X0264327Y0214510D01*
X0264270Y0214400D01*
X0264209Y0214291D01*
X0264145Y0214184D01*
X0264078Y0214080D01*
X0264007Y0213978D01*
X0263933Y0213878D01*
X0263855Y0213780D01*
X0263775Y0213685D01*
X0263692Y0213593D01*
X0263606Y0213503D01*
X0263517Y0213416D01*
X0263425Y0213332D01*
X0263331Y0213251D01*
X0263234Y0213173D01*
X0263134Y0213098D01*
X0263033Y0213027D01*
X0262929Y0212958D01*
X0262823Y0212893D01*
X0262715Y0212832D01*
X0262605Y0212774D01*
X0262493Y0212719D01*
X0262380Y0212668D01*
X0262265Y0212621D01*
X0262148Y0212577D01*
X0262030Y0212537D01*
X0261911Y0212501D01*
X0261791Y0212469D01*
X0261670Y0212440D01*
X0261548Y0212415D01*
X0261426Y0212395D01*
X0261302Y0212378D01*
X0261179Y0212365D01*
X0261055Y0212356D01*
X0260930Y0212351D01*
X0260806Y0212350D01*
X0260682Y0212353D01*
X0260557Y0212360D01*
X0260433Y0212371D01*
X0260310Y0212386D01*
X0260187Y0212405D01*
X0260065Y0212427D01*
X0259943Y0212454D01*
X0259823Y0212484D01*
X0259703Y0212518D01*
X0259585Y0212557D01*
X0259467Y0212598D01*
X0259352Y0212644D01*
X0259237Y0212693D01*
X0259125Y0212746D01*
X0259014Y0212802D01*
X0258905Y0212862D01*
X0258798Y0212926D01*
X0258693Y0212992D01*
X0258590Y0213062D01*
X0258490Y0213136D01*
X0258392Y0213212D01*
X0258296Y0213291D01*
X0258203Y0213374D01*
X0258112Y0213459D01*
X0258025Y0213548D01*
X0257940Y0213639D01*
X0257858Y0213733D01*
X0257780Y0213829D01*
X0257704Y0213928D01*
X0257631Y0214029D01*
X0257562Y0214132D01*
X0257496Y0214238D01*
X0257434Y0214345D01*
X0257375Y0214455D01*
X0257319Y0214566D01*
X0257267Y0214679D01*
X0257219Y0214794D01*
X0257175Y0214910D01*
X0257134Y0215027D01*
X0257097Y0215146D01*
X0257063Y0215266D01*
X0257034Y0215386D01*
X0257008Y0215508D01*
X0256986Y0215631D01*
X0256969Y0215754D01*
X0256955Y0215877D01*
X0256945Y0216001D01*
X0256939Y0216126D01*
X0256937Y0216250D01*
X0256837Y0212250D02*
X0264837Y0220250D01*
X0024187Y0023500D02*
X0016187Y0023500D01*
X0020187Y0019500D02*
X0020187Y0027500D01*
X0016287Y0023500D02*
X0016289Y0023624D01*
X0016295Y0023749D01*
X0016305Y0023873D01*
X0016319Y0023996D01*
X0016336Y0024119D01*
X0016358Y0024242D01*
X0016384Y0024364D01*
X0016413Y0024484D01*
X0016447Y0024604D01*
X0016484Y0024723D01*
X0016525Y0024840D01*
X0016569Y0024956D01*
X0016617Y0025071D01*
X0016669Y0025184D01*
X0016725Y0025295D01*
X0016784Y0025405D01*
X0016846Y0025512D01*
X0016912Y0025618D01*
X0016981Y0025721D01*
X0017054Y0025822D01*
X0017130Y0025921D01*
X0017208Y0026017D01*
X0017290Y0026111D01*
X0017375Y0026202D01*
X0017462Y0026291D01*
X0017553Y0026376D01*
X0017646Y0026459D01*
X0017742Y0026538D01*
X0017840Y0026614D01*
X0017940Y0026688D01*
X0018043Y0026758D01*
X0018148Y0026824D01*
X0018255Y0026888D01*
X0018364Y0026948D01*
X0018475Y0027004D01*
X0018587Y0027057D01*
X0018702Y0027106D01*
X0018817Y0027152D01*
X0018935Y0027193D01*
X0019053Y0027232D01*
X0019173Y0027266D01*
X0019293Y0027296D01*
X0019415Y0027323D01*
X0019537Y0027345D01*
X0019660Y0027364D01*
X0019783Y0027379D01*
X0019907Y0027390D01*
X0020032Y0027397D01*
X0020156Y0027400D01*
X0020280Y0027399D01*
X0020405Y0027394D01*
X0020529Y0027385D01*
X0020652Y0027372D01*
X0020776Y0027355D01*
X0020898Y0027335D01*
X0021020Y0027310D01*
X0021141Y0027281D01*
X0021261Y0027249D01*
X0021380Y0027213D01*
X0021498Y0027173D01*
X0021615Y0027129D01*
X0021730Y0027082D01*
X0021843Y0027031D01*
X0021955Y0026976D01*
X0022065Y0026918D01*
X0022173Y0026857D01*
X0022279Y0026792D01*
X0022383Y0026723D01*
X0022484Y0026652D01*
X0022584Y0026577D01*
X0022681Y0026499D01*
X0022775Y0026418D01*
X0022867Y0026334D01*
X0022956Y0026247D01*
X0023042Y0026157D01*
X0023125Y0026065D01*
X0023205Y0025970D01*
X0023283Y0025872D01*
X0023357Y0025772D01*
X0023428Y0025670D01*
X0023495Y0025566D01*
X0023559Y0025459D01*
X0023620Y0025350D01*
X0023677Y0025240D01*
X0023731Y0025128D01*
X0023781Y0025014D01*
X0023828Y0024899D01*
X0023870Y0024782D01*
X0023909Y0024664D01*
X0023945Y0024544D01*
X0023976Y0024424D01*
X0024003Y0024303D01*
X0024027Y0024181D01*
X0024047Y0024058D01*
X0024063Y0023934D01*
X0024075Y0023811D01*
X0024083Y0023687D01*
X0024087Y0023562D01*
X0024087Y0023438D01*
X0024083Y0023313D01*
X0024075Y0023189D01*
X0024063Y0023066D01*
X0024047Y0022942D01*
X0024027Y0022819D01*
X0024003Y0022697D01*
X0023976Y0022576D01*
X0023945Y0022456D01*
X0023909Y0022336D01*
X0023870Y0022218D01*
X0023828Y0022101D01*
X0023781Y0021986D01*
X0023731Y0021872D01*
X0023677Y0021760D01*
X0023620Y0021650D01*
X0023559Y0021541D01*
X0023495Y0021434D01*
X0023428Y0021330D01*
X0023357Y0021228D01*
X0023283Y0021128D01*
X0023205Y0021030D01*
X0023125Y0020935D01*
X0023042Y0020843D01*
X0022956Y0020753D01*
X0022867Y0020666D01*
X0022775Y0020582D01*
X0022681Y0020501D01*
X0022584Y0020423D01*
X0022484Y0020348D01*
X0022383Y0020277D01*
X0022279Y0020208D01*
X0022173Y0020143D01*
X0022065Y0020082D01*
X0021955Y0020024D01*
X0021843Y0019969D01*
X0021730Y0019918D01*
X0021615Y0019871D01*
X0021498Y0019827D01*
X0021380Y0019787D01*
X0021261Y0019751D01*
X0021141Y0019719D01*
X0021020Y0019690D01*
X0020898Y0019665D01*
X0020776Y0019645D01*
X0020652Y0019628D01*
X0020529Y0019615D01*
X0020405Y0019606D01*
X0020280Y0019601D01*
X0020156Y0019600D01*
X0020032Y0019603D01*
X0019907Y0019610D01*
X0019783Y0019621D01*
X0019660Y0019636D01*
X0019537Y0019655D01*
X0019415Y0019677D01*
X0019293Y0019704D01*
X0019173Y0019734D01*
X0019053Y0019768D01*
X0018935Y0019807D01*
X0018817Y0019848D01*
X0018702Y0019894D01*
X0018587Y0019943D01*
X0018475Y0019996D01*
X0018364Y0020052D01*
X0018255Y0020112D01*
X0018148Y0020176D01*
X0018043Y0020242D01*
X0017940Y0020312D01*
X0017840Y0020386D01*
X0017742Y0020462D01*
X0017646Y0020541D01*
X0017553Y0020624D01*
X0017462Y0020709D01*
X0017375Y0020798D01*
X0017290Y0020889D01*
X0017208Y0020983D01*
X0017130Y0021079D01*
X0017054Y0021178D01*
X0016981Y0021279D01*
X0016912Y0021382D01*
X0016846Y0021488D01*
X0016784Y0021595D01*
X0016725Y0021705D01*
X0016669Y0021816D01*
X0016617Y0021929D01*
X0016569Y0022044D01*
X0016525Y0022160D01*
X0016484Y0022277D01*
X0016447Y0022396D01*
X0016413Y0022516D01*
X0016384Y0022636D01*
X0016358Y0022758D01*
X0016336Y0022881D01*
X0016319Y0023004D01*
X0016305Y0023127D01*
X0016295Y0023251D01*
X0016289Y0023376D01*
X0016287Y0023500D01*
X0018237Y0023500D02*
X0018239Y0023588D01*
X0018245Y0023676D01*
X0018255Y0023764D01*
X0018269Y0023851D01*
X0018287Y0023937D01*
X0018308Y0024022D01*
X0018334Y0024107D01*
X0018363Y0024190D01*
X0018396Y0024272D01*
X0018433Y0024352D01*
X0018473Y0024430D01*
X0018517Y0024507D01*
X0018564Y0024581D01*
X0018615Y0024653D01*
X0018668Y0024723D01*
X0018725Y0024791D01*
X0018785Y0024855D01*
X0018848Y0024917D01*
X0018913Y0024976D01*
X0018981Y0025032D01*
X0019052Y0025085D01*
X0019124Y0025135D01*
X0019199Y0025181D01*
X0019276Y0025224D01*
X0019355Y0025264D01*
X0019436Y0025299D01*
X0019518Y0025332D01*
X0019601Y0025360D01*
X0019686Y0025385D01*
X0019772Y0025405D01*
X0019858Y0025422D01*
X0019945Y0025435D01*
X0020033Y0025444D01*
X0020121Y0025449D01*
X0020209Y0025450D01*
X0020297Y0025447D01*
X0020385Y0025440D01*
X0020472Y0025429D01*
X0020559Y0025414D01*
X0020645Y0025395D01*
X0020731Y0025373D01*
X0020815Y0025346D01*
X0020897Y0025316D01*
X0020979Y0025282D01*
X0021059Y0025244D01*
X0021136Y0025203D01*
X0021212Y0025159D01*
X0021286Y0025111D01*
X0021358Y0025059D01*
X0021427Y0025005D01*
X0021494Y0024947D01*
X0021558Y0024887D01*
X0021619Y0024823D01*
X0021678Y0024757D01*
X0021733Y0024689D01*
X0021785Y0024617D01*
X0021834Y0024544D01*
X0021879Y0024469D01*
X0021921Y0024391D01*
X0021960Y0024312D01*
X0021995Y0024231D01*
X0022026Y0024148D01*
X0022053Y0024065D01*
X0022077Y0023980D01*
X0022097Y0023894D01*
X0022113Y0023807D01*
X0022125Y0023720D01*
X0022133Y0023632D01*
X0022137Y0023544D01*
X0022137Y0023456D01*
X0022133Y0023368D01*
X0022125Y0023280D01*
X0022113Y0023193D01*
X0022097Y0023106D01*
X0022077Y0023020D01*
X0022053Y0022935D01*
X0022026Y0022852D01*
X0021995Y0022769D01*
X0021960Y0022688D01*
X0021921Y0022609D01*
X0021879Y0022531D01*
X0021834Y0022456D01*
X0021785Y0022383D01*
X0021733Y0022311D01*
X0021678Y0022243D01*
X0021619Y0022177D01*
X0021558Y0022113D01*
X0021494Y0022053D01*
X0021427Y0021995D01*
X0021358Y0021941D01*
X0021286Y0021889D01*
X0021212Y0021841D01*
X0021136Y0021797D01*
X0021059Y0021756D01*
X0020979Y0021718D01*
X0020897Y0021684D01*
X0020815Y0021654D01*
X0020731Y0021627D01*
X0020645Y0021605D01*
X0020559Y0021586D01*
X0020472Y0021571D01*
X0020385Y0021560D01*
X0020297Y0021553D01*
X0020209Y0021550D01*
X0020121Y0021551D01*
X0020033Y0021556D01*
X0019945Y0021565D01*
X0019858Y0021578D01*
X0019772Y0021595D01*
X0019686Y0021615D01*
X0019601Y0021640D01*
X0019518Y0021668D01*
X0019436Y0021701D01*
X0019355Y0021736D01*
X0019276Y0021776D01*
X0019199Y0021819D01*
X0019124Y0021865D01*
X0019052Y0021915D01*
X0018981Y0021968D01*
X0018913Y0022024D01*
X0018848Y0022083D01*
X0018785Y0022145D01*
X0018725Y0022209D01*
X0018668Y0022277D01*
X0018615Y0022347D01*
X0018564Y0022419D01*
X0018517Y0022493D01*
X0018473Y0022570D01*
X0018433Y0022648D01*
X0018396Y0022728D01*
X0018363Y0022810D01*
X0018334Y0022893D01*
X0018308Y0022978D01*
X0018287Y0023063D01*
X0018269Y0023149D01*
X0018255Y0023236D01*
X0018245Y0023324D01*
X0018239Y0023412D01*
X0018237Y0023500D01*
M02*
