%
M48
M72
T01C0.01575
T02C0.02362
T03C0.03150
T04C0.03346
T05C0.03937
T06C0.04000
T07C0.04400
T08C0.05118
T09C0.05906
T10C0.10000
T11C0.12598
%
T01
X128937Y164750
X128687Y182500
X149187Y188500
X156187Y195500
X143687Y203750
X128687Y210000
X88437Y210000
X73687Y215500
X35437Y220250
X22937Y250750
X51437Y258750
X73687Y250750
X91187Y255000
X137187Y262750
X142937Y249500
X157187Y243500
X162937Y255000
X205937Y249500
X218687Y244500
X230687Y235000
X237187Y240250
X242187Y229750
X226437Y230250
X179687Y221000
X171937Y210000
X179437Y195000
X174687Y181500
X160437Y181750
X256687Y196000
X273937Y203750
X294437Y210250
X318187Y230000
X306937Y236000
X293187Y244750
X283937Y249500
X313187Y267000
X365437Y240250
X372187Y249750
X396937Y243750
X379687Y227750
X371187Y227750
X328187Y210250
X422187Y213000
X430187Y223000
X471187Y214250
X500937Y223750
X510187Y228250
X495437Y184750
X501187Y175750
X510187Y170750
X397187Y264250
X236073Y267000
T02
X225437Y296500
X273937Y296500
X406203Y315750
X416203Y309500
X426203Y304250
X436203Y298500
X446203Y294250
X456203Y289000
X466203Y284250
X476203Y280000
X486203Y274250
X496203Y269750
X506203Y264250
X516187Y259000
X526187Y253250
X526437Y193500
X483937Y193500
X328187Y115750
X303687Y115500
X272187Y105500
X356937Y105250
T03
X118937Y181250
X108937Y181250
X98937Y181250
X88937Y181250
X78937Y181250
X78937Y191250
X88937Y191250
X98937Y191250
X108937Y191250
X118937Y191250
T04
X386203Y341750
X396203Y341750
X406203Y341750
X416203Y341750
X426203Y341750
X436203Y341750
X446203Y341750
X456203Y341750
X466203Y341750
X476203Y341750
X486203Y341750
X496203Y341750
X506203Y341750
X516203Y341750
X526203Y341750
X536203Y341750
X545937Y309250
X555937Y309250
X555937Y299250
X545937Y299250
X545937Y289250
X555937Y289250
X555937Y279250
X545937Y279250
X545937Y269250
X555937Y269250
X555937Y259250
X545937Y259250
X545937Y249250
X555937Y249250
T05
X589937Y224000
X589937Y204000
X557187Y184250
X557187Y174250
X557187Y164250
X557187Y154250
X637187Y158500
X637187Y168500
X649937Y204000
X649937Y284000
X649937Y294000
X589937Y294000
X589937Y284000
X194437Y164750
X184437Y164750
X174437Y164750
X164437Y164750
X154437Y164750
T06
X136187Y227250
X126187Y227250
X116187Y227250
X116187Y237250
X126187Y237250
X136187Y237250
X132187Y333250
X142187Y333250
X152187Y333250
X162187Y333250
X361187Y172750
X371187Y172750
X381187Y172750
X391187Y172750
X401187Y172750
X411187Y172750
X421187Y172750
X431187Y172750
X441187Y172750
X603937Y168250
X603937Y158250
X536187Y325500
X526187Y325500
X516187Y325500
T07
X340687Y331500
X340687Y255250
T08
X608604Y331652
X628604Y331652
X604520Y35098
X584520Y35098
X564520Y35098
X544520Y35098
X461020Y35348
X441020Y35348
X421020Y35348
X401020Y35348
X330020Y34098
X310020Y34098
X290020Y34098
X236854Y33402
X216854Y33402
X196854Y33402
X176854Y33402
T09
X92122Y285486
X52752Y285486
T10
X260837Y339250
X260837Y216250
X556937Y216250
X556937Y339250
T11
X20187Y23500
X16187Y337000
X673187Y20750
X675437Y338000
M30
