G75*
%MOIN*%
%OFA0B0*%
%FSLAX25Y25*%
%IPPOS*%
%LPD*%
%AMOC8*
5,1,8,0,0,1.08239X$1,22.5*
%
%ADD10C,0.00400*%
%ADD11C,0.00600*%
%ADD12C,0.00500*%
%ADD13C,0.01000*%
%ADD14C,0.00800*%
%ADD15C,0.00300*%
%ADD16C,0.00200*%
%ADD17C,0.00700*%
%ADD18R,0.01969X0.01969*%
D10*
X0050609Y0068604D02*
X0053678Y0068604D01*
X0054446Y0069371D01*
X0054446Y0070905D01*
X0053678Y0071673D01*
X0054446Y0073207D02*
X0054446Y0076277D01*
X0054446Y0074742D02*
X0049842Y0074742D01*
X0051376Y0073207D01*
X0050609Y0071673D02*
X0049842Y0070905D01*
X0049842Y0069371D01*
X0050609Y0068604D01*
X0049842Y0077811D02*
X0052144Y0077811D01*
X0051376Y0079346D01*
X0051376Y0080113D01*
X0052144Y0080881D01*
X0053678Y0080881D01*
X0054446Y0080113D01*
X0054446Y0078579D01*
X0053678Y0077811D01*
X0049842Y0077811D02*
X0049842Y0080881D01*
X0029437Y0109923D02*
X0029437Y0111457D01*
X0029437Y0110690D02*
X0024833Y0110690D01*
X0024833Y0109923D02*
X0024833Y0111457D01*
X0025600Y0112992D02*
X0028670Y0112992D01*
X0029437Y0113759D01*
X0029437Y0115294D01*
X0028670Y0116061D01*
X0029437Y0117596D02*
X0029437Y0120665D01*
X0029437Y0119131D02*
X0024833Y0119131D01*
X0026368Y0117596D01*
X0025600Y0116061D02*
X0024833Y0115294D01*
X0024833Y0113759D01*
X0025600Y0112992D01*
X0073383Y0113752D02*
X0073383Y0112217D01*
X0074150Y0111450D01*
X0077220Y0111450D01*
X0077987Y0112217D01*
X0077987Y0113752D01*
X0077220Y0114519D01*
X0077987Y0116054D02*
X0077987Y0119123D01*
X0077987Y0117589D02*
X0073383Y0117589D01*
X0074918Y0116054D01*
X0074150Y0114519D02*
X0073383Y0113752D01*
X0074150Y0120658D02*
X0073383Y0121425D01*
X0073383Y0122960D01*
X0074150Y0123727D01*
X0074918Y0123727D01*
X0075685Y0122960D01*
X0076452Y0123727D01*
X0077220Y0123727D01*
X0077987Y0122960D01*
X0077987Y0121425D01*
X0077220Y0120658D01*
X0075685Y0122192D02*
X0075685Y0122960D01*
X0062720Y0144950D02*
X0063487Y0145717D01*
X0063487Y0147252D01*
X0062720Y0148019D01*
X0063487Y0149554D02*
X0063487Y0152623D01*
X0063487Y0151089D02*
X0058883Y0151089D01*
X0060418Y0149554D01*
X0059650Y0148019D02*
X0058883Y0147252D01*
X0058883Y0145717D01*
X0059650Y0144950D01*
X0062720Y0144950D01*
X0062720Y0154158D02*
X0059650Y0157227D01*
X0062720Y0157227D01*
X0063487Y0156460D01*
X0063487Y0154925D01*
X0062720Y0154158D01*
X0059650Y0154158D01*
X0058883Y0154925D01*
X0058883Y0156460D01*
X0059650Y0157227D01*
X0062174Y0159106D02*
X0062942Y0158339D01*
X0066011Y0158339D01*
X0066778Y0159106D01*
X0066778Y0160641D01*
X0066011Y0161408D01*
X0066011Y0162943D02*
X0066778Y0163710D01*
X0066778Y0165244D01*
X0066011Y0166012D01*
X0065244Y0166012D01*
X0064476Y0165244D01*
X0064476Y0162943D01*
X0066011Y0162943D01*
X0064476Y0162943D02*
X0062942Y0164477D01*
X0062174Y0166012D01*
X0062942Y0161408D02*
X0062174Y0160641D01*
X0062174Y0159106D01*
X0149637Y0179950D02*
X0152039Y0183553D01*
X0153320Y0183553D02*
X0153320Y0181752D01*
X0154521Y0182352D01*
X0155122Y0182352D01*
X0155722Y0181752D01*
X0155722Y0180551D01*
X0155122Y0179950D01*
X0153921Y0179950D01*
X0153320Y0180551D01*
X0152039Y0179950D02*
X0149637Y0183553D01*
X0153320Y0183553D02*
X0155722Y0183553D01*
X0193633Y0184009D02*
X0194400Y0183242D01*
X0197470Y0183242D01*
X0198237Y0184009D01*
X0198237Y0185544D01*
X0197470Y0186311D01*
X0198237Y0187846D02*
X0195168Y0190915D01*
X0194400Y0190915D01*
X0193633Y0190148D01*
X0193633Y0188613D01*
X0194400Y0187846D01*
X0194400Y0186311D02*
X0193633Y0185544D01*
X0193633Y0184009D01*
X0193633Y0181707D02*
X0193633Y0180173D01*
X0193633Y0180940D02*
X0198237Y0180940D01*
X0198237Y0180173D02*
X0198237Y0181707D01*
X0198237Y0187846D02*
X0198237Y0190915D01*
X0204133Y0189589D02*
X0205668Y0188054D01*
X0206435Y0186519D02*
X0204900Y0186519D01*
X0204133Y0185752D01*
X0204133Y0183450D01*
X0208737Y0183450D01*
X0207202Y0183450D02*
X0207202Y0185752D01*
X0206435Y0186519D01*
X0207202Y0184985D02*
X0208737Y0186519D01*
X0208737Y0188054D02*
X0208737Y0191123D01*
X0208737Y0189589D02*
X0204133Y0189589D01*
X0204900Y0192658D02*
X0204133Y0193425D01*
X0204133Y0194960D01*
X0204900Y0195727D01*
X0207970Y0192658D01*
X0208737Y0193425D01*
X0208737Y0194960D01*
X0207970Y0195727D01*
X0204900Y0195727D01*
X0204900Y0192658D02*
X0207970Y0192658D01*
X0218400Y0180373D02*
X0217633Y0179606D01*
X0217633Y0178071D01*
X0218400Y0177304D01*
X0219168Y0177304D01*
X0219935Y0178071D01*
X0219935Y0180373D01*
X0221470Y0180373D02*
X0218400Y0180373D01*
X0221470Y0180373D02*
X0222237Y0179606D01*
X0222237Y0178071D01*
X0221470Y0177304D01*
X0222237Y0175769D02*
X0220702Y0174235D01*
X0220702Y0175002D02*
X0220702Y0172700D01*
X0222237Y0172700D02*
X0217633Y0172700D01*
X0217633Y0175002D01*
X0218400Y0175769D01*
X0219935Y0175769D01*
X0220702Y0175002D01*
X0231383Y0168106D02*
X0231383Y0166571D01*
X0232150Y0165804D01*
X0232150Y0164269D02*
X0233685Y0164269D01*
X0234452Y0163502D01*
X0234452Y0161200D01*
X0234452Y0162735D02*
X0235987Y0164269D01*
X0235987Y0165804D02*
X0232918Y0168873D01*
X0232150Y0168873D01*
X0231383Y0168106D01*
X0232150Y0164269D02*
X0231383Y0163502D01*
X0231383Y0161200D01*
X0235987Y0161200D01*
X0235987Y0165804D02*
X0235987Y0168873D01*
X0247383Y0156839D02*
X0251987Y0156839D01*
X0251987Y0158373D02*
X0251987Y0155304D01*
X0251987Y0153769D02*
X0250452Y0152235D01*
X0250452Y0153002D02*
X0250452Y0150700D01*
X0251987Y0150700D02*
X0247383Y0150700D01*
X0247383Y0153002D01*
X0248150Y0153769D01*
X0249685Y0153769D01*
X0250452Y0153002D01*
X0248918Y0155304D02*
X0247383Y0156839D01*
X0274383Y0151415D02*
X0274383Y0148346D01*
X0276685Y0148346D01*
X0275918Y0149881D01*
X0275918Y0150648D01*
X0276685Y0151415D01*
X0278220Y0151415D01*
X0278987Y0150648D01*
X0278987Y0149113D01*
X0278220Y0148346D01*
X0278987Y0146811D02*
X0278987Y0143742D01*
X0275918Y0146811D01*
X0275150Y0146811D01*
X0274383Y0146044D01*
X0274383Y0144509D01*
X0275150Y0143742D01*
X0275150Y0142207D02*
X0274383Y0141440D01*
X0274383Y0139906D01*
X0275150Y0139138D01*
X0278220Y0139138D01*
X0278987Y0139906D01*
X0278987Y0141440D01*
X0278220Y0142207D01*
X0277918Y0134415D02*
X0277150Y0134415D01*
X0276383Y0133648D01*
X0276383Y0132113D01*
X0277150Y0131346D01*
X0277918Y0134415D02*
X0280987Y0131346D01*
X0280987Y0134415D01*
X0280987Y0129811D02*
X0280987Y0126742D01*
X0276383Y0126742D01*
X0274883Y0123915D02*
X0275650Y0122381D01*
X0277185Y0120846D01*
X0277185Y0123148D01*
X0277952Y0123915D01*
X0278720Y0123915D01*
X0279487Y0123148D01*
X0279487Y0121613D01*
X0278720Y0120846D01*
X0277185Y0120846D01*
X0276418Y0119311D02*
X0275650Y0119311D01*
X0274883Y0118544D01*
X0274883Y0117009D01*
X0275650Y0116242D01*
X0275650Y0114707D02*
X0274883Y0113940D01*
X0274883Y0112406D01*
X0275650Y0111638D01*
X0278720Y0111638D01*
X0279487Y0112406D01*
X0279487Y0113940D01*
X0278720Y0114707D01*
X0279487Y0116242D02*
X0276418Y0119311D01*
X0279487Y0119311D02*
X0279487Y0116242D01*
X0300383Y0126742D02*
X0304987Y0126742D01*
X0304987Y0129811D01*
X0304987Y0131346D02*
X0304987Y0134415D01*
X0304987Y0132881D02*
X0300383Y0132881D01*
X0301918Y0131346D01*
X0342883Y0130925D02*
X0342883Y0132460D01*
X0343650Y0133227D01*
X0344418Y0133227D01*
X0345185Y0132460D01*
X0345952Y0133227D01*
X0346720Y0133227D01*
X0347487Y0132460D01*
X0347487Y0130925D01*
X0346720Y0130158D01*
X0347487Y0128623D02*
X0347487Y0125554D01*
X0344418Y0128623D01*
X0343650Y0128623D01*
X0342883Y0127856D01*
X0342883Y0126321D01*
X0343650Y0125554D01*
X0343650Y0124019D02*
X0342883Y0123252D01*
X0342883Y0121717D01*
X0343650Y0120950D01*
X0346720Y0120950D01*
X0347487Y0121717D01*
X0347487Y0123252D01*
X0346720Y0124019D01*
X0343650Y0130158D02*
X0342883Y0130925D01*
X0345185Y0131692D02*
X0345185Y0132460D01*
X0346470Y0136200D02*
X0347237Y0136967D01*
X0347237Y0138502D01*
X0346470Y0139269D01*
X0347237Y0140804D02*
X0344168Y0143873D01*
X0343400Y0143873D01*
X0342633Y0143106D01*
X0342633Y0141571D01*
X0343400Y0140804D01*
X0343400Y0139269D02*
X0342633Y0138502D01*
X0342633Y0136967D01*
X0343400Y0136200D01*
X0346470Y0136200D01*
X0347237Y0140804D02*
X0347237Y0143873D01*
X0344935Y0145408D02*
X0344935Y0148477D01*
X0342633Y0147710D02*
X0344935Y0145408D01*
X0347237Y0147710D02*
X0342633Y0147710D01*
X0371860Y0181950D02*
X0373394Y0181950D01*
X0372627Y0181950D02*
X0372627Y0186554D01*
X0371860Y0186554D02*
X0373394Y0186554D01*
X0374929Y0185787D02*
X0374929Y0182717D01*
X0375696Y0181950D01*
X0377231Y0181950D01*
X0377998Y0182717D01*
X0379533Y0182717D02*
X0380300Y0181950D01*
X0381835Y0181950D01*
X0382602Y0182717D01*
X0382602Y0183485D01*
X0381835Y0184252D01*
X0379533Y0184252D01*
X0379533Y0182717D01*
X0379533Y0184252D02*
X0381068Y0185787D01*
X0382602Y0186554D01*
X0377998Y0185787D02*
X0377231Y0186554D01*
X0375696Y0186554D01*
X0374929Y0185787D01*
X0354414Y0217450D02*
X0351345Y0217450D01*
X0354414Y0220519D01*
X0354414Y0221287D01*
X0353647Y0222054D01*
X0352112Y0222054D01*
X0351345Y0221287D01*
X0349810Y0221287D02*
X0349043Y0222054D01*
X0347508Y0222054D01*
X0346741Y0221287D01*
X0345206Y0221287D02*
X0344439Y0222054D01*
X0342904Y0222054D01*
X0342137Y0221287D01*
X0342137Y0218217D01*
X0342904Y0217450D01*
X0344439Y0217450D01*
X0345206Y0218217D01*
X0346741Y0217450D02*
X0349810Y0220519D01*
X0349810Y0221287D01*
X0349810Y0217450D02*
X0346741Y0217450D01*
X0346189Y0231200D02*
X0346956Y0231967D01*
X0346189Y0231200D02*
X0344654Y0231200D01*
X0343887Y0231967D01*
X0343887Y0235037D01*
X0344654Y0235804D01*
X0346189Y0235804D01*
X0346956Y0235037D01*
X0348491Y0235037D02*
X0349258Y0235804D01*
X0350793Y0235804D01*
X0351560Y0235037D01*
X0351560Y0234269D01*
X0348491Y0231200D01*
X0351560Y0231200D01*
X0353095Y0231200D02*
X0356164Y0231200D01*
X0354629Y0231200D02*
X0354629Y0235804D01*
X0353095Y0234269D01*
X0409137Y0233467D02*
X0409904Y0232700D01*
X0411439Y0232700D01*
X0412206Y0233467D01*
X0413741Y0233467D02*
X0414508Y0232700D01*
X0416043Y0232700D01*
X0416810Y0233467D01*
X0416810Y0235002D01*
X0416043Y0235769D01*
X0415276Y0235769D01*
X0413741Y0235002D01*
X0413741Y0237304D01*
X0416810Y0237304D01*
X0412206Y0236537D02*
X0411439Y0237304D01*
X0409904Y0237304D01*
X0409137Y0236537D01*
X0409137Y0233467D01*
X0433325Y0233787D02*
X0433325Y0230717D01*
X0434093Y0229950D01*
X0435627Y0229950D01*
X0436394Y0230717D01*
X0437929Y0229950D02*
X0440998Y0229950D01*
X0439464Y0229950D02*
X0439464Y0234554D01*
X0437929Y0233019D01*
X0436394Y0233787D02*
X0435627Y0234554D01*
X0434093Y0234554D01*
X0433325Y0233787D01*
X0442533Y0233019D02*
X0444068Y0234554D01*
X0444068Y0229950D01*
X0445602Y0229950D02*
X0442533Y0229950D01*
X0457887Y0231467D02*
X0457887Y0234537D01*
X0458654Y0235304D01*
X0460189Y0235304D01*
X0460956Y0234537D01*
X0462491Y0233769D02*
X0464026Y0235304D01*
X0464026Y0230700D01*
X0465560Y0230700D02*
X0462491Y0230700D01*
X0460956Y0231467D02*
X0460189Y0230700D01*
X0458654Y0230700D01*
X0457887Y0231467D01*
X0467095Y0230700D02*
X0470164Y0233769D01*
X0470164Y0234537D01*
X0469397Y0235304D01*
X0467862Y0235304D01*
X0467095Y0234537D01*
X0467095Y0230700D02*
X0470164Y0230700D01*
X0497610Y0209304D02*
X0499144Y0209304D01*
X0498377Y0209304D02*
X0498377Y0204700D01*
X0497610Y0204700D02*
X0499144Y0204700D01*
X0500679Y0205467D02*
X0501446Y0204700D01*
X0502981Y0204700D01*
X0503748Y0205467D01*
X0505283Y0205467D02*
X0508352Y0208537D01*
X0508352Y0209304D01*
X0505283Y0209304D01*
X0503748Y0208537D02*
X0502981Y0209304D01*
X0501446Y0209304D01*
X0500679Y0208537D01*
X0500679Y0205467D01*
X0505283Y0205467D02*
X0505283Y0204700D01*
X0453237Y0186210D02*
X0448633Y0186210D01*
X0450935Y0183908D01*
X0450935Y0186977D01*
X0453237Y0182373D02*
X0453237Y0179304D01*
X0453237Y0180839D02*
X0448633Y0180839D01*
X0450168Y0179304D01*
X0450935Y0177769D02*
X0451702Y0177002D01*
X0451702Y0174700D01*
X0451702Y0176235D02*
X0453237Y0177769D01*
X0450935Y0177769D02*
X0449400Y0177769D01*
X0448633Y0177002D01*
X0448633Y0174700D01*
X0453237Y0174700D01*
X0494887Y0142054D02*
X0496422Y0142054D01*
X0495654Y0142054D02*
X0495654Y0137450D01*
X0494887Y0137450D02*
X0496422Y0137450D01*
X0497956Y0138217D02*
X0497956Y0141287D01*
X0498724Y0142054D01*
X0500258Y0142054D01*
X0501026Y0141287D01*
X0502560Y0141287D02*
X0503328Y0142054D01*
X0504862Y0142054D01*
X0505629Y0141287D01*
X0505629Y0140519D01*
X0504862Y0139752D01*
X0505629Y0138985D01*
X0505629Y0138217D01*
X0504862Y0137450D01*
X0503328Y0137450D01*
X0502560Y0138217D01*
X0501026Y0138217D02*
X0500258Y0137450D01*
X0498724Y0137450D01*
X0497956Y0138217D01*
X0504095Y0139752D02*
X0504862Y0139752D01*
X0575387Y0151450D02*
X0575387Y0156054D01*
X0577689Y0156054D01*
X0578456Y0155287D01*
X0578456Y0153752D01*
X0577689Y0152985D01*
X0575387Y0152985D01*
X0576922Y0152985D02*
X0578456Y0151450D01*
X0579991Y0151450D02*
X0583060Y0151450D01*
X0581526Y0151450D02*
X0581526Y0156054D01*
X0579991Y0154519D01*
X0584595Y0154519D02*
X0586129Y0156054D01*
X0586129Y0151450D01*
X0584595Y0151450D02*
X0587664Y0151450D01*
X0587147Y0183450D02*
X0585612Y0183450D01*
X0584845Y0184217D01*
X0583310Y0183450D02*
X0580241Y0183450D01*
X0581776Y0183450D02*
X0581776Y0188054D01*
X0580241Y0186519D01*
X0578706Y0185752D02*
X0577939Y0184985D01*
X0575637Y0184985D01*
X0577172Y0184985D02*
X0578706Y0183450D01*
X0578706Y0185752D02*
X0578706Y0187287D01*
X0577939Y0188054D01*
X0575637Y0188054D01*
X0575637Y0183450D01*
X0584845Y0187287D02*
X0585612Y0188054D01*
X0587147Y0188054D01*
X0587914Y0187287D01*
X0587914Y0186519D01*
X0587147Y0185752D01*
X0587914Y0184985D01*
X0587914Y0184217D01*
X0587147Y0183450D01*
X0587147Y0185752D02*
X0586379Y0185752D01*
X0618133Y0210717D02*
X0618900Y0209950D01*
X0621970Y0209950D01*
X0622737Y0210717D01*
X0622737Y0212252D01*
X0621970Y0213019D01*
X0621970Y0214554D02*
X0621202Y0214554D01*
X0620435Y0215321D01*
X0620435Y0216856D01*
X0621202Y0217623D01*
X0621970Y0217623D01*
X0622737Y0216856D01*
X0622737Y0215321D01*
X0621970Y0214554D01*
X0620435Y0215321D02*
X0619668Y0214554D01*
X0618900Y0214554D01*
X0618133Y0215321D01*
X0618133Y0216856D01*
X0618900Y0217623D01*
X0619668Y0217623D01*
X0620435Y0216856D01*
X0618900Y0213019D02*
X0618133Y0212252D01*
X0618133Y0210717D01*
X0636543Y0270159D02*
X0638078Y0270159D01*
X0638845Y0270926D01*
X0640380Y0270926D02*
X0641147Y0270159D01*
X0642681Y0270159D01*
X0643449Y0270926D01*
X0643449Y0273995D01*
X0642681Y0274763D01*
X0641147Y0274763D01*
X0640380Y0273995D01*
X0640380Y0273228D01*
X0641147Y0272461D01*
X0643449Y0272461D01*
X0638845Y0273995D02*
X0638078Y0274763D01*
X0636543Y0274763D01*
X0635776Y0273995D01*
X0635776Y0270926D01*
X0636543Y0270159D01*
X0618991Y0311450D02*
X0618991Y0312217D01*
X0622060Y0315287D01*
X0622060Y0316054D01*
X0618991Y0316054D01*
X0617456Y0315287D02*
X0616689Y0316054D01*
X0615154Y0316054D01*
X0614387Y0315287D01*
X0614387Y0312217D01*
X0615154Y0311450D01*
X0616689Y0311450D01*
X0617456Y0312217D01*
X0402852Y0297787D02*
X0402852Y0297019D01*
X0402085Y0296252D01*
X0400550Y0296252D01*
X0399783Y0297019D01*
X0399783Y0297787D01*
X0400550Y0298554D01*
X0402085Y0298554D01*
X0402852Y0297787D01*
X0402085Y0296252D02*
X0402852Y0295485D01*
X0402852Y0294717D01*
X0402085Y0293950D01*
X0400550Y0293950D01*
X0399783Y0294717D01*
X0399783Y0295485D01*
X0400550Y0296252D01*
X0398248Y0297787D02*
X0397481Y0298554D01*
X0395946Y0298554D01*
X0395179Y0297787D01*
X0395179Y0294717D01*
X0395946Y0293950D01*
X0397481Y0293950D01*
X0398248Y0294717D01*
X0393644Y0293950D02*
X0392110Y0293950D01*
X0392877Y0293950D02*
X0392877Y0298554D01*
X0392110Y0298554D02*
X0393644Y0298554D01*
X0284237Y0273648D02*
X0284237Y0272113D01*
X0283470Y0271346D01*
X0283470Y0269811D02*
X0284237Y0269044D01*
X0284237Y0267509D01*
X0283470Y0266742D01*
X0280400Y0266742D01*
X0279633Y0267509D01*
X0279633Y0269044D01*
X0280400Y0269811D01*
X0279633Y0271346D02*
X0281935Y0271346D01*
X0281168Y0272881D01*
X0281168Y0273648D01*
X0281935Y0274415D01*
X0283470Y0274415D01*
X0284237Y0273648D01*
X0279633Y0274415D02*
X0279633Y0271346D01*
X0279633Y0265207D02*
X0279633Y0263673D01*
X0279633Y0264440D02*
X0284237Y0264440D01*
X0284237Y0263673D02*
X0284237Y0265207D01*
X0250237Y0289509D02*
X0250237Y0291044D01*
X0249470Y0291811D01*
X0249470Y0293346D02*
X0250237Y0294113D01*
X0250237Y0295648D01*
X0249470Y0296415D01*
X0248702Y0296415D01*
X0247935Y0295648D01*
X0247935Y0294881D01*
X0247935Y0295648D02*
X0247168Y0296415D01*
X0246400Y0296415D01*
X0245633Y0295648D01*
X0245633Y0294113D01*
X0246400Y0293346D01*
X0246400Y0291811D02*
X0245633Y0291044D01*
X0245633Y0289509D01*
X0246400Y0288742D01*
X0249470Y0288742D01*
X0250237Y0289509D01*
X0273179Y0300467D02*
X0273946Y0299700D01*
X0275481Y0299700D01*
X0276248Y0300467D01*
X0276248Y0303537D01*
X0275481Y0304304D01*
X0273946Y0304304D01*
X0273179Y0303537D01*
X0273179Y0300467D01*
X0274714Y0301235D02*
X0276248Y0299700D01*
X0277783Y0299700D02*
X0280852Y0302769D01*
X0280852Y0303537D01*
X0280085Y0304304D01*
X0278550Y0304304D01*
X0277783Y0303537D01*
X0277783Y0299700D02*
X0280852Y0299700D01*
X0231914Y0341787D02*
X0228845Y0338717D01*
X0228845Y0337950D01*
X0227310Y0337950D02*
X0224241Y0337950D01*
X0225776Y0337950D02*
X0225776Y0342554D01*
X0224241Y0341019D01*
X0222706Y0341787D02*
X0221939Y0342554D01*
X0220404Y0342554D01*
X0219637Y0341787D01*
X0219637Y0338717D01*
X0220404Y0337950D01*
X0221939Y0337950D01*
X0222706Y0338717D01*
X0228845Y0342554D02*
X0231914Y0342554D01*
X0231914Y0341787D01*
X0202414Y0341519D02*
X0201647Y0340752D01*
X0200112Y0340752D01*
X0199345Y0341519D01*
X0199345Y0342287D01*
X0200112Y0343054D01*
X0201647Y0343054D01*
X0202414Y0342287D01*
X0202414Y0341519D01*
X0201647Y0340752D02*
X0202414Y0339985D01*
X0202414Y0339217D01*
X0201647Y0338450D01*
X0200112Y0338450D01*
X0199345Y0339217D01*
X0199345Y0339985D01*
X0200112Y0340752D01*
X0197810Y0338450D02*
X0194741Y0338450D01*
X0196276Y0338450D02*
X0196276Y0343054D01*
X0194741Y0341519D01*
X0193206Y0342287D02*
X0192439Y0343054D01*
X0190904Y0343054D01*
X0190137Y0342287D01*
X0190137Y0339217D01*
X0190904Y0338450D01*
X0192439Y0338450D01*
X0193206Y0339217D01*
X0030487Y0299710D02*
X0025883Y0299710D01*
X0028185Y0297408D01*
X0028185Y0300477D01*
X0030487Y0295873D02*
X0030487Y0292804D01*
X0030487Y0294339D02*
X0025883Y0294339D01*
X0027418Y0292804D01*
X0026650Y0291269D02*
X0025883Y0290502D01*
X0025883Y0288967D01*
X0026650Y0288200D01*
X0029720Y0288200D01*
X0030487Y0288967D01*
X0030487Y0290502D01*
X0029720Y0291269D01*
X0030237Y0282477D02*
X0030237Y0279408D01*
X0027168Y0282477D01*
X0026400Y0282477D01*
X0025633Y0281710D01*
X0025633Y0280175D01*
X0026400Y0279408D01*
X0025633Y0276339D02*
X0030237Y0276339D01*
X0030237Y0277873D02*
X0030237Y0274804D01*
X0030237Y0273269D02*
X0028702Y0271735D01*
X0028702Y0272502D02*
X0028702Y0270200D01*
X0030237Y0270200D02*
X0025633Y0270200D01*
X0025633Y0272502D01*
X0026400Y0273269D01*
X0027935Y0273269D01*
X0028702Y0272502D01*
X0027168Y0274804D02*
X0025633Y0276339D01*
X0033637Y0251054D02*
X0035939Y0251054D01*
X0036706Y0250287D01*
X0036706Y0248752D01*
X0035939Y0247985D01*
X0033637Y0247985D01*
X0035172Y0247985D02*
X0036706Y0246450D01*
X0038241Y0246450D02*
X0038241Y0247217D01*
X0041310Y0250287D01*
X0041310Y0251054D01*
X0038241Y0251054D01*
X0033637Y0251054D02*
X0033637Y0246450D01*
X0058637Y0246200D02*
X0058637Y0250804D01*
X0060939Y0250804D01*
X0061706Y0250037D01*
X0061706Y0248502D01*
X0060939Y0247735D01*
X0058637Y0247735D01*
X0060172Y0247735D02*
X0061706Y0246200D01*
X0063241Y0246967D02*
X0064008Y0246200D01*
X0065543Y0246200D01*
X0066310Y0246967D01*
X0066310Y0247735D01*
X0065543Y0248502D01*
X0063241Y0248502D01*
X0063241Y0246967D01*
X0063241Y0248502D02*
X0064776Y0250037D01*
X0066310Y0250804D01*
X0083637Y0250054D02*
X0083637Y0245450D01*
X0083637Y0246985D02*
X0085939Y0246985D01*
X0086706Y0247752D01*
X0086706Y0249287D01*
X0085939Y0250054D01*
X0083637Y0250054D01*
X0085172Y0246985D02*
X0086706Y0245450D01*
X0088241Y0246217D02*
X0089008Y0245450D01*
X0090543Y0245450D01*
X0091310Y0246217D01*
X0091310Y0246985D01*
X0090543Y0247752D01*
X0089776Y0247752D01*
X0090543Y0247752D02*
X0091310Y0248519D01*
X0091310Y0249287D01*
X0090543Y0250054D01*
X0089008Y0250054D01*
X0088241Y0249287D01*
X0093637Y0223804D02*
X0095939Y0223804D01*
X0096706Y0223037D01*
X0096706Y0221502D01*
X0095939Y0220735D01*
X0093637Y0220735D01*
X0095172Y0220735D02*
X0096706Y0219200D01*
X0098241Y0221502D02*
X0101310Y0221502D01*
X0100543Y0219200D02*
X0100543Y0223804D01*
X0098241Y0221502D01*
X0093637Y0219200D02*
X0093637Y0223804D01*
X0075102Y0223804D02*
X0072033Y0223804D01*
X0072033Y0221502D01*
X0073568Y0222269D01*
X0074335Y0222269D01*
X0075102Y0221502D01*
X0075102Y0219967D01*
X0074335Y0219200D01*
X0072800Y0219200D01*
X0072033Y0219967D01*
X0070498Y0219200D02*
X0068964Y0220735D01*
X0069731Y0220735D02*
X0067429Y0220735D01*
X0067429Y0219200D02*
X0067429Y0223804D01*
X0069731Y0223804D01*
X0070498Y0223037D01*
X0070498Y0221502D01*
X0069731Y0220735D01*
X0053310Y0220769D02*
X0052543Y0220002D01*
X0051008Y0220002D01*
X0050241Y0220769D01*
X0050241Y0221537D01*
X0051008Y0222304D01*
X0052543Y0222304D01*
X0053310Y0221537D01*
X0053310Y0220769D01*
X0052543Y0220002D02*
X0053310Y0219235D01*
X0053310Y0218467D01*
X0052543Y0217700D01*
X0051008Y0217700D01*
X0050241Y0218467D01*
X0050241Y0219235D01*
X0051008Y0220002D01*
X0048706Y0220002D02*
X0048706Y0221537D01*
X0047939Y0222304D01*
X0045637Y0222304D01*
X0045637Y0217700D01*
X0045637Y0219235D02*
X0047939Y0219235D01*
X0048706Y0220002D01*
X0047172Y0219235D02*
X0048706Y0217700D01*
X0188633Y0226656D02*
X0189400Y0225888D01*
X0192470Y0225888D01*
X0193237Y0226656D01*
X0193237Y0228190D01*
X0192470Y0228957D01*
X0193237Y0230492D02*
X0193237Y0233561D01*
X0193237Y0232027D02*
X0188633Y0232027D01*
X0190168Y0230492D01*
X0189400Y0228957D02*
X0188633Y0228190D01*
X0188633Y0226656D01*
X0190935Y0235096D02*
X0190935Y0237398D01*
X0191702Y0238165D01*
X0192470Y0238165D01*
X0193237Y0237398D01*
X0193237Y0235863D01*
X0192470Y0235096D01*
X0190935Y0235096D01*
X0189400Y0236631D01*
X0188633Y0238165D01*
X0266075Y0233787D02*
X0266075Y0230717D01*
X0266843Y0229950D01*
X0268377Y0229950D01*
X0269144Y0230717D01*
X0270679Y0229950D02*
X0273748Y0229950D01*
X0272214Y0229950D02*
X0272214Y0234554D01*
X0270679Y0233019D01*
X0269144Y0233787D02*
X0268377Y0234554D01*
X0266843Y0234554D01*
X0266075Y0233787D01*
X0275283Y0233787D02*
X0276050Y0234554D01*
X0277585Y0234554D01*
X0278352Y0233787D01*
X0278352Y0230717D01*
X0277585Y0229950D01*
X0276050Y0229950D01*
X0275283Y0230717D01*
X0276050Y0232252D02*
X0278352Y0232252D01*
X0276050Y0232252D02*
X0275283Y0233019D01*
X0275283Y0233787D01*
X0276300Y0220804D02*
X0277835Y0220804D01*
X0278602Y0220037D01*
X0275533Y0216967D01*
X0276300Y0216200D01*
X0277835Y0216200D01*
X0278602Y0216967D01*
X0278602Y0220037D01*
X0276300Y0220804D02*
X0275533Y0220037D01*
X0275533Y0216967D01*
X0273998Y0216200D02*
X0270929Y0216200D01*
X0273998Y0219269D01*
X0273998Y0220037D01*
X0273231Y0220804D01*
X0271696Y0220804D01*
X0270929Y0220037D01*
X0269394Y0220037D02*
X0268627Y0220804D01*
X0267093Y0220804D01*
X0266325Y0220037D01*
X0266325Y0216967D01*
X0267093Y0216200D01*
X0268627Y0216200D01*
X0269394Y0216967D01*
X0272737Y0084415D02*
X0272737Y0081346D01*
X0272737Y0079811D02*
X0272737Y0076742D01*
X0269668Y0079811D01*
X0268900Y0079811D01*
X0268133Y0079044D01*
X0268133Y0077509D01*
X0268900Y0076742D01*
X0268900Y0075207D02*
X0268133Y0074440D01*
X0268133Y0072138D01*
X0272737Y0072138D01*
X0272737Y0074440D01*
X0271970Y0075207D01*
X0268900Y0075207D01*
X0269668Y0081346D02*
X0268133Y0082881D01*
X0272737Y0082881D01*
X0244737Y0082898D02*
X0244737Y0081363D01*
X0243970Y0080596D01*
X0240900Y0083665D01*
X0243970Y0083665D01*
X0244737Y0082898D01*
X0243970Y0080596D02*
X0240900Y0080596D01*
X0240133Y0081363D01*
X0240133Y0082898D01*
X0240900Y0083665D01*
X0240900Y0079061D02*
X0240133Y0078294D01*
X0240133Y0076759D01*
X0240900Y0075992D01*
X0240900Y0074457D02*
X0240133Y0073690D01*
X0240133Y0071388D01*
X0244737Y0071388D01*
X0244737Y0073690D01*
X0243970Y0074457D01*
X0240900Y0074457D01*
X0244737Y0075992D02*
X0241668Y0079061D01*
X0240900Y0079061D01*
X0244737Y0079061D02*
X0244737Y0075992D01*
X0215487Y0076527D02*
X0210883Y0076527D01*
X0212418Y0074992D01*
X0211650Y0073457D02*
X0210883Y0072690D01*
X0210883Y0070388D01*
X0215487Y0070388D01*
X0215487Y0072690D01*
X0214720Y0073457D01*
X0211650Y0073457D01*
X0215487Y0074992D02*
X0215487Y0078061D01*
X0214720Y0079596D02*
X0215487Y0080363D01*
X0215487Y0081898D01*
X0214720Y0082665D01*
X0211650Y0082665D01*
X0210883Y0081898D01*
X0210883Y0080363D01*
X0211650Y0079596D01*
X0212418Y0079596D01*
X0213185Y0080363D01*
X0213185Y0082665D01*
X0186987Y0081648D02*
X0186987Y0080113D01*
X0186220Y0079346D01*
X0185452Y0079346D01*
X0184685Y0080113D01*
X0184685Y0081648D01*
X0185452Y0082415D01*
X0186220Y0082415D01*
X0186987Y0081648D01*
X0184685Y0081648D02*
X0183918Y0082415D01*
X0183150Y0082415D01*
X0182383Y0081648D01*
X0182383Y0080113D01*
X0183150Y0079346D01*
X0183918Y0079346D01*
X0184685Y0080113D01*
X0186987Y0077811D02*
X0186987Y0074742D01*
X0186987Y0076277D02*
X0182383Y0076277D01*
X0183918Y0074742D01*
X0183150Y0073207D02*
X0182383Y0072440D01*
X0182383Y0070138D01*
X0186987Y0070138D01*
X0186987Y0072440D01*
X0186220Y0073207D01*
X0183150Y0073207D01*
X0188306Y0055491D02*
X0190608Y0055491D01*
X0191376Y0054724D01*
X0191376Y0051654D01*
X0190608Y0050887D01*
X0188306Y0050887D01*
X0188306Y0055491D01*
X0192910Y0054724D02*
X0193678Y0055491D01*
X0195212Y0055491D01*
X0195980Y0054724D01*
X0195980Y0053956D01*
X0192910Y0050887D01*
X0195980Y0050887D01*
X0197514Y0051654D02*
X0198281Y0050887D01*
X0199816Y0050887D01*
X0200583Y0051654D01*
X0200583Y0052422D01*
X0199816Y0053189D01*
X0199049Y0053189D01*
X0199816Y0053189D02*
X0200583Y0053956D01*
X0200583Y0054724D01*
X0199816Y0055491D01*
X0198281Y0055491D01*
X0197514Y0054724D01*
X0218556Y0055741D02*
X0218556Y0051137D01*
X0220858Y0051137D01*
X0221626Y0051904D01*
X0221626Y0054974D01*
X0220858Y0055741D01*
X0218556Y0055741D01*
X0223160Y0054974D02*
X0223928Y0055741D01*
X0225462Y0055741D01*
X0226230Y0054974D01*
X0226230Y0054206D01*
X0223160Y0051137D01*
X0226230Y0051137D01*
X0227764Y0053439D02*
X0230833Y0053439D01*
X0230066Y0055741D02*
X0227764Y0053439D01*
X0230066Y0051137D02*
X0230066Y0055741D01*
X0247056Y0055741D02*
X0247056Y0051137D01*
X0249358Y0051137D01*
X0250126Y0051904D01*
X0250126Y0054974D01*
X0249358Y0055741D01*
X0247056Y0055741D01*
X0251660Y0054974D02*
X0252428Y0055741D01*
X0253962Y0055741D01*
X0254730Y0054974D01*
X0254730Y0054206D01*
X0251660Y0051137D01*
X0254730Y0051137D01*
X0256264Y0051904D02*
X0257031Y0051137D01*
X0258566Y0051137D01*
X0259333Y0051904D01*
X0259333Y0053439D01*
X0258566Y0054206D01*
X0257799Y0054206D01*
X0256264Y0053439D01*
X0256264Y0055741D01*
X0259333Y0055741D01*
X0347133Y0057759D02*
X0347900Y0056992D01*
X0350970Y0056992D01*
X0351737Y0057759D01*
X0351737Y0059294D01*
X0350970Y0060061D01*
X0351737Y0061596D02*
X0348668Y0064665D01*
X0347900Y0064665D01*
X0347133Y0063898D01*
X0347133Y0062363D01*
X0347900Y0061596D01*
X0347900Y0060061D02*
X0347133Y0059294D01*
X0347133Y0057759D01*
X0351737Y0061596D02*
X0351737Y0064665D01*
X0372056Y0064137D02*
X0374358Y0064137D01*
X0375126Y0064904D01*
X0375126Y0067974D01*
X0374358Y0068741D01*
X0372056Y0068741D01*
X0372056Y0064137D01*
X0376660Y0064904D02*
X0376660Y0065672D01*
X0377428Y0066439D01*
X0378962Y0066439D01*
X0379730Y0065672D01*
X0379730Y0064904D01*
X0378962Y0064137D01*
X0377428Y0064137D01*
X0376660Y0064904D01*
X0377428Y0066439D02*
X0376660Y0067206D01*
X0376660Y0067974D01*
X0377428Y0068741D01*
X0378962Y0068741D01*
X0379730Y0067974D01*
X0379730Y0067206D01*
X0378962Y0066439D01*
X0380883Y0072638D02*
X0380883Y0074940D01*
X0381650Y0075707D01*
X0384720Y0075707D01*
X0385487Y0074940D01*
X0385487Y0072638D01*
X0380883Y0072638D01*
X0382418Y0077242D02*
X0380883Y0078777D01*
X0385487Y0078777D01*
X0385487Y0080311D02*
X0385487Y0077242D01*
X0384720Y0081846D02*
X0383185Y0081846D01*
X0383185Y0084148D01*
X0383952Y0084915D01*
X0384720Y0084915D01*
X0385487Y0084148D01*
X0385487Y0082613D01*
X0384720Y0081846D01*
X0383185Y0081846D02*
X0381650Y0083381D01*
X0380883Y0084915D01*
X0409306Y0068491D02*
X0411608Y0068491D01*
X0412376Y0067724D01*
X0412376Y0064654D01*
X0411608Y0063887D01*
X0409306Y0063887D01*
X0409306Y0068491D01*
X0413910Y0068491D02*
X0416980Y0068491D01*
X0416980Y0067724D01*
X0413910Y0064654D01*
X0413910Y0063887D01*
X0416633Y0071638D02*
X0416633Y0073940D01*
X0417400Y0074707D01*
X0420470Y0074707D01*
X0421237Y0073940D01*
X0421237Y0071638D01*
X0416633Y0071638D01*
X0418168Y0076242D02*
X0416633Y0077777D01*
X0421237Y0077777D01*
X0421237Y0079311D02*
X0421237Y0076242D01*
X0420470Y0080846D02*
X0421237Y0081613D01*
X0421237Y0083148D01*
X0420470Y0083915D01*
X0418935Y0083915D01*
X0418168Y0083148D01*
X0418168Y0082381D01*
X0418935Y0080846D01*
X0416633Y0080846D01*
X0416633Y0083915D01*
X0444306Y0068491D02*
X0446608Y0068491D01*
X0447376Y0067724D01*
X0447376Y0064654D01*
X0446608Y0063887D01*
X0444306Y0063887D01*
X0444306Y0068491D01*
X0448910Y0066189D02*
X0451212Y0066189D01*
X0451980Y0065422D01*
X0451980Y0064654D01*
X0451212Y0063887D01*
X0449678Y0063887D01*
X0448910Y0064654D01*
X0448910Y0066189D01*
X0450445Y0067724D01*
X0451980Y0068491D01*
X0451883Y0070638D02*
X0451883Y0072940D01*
X0452650Y0073707D01*
X0455720Y0073707D01*
X0456487Y0072940D01*
X0456487Y0070638D01*
X0451883Y0070638D01*
X0453418Y0075242D02*
X0451883Y0076777D01*
X0456487Y0076777D01*
X0456487Y0078311D02*
X0456487Y0075242D01*
X0454185Y0079846D02*
X0454185Y0082915D01*
X0451883Y0082148D02*
X0454185Y0079846D01*
X0456487Y0082148D02*
X0451883Y0082148D01*
X0480556Y0068741D02*
X0482858Y0068741D01*
X0483626Y0067974D01*
X0483626Y0064904D01*
X0482858Y0064137D01*
X0480556Y0064137D01*
X0480556Y0068741D01*
X0485160Y0068741D02*
X0485160Y0066439D01*
X0486695Y0067206D01*
X0487462Y0067206D01*
X0488230Y0066439D01*
X0488230Y0064904D01*
X0487462Y0064137D01*
X0485928Y0064137D01*
X0485160Y0064904D01*
X0485160Y0068741D02*
X0488230Y0068741D01*
X0489883Y0072638D02*
X0489883Y0074940D01*
X0490650Y0075707D01*
X0493720Y0075707D01*
X0494487Y0074940D01*
X0494487Y0072638D01*
X0489883Y0072638D01*
X0491418Y0077242D02*
X0489883Y0078777D01*
X0494487Y0078777D01*
X0494487Y0080311D02*
X0494487Y0077242D01*
X0493720Y0081846D02*
X0494487Y0082613D01*
X0494487Y0084148D01*
X0493720Y0084915D01*
X0492952Y0084915D01*
X0492185Y0084148D01*
X0492185Y0083381D01*
X0492185Y0084148D02*
X0491418Y0084915D01*
X0490650Y0084915D01*
X0489883Y0084148D01*
X0489883Y0082613D01*
X0490650Y0081846D01*
X0515806Y0068741D02*
X0518108Y0068741D01*
X0518876Y0067974D01*
X0518876Y0064904D01*
X0518108Y0064137D01*
X0515806Y0064137D01*
X0515806Y0068741D01*
X0520410Y0066439D02*
X0523480Y0066439D01*
X0522712Y0068741D02*
X0520410Y0066439D01*
X0522712Y0064137D02*
X0522712Y0068741D01*
X0523633Y0071888D02*
X0523633Y0074190D01*
X0524400Y0074957D01*
X0527470Y0074957D01*
X0528237Y0074190D01*
X0528237Y0071888D01*
X0523633Y0071888D01*
X0525168Y0076492D02*
X0523633Y0078027D01*
X0528237Y0078027D01*
X0528237Y0079561D02*
X0528237Y0076492D01*
X0528237Y0081096D02*
X0525168Y0084165D01*
X0524400Y0084165D01*
X0523633Y0083398D01*
X0523633Y0081863D01*
X0524400Y0081096D01*
X0528237Y0081096D02*
X0528237Y0084165D01*
X0552306Y0068991D02*
X0554608Y0068991D01*
X0555376Y0068224D01*
X0555376Y0065154D01*
X0554608Y0064387D01*
X0552306Y0064387D01*
X0552306Y0068991D01*
X0556910Y0068224D02*
X0557678Y0068991D01*
X0559212Y0068991D01*
X0559980Y0068224D01*
X0559980Y0067456D01*
X0559212Y0066689D01*
X0559980Y0065922D01*
X0559980Y0065154D01*
X0559212Y0064387D01*
X0557678Y0064387D01*
X0556910Y0065154D01*
X0558445Y0066689D02*
X0559212Y0066689D01*
X0559883Y0071138D02*
X0559883Y0073440D01*
X0560650Y0074207D01*
X0563720Y0074207D01*
X0564487Y0073440D01*
X0564487Y0071138D01*
X0559883Y0071138D01*
X0561418Y0075742D02*
X0559883Y0077277D01*
X0564487Y0077277D01*
X0564487Y0078811D02*
X0564487Y0075742D01*
X0564487Y0080346D02*
X0564487Y0083415D01*
X0564487Y0081881D02*
X0559883Y0081881D01*
X0561418Y0080346D01*
X0586056Y0068991D02*
X0588358Y0068991D01*
X0589126Y0068224D01*
X0589126Y0065154D01*
X0588358Y0064387D01*
X0586056Y0064387D01*
X0586056Y0068991D01*
X0590660Y0068224D02*
X0591428Y0068991D01*
X0592962Y0068991D01*
X0593730Y0068224D01*
X0593730Y0067456D01*
X0590660Y0064387D01*
X0593730Y0064387D01*
X0594383Y0070388D02*
X0594383Y0072690D01*
X0595150Y0073457D01*
X0598220Y0073457D01*
X0598987Y0072690D01*
X0598987Y0070388D01*
X0594383Y0070388D01*
X0595918Y0074992D02*
X0594383Y0076527D01*
X0598987Y0076527D01*
X0598987Y0078061D02*
X0598987Y0074992D01*
X0598220Y0079596D02*
X0595150Y0079596D01*
X0594383Y0080363D01*
X0594383Y0081898D01*
X0595150Y0082665D01*
X0598220Y0079596D01*
X0598987Y0080363D01*
X0598987Y0081898D01*
X0598220Y0082665D01*
X0595150Y0082665D01*
X0621306Y0068991D02*
X0623608Y0068991D01*
X0624376Y0068224D01*
X0624376Y0065154D01*
X0623608Y0064387D01*
X0621306Y0064387D01*
X0621306Y0068991D01*
X0625910Y0067456D02*
X0627445Y0068991D01*
X0627445Y0064387D01*
X0625910Y0064387D02*
X0628980Y0064387D01*
X0628633Y0072742D02*
X0628633Y0075044D01*
X0629400Y0075811D01*
X0632470Y0075811D01*
X0633237Y0075044D01*
X0633237Y0072742D01*
X0628633Y0072742D01*
X0629400Y0077346D02*
X0630168Y0077346D01*
X0630935Y0078113D01*
X0630935Y0080415D01*
X0629400Y0080415D02*
X0628633Y0079648D01*
X0628633Y0078113D01*
X0629400Y0077346D01*
X0629400Y0080415D02*
X0632470Y0080415D01*
X0633237Y0079648D01*
X0633237Y0078113D01*
X0632470Y0077346D01*
X0649383Y0072131D02*
X0650918Y0070596D01*
X0650150Y0069061D02*
X0649383Y0068294D01*
X0649383Y0066759D01*
X0650150Y0065992D01*
X0653220Y0065992D01*
X0653987Y0066759D01*
X0653987Y0068294D01*
X0653220Y0069061D01*
X0653987Y0070596D02*
X0653987Y0073665D01*
X0653987Y0072131D02*
X0649383Y0072131D01*
X0169583Y0054724D02*
X0168816Y0055491D01*
X0167281Y0055491D01*
X0166514Y0054724D01*
X0164980Y0054724D02*
X0164212Y0055491D01*
X0162678Y0055491D01*
X0161910Y0054724D01*
X0160376Y0054724D02*
X0159608Y0055491D01*
X0157306Y0055491D01*
X0157306Y0050887D01*
X0159608Y0050887D01*
X0160376Y0051654D01*
X0160376Y0054724D01*
X0161910Y0050887D02*
X0164980Y0053956D01*
X0164980Y0054724D01*
X0164980Y0050887D02*
X0161910Y0050887D01*
X0166514Y0050887D02*
X0169583Y0053956D01*
X0169583Y0054724D01*
X0169583Y0050887D02*
X0166514Y0050887D01*
X0144487Y0072259D02*
X0144487Y0073794D01*
X0143720Y0074561D01*
X0142185Y0076096D02*
X0142185Y0079165D01*
X0144487Y0078398D02*
X0139883Y0078398D01*
X0142185Y0076096D01*
X0140650Y0074561D02*
X0139883Y0073794D01*
X0139883Y0072259D01*
X0140650Y0071492D01*
X0143720Y0071492D01*
X0144487Y0072259D01*
D11*
X0166087Y0075150D02*
X0168287Y0075150D01*
X0166087Y0075150D02*
X0166087Y0078350D01*
X0175087Y0075150D02*
X0177287Y0075150D01*
X0177287Y0078350D01*
X0193837Y0078350D02*
X0193837Y0075150D01*
X0196037Y0075150D01*
X0202837Y0075150D02*
X0205037Y0075150D01*
X0205037Y0078350D01*
X0223087Y0078350D02*
X0223087Y0075150D01*
X0225287Y0075150D01*
X0232087Y0075150D02*
X0234287Y0075150D01*
X0234287Y0078350D01*
X0251837Y0078350D02*
X0251837Y0075150D01*
X0254037Y0075150D01*
X0260837Y0075150D02*
X0263037Y0075150D01*
X0263037Y0078350D01*
X0261551Y0099230D02*
X0261551Y0117272D01*
X0261551Y0121386D01*
X0261551Y0126770D01*
X0261551Y0121386D02*
X0261461Y0121384D01*
X0261372Y0121378D01*
X0261283Y0121368D01*
X0261194Y0121355D01*
X0261106Y0121337D01*
X0261019Y0121316D01*
X0260932Y0121291D01*
X0260847Y0121262D01*
X0260764Y0121229D01*
X0260682Y0121193D01*
X0260601Y0121154D01*
X0260523Y0121110D01*
X0260446Y0121064D01*
X0260371Y0121014D01*
X0260299Y0120961D01*
X0260229Y0120905D01*
X0260161Y0120846D01*
X0260096Y0120784D01*
X0260034Y0120719D01*
X0259975Y0120651D01*
X0259919Y0120581D01*
X0259866Y0120509D01*
X0259816Y0120434D01*
X0259770Y0120358D01*
X0259726Y0120279D01*
X0259687Y0120198D01*
X0259651Y0120116D01*
X0259618Y0120033D01*
X0259589Y0119948D01*
X0259564Y0119861D01*
X0259543Y0119774D01*
X0259525Y0119686D01*
X0259512Y0119597D01*
X0259502Y0119508D01*
X0259496Y0119419D01*
X0259494Y0119329D01*
X0259496Y0119239D01*
X0259502Y0119150D01*
X0259512Y0119061D01*
X0259525Y0118972D01*
X0259543Y0118884D01*
X0259564Y0118797D01*
X0259589Y0118710D01*
X0259618Y0118625D01*
X0259651Y0118542D01*
X0259687Y0118460D01*
X0259726Y0118379D01*
X0259770Y0118301D01*
X0259816Y0118224D01*
X0259866Y0118149D01*
X0259919Y0118077D01*
X0259975Y0118007D01*
X0260034Y0117939D01*
X0260096Y0117874D01*
X0260161Y0117812D01*
X0260229Y0117753D01*
X0260299Y0117697D01*
X0260371Y0117644D01*
X0260446Y0117594D01*
X0260523Y0117548D01*
X0260601Y0117504D01*
X0260682Y0117465D01*
X0260764Y0117429D01*
X0260847Y0117396D01*
X0260932Y0117367D01*
X0261019Y0117342D01*
X0261106Y0117321D01*
X0261194Y0117303D01*
X0261283Y0117290D01*
X0261372Y0117280D01*
X0261461Y0117274D01*
X0261551Y0117272D01*
X0243323Y0126770D02*
X0243323Y0099230D01*
X0232801Y0099230D02*
X0232801Y0117272D01*
X0232801Y0121386D01*
X0232801Y0126770D01*
X0232801Y0121386D02*
X0232711Y0121384D01*
X0232622Y0121378D01*
X0232533Y0121368D01*
X0232444Y0121355D01*
X0232356Y0121337D01*
X0232269Y0121316D01*
X0232182Y0121291D01*
X0232097Y0121262D01*
X0232014Y0121229D01*
X0231932Y0121193D01*
X0231851Y0121154D01*
X0231773Y0121110D01*
X0231696Y0121064D01*
X0231621Y0121014D01*
X0231549Y0120961D01*
X0231479Y0120905D01*
X0231411Y0120846D01*
X0231346Y0120784D01*
X0231284Y0120719D01*
X0231225Y0120651D01*
X0231169Y0120581D01*
X0231116Y0120509D01*
X0231066Y0120434D01*
X0231020Y0120358D01*
X0230976Y0120279D01*
X0230937Y0120198D01*
X0230901Y0120116D01*
X0230868Y0120033D01*
X0230839Y0119948D01*
X0230814Y0119861D01*
X0230793Y0119774D01*
X0230775Y0119686D01*
X0230762Y0119597D01*
X0230752Y0119508D01*
X0230746Y0119419D01*
X0230744Y0119329D01*
X0230746Y0119239D01*
X0230752Y0119150D01*
X0230762Y0119061D01*
X0230775Y0118972D01*
X0230793Y0118884D01*
X0230814Y0118797D01*
X0230839Y0118710D01*
X0230868Y0118625D01*
X0230901Y0118542D01*
X0230937Y0118460D01*
X0230976Y0118379D01*
X0231020Y0118301D01*
X0231066Y0118224D01*
X0231116Y0118149D01*
X0231169Y0118077D01*
X0231225Y0118007D01*
X0231284Y0117939D01*
X0231346Y0117874D01*
X0231411Y0117812D01*
X0231479Y0117753D01*
X0231549Y0117697D01*
X0231621Y0117644D01*
X0231696Y0117594D01*
X0231773Y0117548D01*
X0231851Y0117504D01*
X0231932Y0117465D01*
X0232014Y0117429D01*
X0232097Y0117396D01*
X0232182Y0117367D01*
X0232269Y0117342D01*
X0232356Y0117321D01*
X0232444Y0117303D01*
X0232533Y0117290D01*
X0232622Y0117280D01*
X0232711Y0117274D01*
X0232801Y0117272D01*
X0214573Y0126770D02*
X0214573Y0099230D01*
X0203551Y0099230D02*
X0203551Y0117272D01*
X0203551Y0121386D01*
X0203551Y0126770D01*
X0203551Y0121386D02*
X0203461Y0121384D01*
X0203372Y0121378D01*
X0203283Y0121368D01*
X0203194Y0121355D01*
X0203106Y0121337D01*
X0203019Y0121316D01*
X0202932Y0121291D01*
X0202847Y0121262D01*
X0202764Y0121229D01*
X0202682Y0121193D01*
X0202601Y0121154D01*
X0202523Y0121110D01*
X0202446Y0121064D01*
X0202371Y0121014D01*
X0202299Y0120961D01*
X0202229Y0120905D01*
X0202161Y0120846D01*
X0202096Y0120784D01*
X0202034Y0120719D01*
X0201975Y0120651D01*
X0201919Y0120581D01*
X0201866Y0120509D01*
X0201816Y0120434D01*
X0201770Y0120358D01*
X0201726Y0120279D01*
X0201687Y0120198D01*
X0201651Y0120116D01*
X0201618Y0120033D01*
X0201589Y0119948D01*
X0201564Y0119861D01*
X0201543Y0119774D01*
X0201525Y0119686D01*
X0201512Y0119597D01*
X0201502Y0119508D01*
X0201496Y0119419D01*
X0201494Y0119329D01*
X0201496Y0119239D01*
X0201502Y0119150D01*
X0201512Y0119061D01*
X0201525Y0118972D01*
X0201543Y0118884D01*
X0201564Y0118797D01*
X0201589Y0118710D01*
X0201618Y0118625D01*
X0201651Y0118542D01*
X0201687Y0118460D01*
X0201726Y0118379D01*
X0201770Y0118301D01*
X0201816Y0118224D01*
X0201866Y0118149D01*
X0201919Y0118077D01*
X0201975Y0118007D01*
X0202034Y0117939D01*
X0202096Y0117874D01*
X0202161Y0117812D01*
X0202229Y0117753D01*
X0202299Y0117697D01*
X0202371Y0117644D01*
X0202446Y0117594D01*
X0202523Y0117548D01*
X0202601Y0117504D01*
X0202682Y0117465D01*
X0202764Y0117429D01*
X0202847Y0117396D01*
X0202932Y0117367D01*
X0203019Y0117342D01*
X0203106Y0117321D01*
X0203194Y0117303D01*
X0203283Y0117290D01*
X0203372Y0117280D01*
X0203461Y0117274D01*
X0203551Y0117272D01*
X0185323Y0126770D02*
X0185323Y0099230D01*
X0175801Y0099230D02*
X0175801Y0117272D01*
X0175801Y0121386D01*
X0175801Y0126770D01*
X0175801Y0121386D02*
X0175711Y0121384D01*
X0175622Y0121378D01*
X0175533Y0121368D01*
X0175444Y0121355D01*
X0175356Y0121337D01*
X0175269Y0121316D01*
X0175182Y0121291D01*
X0175097Y0121262D01*
X0175014Y0121229D01*
X0174932Y0121193D01*
X0174851Y0121154D01*
X0174773Y0121110D01*
X0174696Y0121064D01*
X0174621Y0121014D01*
X0174549Y0120961D01*
X0174479Y0120905D01*
X0174411Y0120846D01*
X0174346Y0120784D01*
X0174284Y0120719D01*
X0174225Y0120651D01*
X0174169Y0120581D01*
X0174116Y0120509D01*
X0174066Y0120434D01*
X0174020Y0120358D01*
X0173976Y0120279D01*
X0173937Y0120198D01*
X0173901Y0120116D01*
X0173868Y0120033D01*
X0173839Y0119948D01*
X0173814Y0119861D01*
X0173793Y0119774D01*
X0173775Y0119686D01*
X0173762Y0119597D01*
X0173752Y0119508D01*
X0173746Y0119419D01*
X0173744Y0119329D01*
X0173746Y0119239D01*
X0173752Y0119150D01*
X0173762Y0119061D01*
X0173775Y0118972D01*
X0173793Y0118884D01*
X0173814Y0118797D01*
X0173839Y0118710D01*
X0173868Y0118625D01*
X0173901Y0118542D01*
X0173937Y0118460D01*
X0173976Y0118379D01*
X0174020Y0118301D01*
X0174066Y0118224D01*
X0174116Y0118149D01*
X0174169Y0118077D01*
X0174225Y0118007D01*
X0174284Y0117939D01*
X0174346Y0117874D01*
X0174411Y0117812D01*
X0174479Y0117753D01*
X0174549Y0117697D01*
X0174621Y0117644D01*
X0174696Y0117594D01*
X0174773Y0117548D01*
X0174851Y0117504D01*
X0174932Y0117465D01*
X0175014Y0117429D01*
X0175097Y0117396D01*
X0175182Y0117367D01*
X0175269Y0117342D01*
X0175356Y0117321D01*
X0175444Y0117303D01*
X0175533Y0117290D01*
X0175622Y0117280D01*
X0175711Y0117274D01*
X0175801Y0117272D01*
X0157573Y0126770D02*
X0157573Y0099230D01*
X0285087Y0164250D02*
X0285787Y0164250D01*
X0285087Y0164250D02*
X0285087Y0194250D01*
X0285787Y0194250D01*
X0288587Y0202950D02*
X0288587Y0206950D01*
X0335587Y0194250D02*
X0336287Y0194250D01*
X0336287Y0180450D01*
X0336287Y0178050D01*
X0336287Y0164250D01*
X0335587Y0164250D01*
X0333987Y0155550D02*
X0333987Y0151550D01*
X0356187Y0170250D02*
X0356187Y0175250D01*
X0358687Y0177750D01*
X0363687Y0177750D01*
X0366187Y0175250D01*
X0368687Y0177750D01*
X0373687Y0177750D01*
X0376187Y0175250D01*
X0378687Y0177750D01*
X0383687Y0177750D01*
X0386187Y0175250D01*
X0388687Y0177750D01*
X0393687Y0177750D01*
X0396187Y0175250D01*
X0398687Y0177750D01*
X0403687Y0177750D01*
X0406187Y0175250D01*
X0408687Y0177750D01*
X0413687Y0177750D01*
X0416187Y0175250D01*
X0418687Y0177750D01*
X0423687Y0177750D01*
X0426187Y0175250D01*
X0428687Y0177750D01*
X0433687Y0177750D01*
X0436187Y0175250D01*
X0438687Y0177750D01*
X0443687Y0177750D01*
X0446187Y0175250D01*
X0446187Y0170250D01*
X0443687Y0167750D01*
X0438687Y0167750D01*
X0436187Y0170250D01*
X0433687Y0167750D01*
X0428687Y0167750D01*
X0426187Y0170250D01*
X0426187Y0175250D01*
X0436187Y0175250D02*
X0436187Y0170250D01*
X0426187Y0170250D02*
X0423687Y0167750D01*
X0418687Y0167750D01*
X0416187Y0170250D01*
X0413687Y0167750D01*
X0408687Y0167750D01*
X0406187Y0170250D01*
X0403687Y0167750D01*
X0398687Y0167750D01*
X0396187Y0170250D01*
X0396187Y0175250D01*
X0386187Y0175250D02*
X0386187Y0170250D01*
X0383687Y0167750D01*
X0378687Y0167750D01*
X0376187Y0170250D01*
X0373687Y0167750D01*
X0368687Y0167750D01*
X0366187Y0170250D01*
X0363687Y0167750D01*
X0358687Y0167750D01*
X0356187Y0170250D01*
X0366187Y0170250D02*
X0366187Y0175250D01*
X0376187Y0175250D02*
X0376187Y0170250D01*
X0386187Y0170250D02*
X0388687Y0167750D01*
X0393687Y0167750D01*
X0396187Y0170250D01*
X0406187Y0170250D02*
X0406187Y0175250D01*
X0416187Y0175250D02*
X0416187Y0170250D01*
X0336287Y0178050D02*
X0336218Y0178052D01*
X0336150Y0178058D01*
X0336082Y0178068D01*
X0336015Y0178081D01*
X0335949Y0178099D01*
X0335884Y0178120D01*
X0335820Y0178145D01*
X0335758Y0178173D01*
X0335697Y0178205D01*
X0335638Y0178240D01*
X0335582Y0178279D01*
X0335527Y0178321D01*
X0335476Y0178366D01*
X0335426Y0178414D01*
X0335380Y0178464D01*
X0335337Y0178517D01*
X0335296Y0178573D01*
X0335259Y0178630D01*
X0335226Y0178690D01*
X0335195Y0178752D01*
X0335169Y0178815D01*
X0335146Y0178879D01*
X0335126Y0178945D01*
X0335111Y0179012D01*
X0335099Y0179079D01*
X0335091Y0179147D01*
X0335087Y0179216D01*
X0335087Y0179284D01*
X0335091Y0179353D01*
X0335099Y0179421D01*
X0335111Y0179488D01*
X0335126Y0179555D01*
X0335146Y0179621D01*
X0335169Y0179685D01*
X0335195Y0179748D01*
X0335226Y0179810D01*
X0335259Y0179870D01*
X0335296Y0179927D01*
X0335337Y0179983D01*
X0335380Y0180036D01*
X0335426Y0180086D01*
X0335476Y0180134D01*
X0335527Y0180179D01*
X0335582Y0180221D01*
X0335638Y0180260D01*
X0335697Y0180295D01*
X0335758Y0180327D01*
X0335820Y0180355D01*
X0335884Y0180380D01*
X0335949Y0180401D01*
X0336015Y0180419D01*
X0336082Y0180432D01*
X0336150Y0180442D01*
X0336218Y0180448D01*
X0336287Y0180450D01*
X0364573Y0126770D02*
X0364573Y0108728D01*
X0364573Y0104614D01*
X0364573Y0099230D01*
X0382801Y0099230D02*
X0382801Y0126770D01*
X0401823Y0126770D02*
X0401823Y0108728D01*
X0401823Y0104614D01*
X0401823Y0099230D01*
X0401823Y0104614D02*
X0401913Y0104616D01*
X0402002Y0104622D01*
X0402091Y0104632D01*
X0402180Y0104645D01*
X0402268Y0104663D01*
X0402355Y0104684D01*
X0402442Y0104709D01*
X0402527Y0104738D01*
X0402610Y0104771D01*
X0402692Y0104807D01*
X0402773Y0104846D01*
X0402852Y0104890D01*
X0402928Y0104936D01*
X0403003Y0104986D01*
X0403075Y0105039D01*
X0403145Y0105095D01*
X0403213Y0105154D01*
X0403278Y0105216D01*
X0403340Y0105281D01*
X0403399Y0105349D01*
X0403455Y0105419D01*
X0403508Y0105491D01*
X0403558Y0105566D01*
X0403604Y0105643D01*
X0403648Y0105721D01*
X0403687Y0105802D01*
X0403723Y0105884D01*
X0403756Y0105967D01*
X0403785Y0106052D01*
X0403810Y0106139D01*
X0403831Y0106226D01*
X0403849Y0106314D01*
X0403862Y0106403D01*
X0403872Y0106492D01*
X0403878Y0106581D01*
X0403880Y0106671D01*
X0403878Y0106761D01*
X0403872Y0106850D01*
X0403862Y0106939D01*
X0403849Y0107028D01*
X0403831Y0107116D01*
X0403810Y0107203D01*
X0403785Y0107290D01*
X0403756Y0107375D01*
X0403723Y0107458D01*
X0403687Y0107540D01*
X0403648Y0107621D01*
X0403604Y0107700D01*
X0403558Y0107776D01*
X0403508Y0107851D01*
X0403455Y0107923D01*
X0403399Y0107993D01*
X0403340Y0108061D01*
X0403278Y0108126D01*
X0403213Y0108188D01*
X0403145Y0108247D01*
X0403075Y0108303D01*
X0403003Y0108356D01*
X0402928Y0108406D01*
X0402852Y0108452D01*
X0402773Y0108496D01*
X0402692Y0108535D01*
X0402610Y0108571D01*
X0402527Y0108604D01*
X0402442Y0108633D01*
X0402355Y0108658D01*
X0402268Y0108679D01*
X0402180Y0108697D01*
X0402091Y0108710D01*
X0402002Y0108720D01*
X0401913Y0108726D01*
X0401823Y0108728D01*
X0420051Y0099230D02*
X0420051Y0126770D01*
X0436823Y0127520D02*
X0436823Y0109478D01*
X0436823Y0105364D01*
X0436823Y0099980D01*
X0436823Y0105364D02*
X0436913Y0105366D01*
X0437002Y0105372D01*
X0437091Y0105382D01*
X0437180Y0105395D01*
X0437268Y0105413D01*
X0437355Y0105434D01*
X0437442Y0105459D01*
X0437527Y0105488D01*
X0437610Y0105521D01*
X0437692Y0105557D01*
X0437773Y0105596D01*
X0437852Y0105640D01*
X0437928Y0105686D01*
X0438003Y0105736D01*
X0438075Y0105789D01*
X0438145Y0105845D01*
X0438213Y0105904D01*
X0438278Y0105966D01*
X0438340Y0106031D01*
X0438399Y0106099D01*
X0438455Y0106169D01*
X0438508Y0106241D01*
X0438558Y0106316D01*
X0438604Y0106393D01*
X0438648Y0106471D01*
X0438687Y0106552D01*
X0438723Y0106634D01*
X0438756Y0106717D01*
X0438785Y0106802D01*
X0438810Y0106889D01*
X0438831Y0106976D01*
X0438849Y0107064D01*
X0438862Y0107153D01*
X0438872Y0107242D01*
X0438878Y0107331D01*
X0438880Y0107421D01*
X0438878Y0107511D01*
X0438872Y0107600D01*
X0438862Y0107689D01*
X0438849Y0107778D01*
X0438831Y0107866D01*
X0438810Y0107953D01*
X0438785Y0108040D01*
X0438756Y0108125D01*
X0438723Y0108208D01*
X0438687Y0108290D01*
X0438648Y0108371D01*
X0438604Y0108450D01*
X0438558Y0108526D01*
X0438508Y0108601D01*
X0438455Y0108673D01*
X0438399Y0108743D01*
X0438340Y0108811D01*
X0438278Y0108876D01*
X0438213Y0108938D01*
X0438145Y0108997D01*
X0438075Y0109053D01*
X0438003Y0109106D01*
X0437928Y0109156D01*
X0437852Y0109202D01*
X0437773Y0109246D01*
X0437692Y0109285D01*
X0437610Y0109321D01*
X0437527Y0109354D01*
X0437442Y0109383D01*
X0437355Y0109408D01*
X0437268Y0109429D01*
X0437180Y0109447D01*
X0437091Y0109460D01*
X0437002Y0109470D01*
X0436913Y0109476D01*
X0436823Y0109478D01*
X0455051Y0099980D02*
X0455051Y0127520D01*
X0473073Y0127520D02*
X0473073Y0109478D01*
X0473073Y0105364D01*
X0473073Y0099980D01*
X0473073Y0105364D02*
X0473163Y0105366D01*
X0473252Y0105372D01*
X0473341Y0105382D01*
X0473430Y0105395D01*
X0473518Y0105413D01*
X0473605Y0105434D01*
X0473692Y0105459D01*
X0473777Y0105488D01*
X0473860Y0105521D01*
X0473942Y0105557D01*
X0474023Y0105596D01*
X0474102Y0105640D01*
X0474178Y0105686D01*
X0474253Y0105736D01*
X0474325Y0105789D01*
X0474395Y0105845D01*
X0474463Y0105904D01*
X0474528Y0105966D01*
X0474590Y0106031D01*
X0474649Y0106099D01*
X0474705Y0106169D01*
X0474758Y0106241D01*
X0474808Y0106316D01*
X0474854Y0106393D01*
X0474898Y0106471D01*
X0474937Y0106552D01*
X0474973Y0106634D01*
X0475006Y0106717D01*
X0475035Y0106802D01*
X0475060Y0106889D01*
X0475081Y0106976D01*
X0475099Y0107064D01*
X0475112Y0107153D01*
X0475122Y0107242D01*
X0475128Y0107331D01*
X0475130Y0107421D01*
X0475128Y0107511D01*
X0475122Y0107600D01*
X0475112Y0107689D01*
X0475099Y0107778D01*
X0475081Y0107866D01*
X0475060Y0107953D01*
X0475035Y0108040D01*
X0475006Y0108125D01*
X0474973Y0108208D01*
X0474937Y0108290D01*
X0474898Y0108371D01*
X0474854Y0108450D01*
X0474808Y0108526D01*
X0474758Y0108601D01*
X0474705Y0108673D01*
X0474649Y0108743D01*
X0474590Y0108811D01*
X0474528Y0108876D01*
X0474463Y0108938D01*
X0474395Y0108997D01*
X0474325Y0109053D01*
X0474253Y0109106D01*
X0474178Y0109156D01*
X0474102Y0109202D01*
X0474023Y0109246D01*
X0473942Y0109285D01*
X0473860Y0109321D01*
X0473777Y0109354D01*
X0473692Y0109383D01*
X0473605Y0109408D01*
X0473518Y0109429D01*
X0473430Y0109447D01*
X0473341Y0109460D01*
X0473252Y0109470D01*
X0473163Y0109476D01*
X0473073Y0109478D01*
X0491301Y0099980D02*
X0491301Y0127520D01*
X0508323Y0127520D02*
X0508323Y0109478D01*
X0508323Y0105364D01*
X0508323Y0099980D01*
X0508323Y0105364D02*
X0508413Y0105366D01*
X0508502Y0105372D01*
X0508591Y0105382D01*
X0508680Y0105395D01*
X0508768Y0105413D01*
X0508855Y0105434D01*
X0508942Y0105459D01*
X0509027Y0105488D01*
X0509110Y0105521D01*
X0509192Y0105557D01*
X0509273Y0105596D01*
X0509352Y0105640D01*
X0509428Y0105686D01*
X0509503Y0105736D01*
X0509575Y0105789D01*
X0509645Y0105845D01*
X0509713Y0105904D01*
X0509778Y0105966D01*
X0509840Y0106031D01*
X0509899Y0106099D01*
X0509955Y0106169D01*
X0510008Y0106241D01*
X0510058Y0106316D01*
X0510104Y0106393D01*
X0510148Y0106471D01*
X0510187Y0106552D01*
X0510223Y0106634D01*
X0510256Y0106717D01*
X0510285Y0106802D01*
X0510310Y0106889D01*
X0510331Y0106976D01*
X0510349Y0107064D01*
X0510362Y0107153D01*
X0510372Y0107242D01*
X0510378Y0107331D01*
X0510380Y0107421D01*
X0510378Y0107511D01*
X0510372Y0107600D01*
X0510362Y0107689D01*
X0510349Y0107778D01*
X0510331Y0107866D01*
X0510310Y0107953D01*
X0510285Y0108040D01*
X0510256Y0108125D01*
X0510223Y0108208D01*
X0510187Y0108290D01*
X0510148Y0108371D01*
X0510104Y0108450D01*
X0510058Y0108526D01*
X0510008Y0108601D01*
X0509955Y0108673D01*
X0509899Y0108743D01*
X0509840Y0108811D01*
X0509778Y0108876D01*
X0509713Y0108938D01*
X0509645Y0108997D01*
X0509575Y0109053D01*
X0509503Y0109106D01*
X0509428Y0109156D01*
X0509352Y0109202D01*
X0509273Y0109246D01*
X0509192Y0109285D01*
X0509110Y0109321D01*
X0509027Y0109354D01*
X0508942Y0109383D01*
X0508855Y0109408D01*
X0508768Y0109429D01*
X0508680Y0109447D01*
X0508591Y0109460D01*
X0508502Y0109470D01*
X0508413Y0109476D01*
X0508323Y0109478D01*
X0526551Y0099980D02*
X0526551Y0127520D01*
X0544823Y0127270D02*
X0544823Y0109228D01*
X0544823Y0105114D01*
X0544823Y0099730D01*
X0544823Y0105114D02*
X0544913Y0105116D01*
X0545002Y0105122D01*
X0545091Y0105132D01*
X0545180Y0105145D01*
X0545268Y0105163D01*
X0545355Y0105184D01*
X0545442Y0105209D01*
X0545527Y0105238D01*
X0545610Y0105271D01*
X0545692Y0105307D01*
X0545773Y0105346D01*
X0545852Y0105390D01*
X0545928Y0105436D01*
X0546003Y0105486D01*
X0546075Y0105539D01*
X0546145Y0105595D01*
X0546213Y0105654D01*
X0546278Y0105716D01*
X0546340Y0105781D01*
X0546399Y0105849D01*
X0546455Y0105919D01*
X0546508Y0105991D01*
X0546558Y0106066D01*
X0546604Y0106143D01*
X0546648Y0106221D01*
X0546687Y0106302D01*
X0546723Y0106384D01*
X0546756Y0106467D01*
X0546785Y0106552D01*
X0546810Y0106639D01*
X0546831Y0106726D01*
X0546849Y0106814D01*
X0546862Y0106903D01*
X0546872Y0106992D01*
X0546878Y0107081D01*
X0546880Y0107171D01*
X0546878Y0107261D01*
X0546872Y0107350D01*
X0546862Y0107439D01*
X0546849Y0107528D01*
X0546831Y0107616D01*
X0546810Y0107703D01*
X0546785Y0107790D01*
X0546756Y0107875D01*
X0546723Y0107958D01*
X0546687Y0108040D01*
X0546648Y0108121D01*
X0546604Y0108200D01*
X0546558Y0108276D01*
X0546508Y0108351D01*
X0546455Y0108423D01*
X0546399Y0108493D01*
X0546340Y0108561D01*
X0546278Y0108626D01*
X0546213Y0108688D01*
X0546145Y0108747D01*
X0546075Y0108803D01*
X0546003Y0108856D01*
X0545928Y0108906D01*
X0545852Y0108952D01*
X0545773Y0108996D01*
X0545692Y0109035D01*
X0545610Y0109071D01*
X0545527Y0109104D01*
X0545442Y0109133D01*
X0545355Y0109158D01*
X0545268Y0109179D01*
X0545180Y0109197D01*
X0545091Y0109210D01*
X0545002Y0109220D01*
X0544913Y0109226D01*
X0544823Y0109228D01*
X0563051Y0099730D02*
X0563051Y0127270D01*
X0578573Y0127020D02*
X0578573Y0108978D01*
X0578573Y0104864D01*
X0578573Y0099480D01*
X0578573Y0104864D02*
X0578663Y0104866D01*
X0578752Y0104872D01*
X0578841Y0104882D01*
X0578930Y0104895D01*
X0579018Y0104913D01*
X0579105Y0104934D01*
X0579192Y0104959D01*
X0579277Y0104988D01*
X0579360Y0105021D01*
X0579442Y0105057D01*
X0579523Y0105096D01*
X0579602Y0105140D01*
X0579678Y0105186D01*
X0579753Y0105236D01*
X0579825Y0105289D01*
X0579895Y0105345D01*
X0579963Y0105404D01*
X0580028Y0105466D01*
X0580090Y0105531D01*
X0580149Y0105599D01*
X0580205Y0105669D01*
X0580258Y0105741D01*
X0580308Y0105816D01*
X0580354Y0105893D01*
X0580398Y0105971D01*
X0580437Y0106052D01*
X0580473Y0106134D01*
X0580506Y0106217D01*
X0580535Y0106302D01*
X0580560Y0106389D01*
X0580581Y0106476D01*
X0580599Y0106564D01*
X0580612Y0106653D01*
X0580622Y0106742D01*
X0580628Y0106831D01*
X0580630Y0106921D01*
X0580628Y0107011D01*
X0580622Y0107100D01*
X0580612Y0107189D01*
X0580599Y0107278D01*
X0580581Y0107366D01*
X0580560Y0107453D01*
X0580535Y0107540D01*
X0580506Y0107625D01*
X0580473Y0107708D01*
X0580437Y0107790D01*
X0580398Y0107871D01*
X0580354Y0107950D01*
X0580308Y0108026D01*
X0580258Y0108101D01*
X0580205Y0108173D01*
X0580149Y0108243D01*
X0580090Y0108311D01*
X0580028Y0108376D01*
X0579963Y0108438D01*
X0579895Y0108497D01*
X0579825Y0108553D01*
X0579753Y0108606D01*
X0579678Y0108656D01*
X0579602Y0108702D01*
X0579523Y0108746D01*
X0579442Y0108785D01*
X0579360Y0108821D01*
X0579277Y0108854D01*
X0579192Y0108883D01*
X0579105Y0108908D01*
X0579018Y0108929D01*
X0578930Y0108947D01*
X0578841Y0108960D01*
X0578752Y0108970D01*
X0578663Y0108976D01*
X0578573Y0108978D01*
X0596801Y0099480D02*
X0596801Y0127020D01*
X0613823Y0127520D02*
X0613823Y0109478D01*
X0613823Y0105364D01*
X0613823Y0099980D01*
X0613823Y0105364D02*
X0613913Y0105366D01*
X0614002Y0105372D01*
X0614091Y0105382D01*
X0614180Y0105395D01*
X0614268Y0105413D01*
X0614355Y0105434D01*
X0614442Y0105459D01*
X0614527Y0105488D01*
X0614610Y0105521D01*
X0614692Y0105557D01*
X0614773Y0105596D01*
X0614852Y0105640D01*
X0614928Y0105686D01*
X0615003Y0105736D01*
X0615075Y0105789D01*
X0615145Y0105845D01*
X0615213Y0105904D01*
X0615278Y0105966D01*
X0615340Y0106031D01*
X0615399Y0106099D01*
X0615455Y0106169D01*
X0615508Y0106241D01*
X0615558Y0106316D01*
X0615604Y0106393D01*
X0615648Y0106471D01*
X0615687Y0106552D01*
X0615723Y0106634D01*
X0615756Y0106717D01*
X0615785Y0106802D01*
X0615810Y0106889D01*
X0615831Y0106976D01*
X0615849Y0107064D01*
X0615862Y0107153D01*
X0615872Y0107242D01*
X0615878Y0107331D01*
X0615880Y0107421D01*
X0615878Y0107511D01*
X0615872Y0107600D01*
X0615862Y0107689D01*
X0615849Y0107778D01*
X0615831Y0107866D01*
X0615810Y0107953D01*
X0615785Y0108040D01*
X0615756Y0108125D01*
X0615723Y0108208D01*
X0615687Y0108290D01*
X0615648Y0108371D01*
X0615604Y0108450D01*
X0615558Y0108526D01*
X0615508Y0108601D01*
X0615455Y0108673D01*
X0615399Y0108743D01*
X0615340Y0108811D01*
X0615278Y0108876D01*
X0615213Y0108938D01*
X0615145Y0108997D01*
X0615075Y0109053D01*
X0615003Y0109106D01*
X0614928Y0109156D01*
X0614852Y0109202D01*
X0614773Y0109246D01*
X0614692Y0109285D01*
X0614610Y0109321D01*
X0614527Y0109354D01*
X0614442Y0109383D01*
X0614355Y0109408D01*
X0614268Y0109429D01*
X0614180Y0109447D01*
X0614091Y0109460D01*
X0614002Y0109470D01*
X0613913Y0109476D01*
X0613823Y0109478D01*
X0632051Y0099980D02*
X0632051Y0127520D01*
X0623537Y0078600D02*
X0623537Y0075400D01*
X0621337Y0075400D01*
X0614537Y0075400D02*
X0612337Y0075400D01*
X0612337Y0078600D01*
X0588287Y0078600D02*
X0588287Y0075400D01*
X0586087Y0075400D01*
X0579287Y0075400D02*
X0577087Y0075400D01*
X0577087Y0078600D01*
X0554537Y0078600D02*
X0554537Y0075400D01*
X0552337Y0075400D01*
X0545537Y0075400D02*
X0543337Y0075400D01*
X0543337Y0078600D01*
X0518037Y0078600D02*
X0518037Y0075400D01*
X0515837Y0075400D01*
X0509037Y0075400D02*
X0506837Y0075400D01*
X0506837Y0078600D01*
X0482787Y0078600D02*
X0482787Y0075400D01*
X0480587Y0075400D01*
X0473787Y0075400D02*
X0471587Y0075400D01*
X0471587Y0078600D01*
X0446537Y0078600D02*
X0446537Y0075400D01*
X0444337Y0075400D01*
X0437537Y0075400D02*
X0435337Y0075400D01*
X0435337Y0078600D01*
X0411537Y0078600D02*
X0411537Y0075400D01*
X0409337Y0075400D01*
X0402537Y0075400D02*
X0400337Y0075400D01*
X0400337Y0078600D01*
X0374287Y0078600D02*
X0374287Y0075400D01*
X0372087Y0075400D01*
X0365287Y0075400D02*
X0363087Y0075400D01*
X0363087Y0078600D01*
X0364573Y0104614D02*
X0364663Y0104616D01*
X0364752Y0104622D01*
X0364841Y0104632D01*
X0364930Y0104645D01*
X0365018Y0104663D01*
X0365105Y0104684D01*
X0365192Y0104709D01*
X0365277Y0104738D01*
X0365360Y0104771D01*
X0365442Y0104807D01*
X0365523Y0104846D01*
X0365602Y0104890D01*
X0365678Y0104936D01*
X0365753Y0104986D01*
X0365825Y0105039D01*
X0365895Y0105095D01*
X0365963Y0105154D01*
X0366028Y0105216D01*
X0366090Y0105281D01*
X0366149Y0105349D01*
X0366205Y0105419D01*
X0366258Y0105491D01*
X0366308Y0105566D01*
X0366354Y0105643D01*
X0366398Y0105721D01*
X0366437Y0105802D01*
X0366473Y0105884D01*
X0366506Y0105967D01*
X0366535Y0106052D01*
X0366560Y0106139D01*
X0366581Y0106226D01*
X0366599Y0106314D01*
X0366612Y0106403D01*
X0366622Y0106492D01*
X0366628Y0106581D01*
X0366630Y0106671D01*
X0366628Y0106761D01*
X0366622Y0106850D01*
X0366612Y0106939D01*
X0366599Y0107028D01*
X0366581Y0107116D01*
X0366560Y0107203D01*
X0366535Y0107290D01*
X0366506Y0107375D01*
X0366473Y0107458D01*
X0366437Y0107540D01*
X0366398Y0107621D01*
X0366354Y0107700D01*
X0366308Y0107776D01*
X0366258Y0107851D01*
X0366205Y0107923D01*
X0366149Y0107993D01*
X0366090Y0108061D01*
X0366028Y0108126D01*
X0365963Y0108188D01*
X0365895Y0108247D01*
X0365825Y0108303D01*
X0365753Y0108356D01*
X0365678Y0108406D01*
X0365602Y0108452D01*
X0365523Y0108496D01*
X0365442Y0108535D01*
X0365360Y0108571D01*
X0365277Y0108604D01*
X0365192Y0108633D01*
X0365105Y0108658D01*
X0365018Y0108679D01*
X0364930Y0108697D01*
X0364841Y0108710D01*
X0364752Y0108720D01*
X0364663Y0108726D01*
X0364573Y0108728D01*
X0311775Y0089452D02*
X0311775Y0089019D01*
X0310040Y0087284D01*
X0310040Y0086850D01*
X0308829Y0086850D02*
X0307094Y0086850D01*
X0307961Y0086850D02*
X0307961Y0089452D01*
X0307094Y0088585D01*
X0305882Y0089019D02*
X0305882Y0087284D01*
X0305449Y0086850D01*
X0304147Y0086850D01*
X0304147Y0089452D01*
X0305449Y0089452D01*
X0305882Y0089019D01*
X0310040Y0089452D02*
X0311775Y0089452D01*
X0192187Y0258235D02*
X0210714Y0276762D01*
X0210714Y0278738D01*
X0192187Y0297265D01*
X0172672Y0277750D01*
X0192187Y0258235D01*
X0206047Y0277750D02*
X0206049Y0277825D01*
X0206055Y0277899D01*
X0206065Y0277973D01*
X0206078Y0278046D01*
X0206096Y0278119D01*
X0206117Y0278190D01*
X0206142Y0278261D01*
X0206171Y0278330D01*
X0206204Y0278397D01*
X0206240Y0278462D01*
X0206279Y0278526D01*
X0206321Y0278587D01*
X0206367Y0278646D01*
X0206416Y0278703D01*
X0206468Y0278756D01*
X0206522Y0278807D01*
X0206579Y0278856D01*
X0206639Y0278900D01*
X0206701Y0278942D01*
X0206765Y0278981D01*
X0206831Y0279016D01*
X0206898Y0279047D01*
X0206968Y0279075D01*
X0207038Y0279099D01*
X0207110Y0279120D01*
X0207183Y0279136D01*
X0207256Y0279149D01*
X0207331Y0279158D01*
X0207405Y0279163D01*
X0207480Y0279164D01*
X0207554Y0279161D01*
X0207629Y0279154D01*
X0207702Y0279143D01*
X0207776Y0279129D01*
X0207848Y0279110D01*
X0207919Y0279088D01*
X0207989Y0279062D01*
X0208058Y0279032D01*
X0208124Y0278999D01*
X0208189Y0278962D01*
X0208252Y0278922D01*
X0208313Y0278878D01*
X0208371Y0278832D01*
X0208427Y0278782D01*
X0208480Y0278730D01*
X0208531Y0278675D01*
X0208578Y0278617D01*
X0208622Y0278557D01*
X0208663Y0278494D01*
X0208701Y0278430D01*
X0208735Y0278364D01*
X0208766Y0278295D01*
X0208793Y0278226D01*
X0208816Y0278155D01*
X0208835Y0278083D01*
X0208851Y0278010D01*
X0208863Y0277936D01*
X0208871Y0277862D01*
X0208875Y0277787D01*
X0208875Y0277713D01*
X0208871Y0277638D01*
X0208863Y0277564D01*
X0208851Y0277490D01*
X0208835Y0277417D01*
X0208816Y0277345D01*
X0208793Y0277274D01*
X0208766Y0277205D01*
X0208735Y0277136D01*
X0208701Y0277070D01*
X0208663Y0277006D01*
X0208622Y0276943D01*
X0208578Y0276883D01*
X0208531Y0276825D01*
X0208480Y0276770D01*
X0208427Y0276718D01*
X0208371Y0276668D01*
X0208313Y0276622D01*
X0208252Y0276578D01*
X0208189Y0276538D01*
X0208124Y0276501D01*
X0208058Y0276468D01*
X0207989Y0276438D01*
X0207919Y0276412D01*
X0207848Y0276390D01*
X0207776Y0276371D01*
X0207702Y0276357D01*
X0207629Y0276346D01*
X0207554Y0276339D01*
X0207480Y0276336D01*
X0207405Y0276337D01*
X0207331Y0276342D01*
X0207256Y0276351D01*
X0207183Y0276364D01*
X0207110Y0276380D01*
X0207038Y0276401D01*
X0206968Y0276425D01*
X0206898Y0276453D01*
X0206831Y0276484D01*
X0206765Y0276519D01*
X0206701Y0276558D01*
X0206639Y0276600D01*
X0206579Y0276644D01*
X0206522Y0276693D01*
X0206468Y0276744D01*
X0206416Y0276797D01*
X0206367Y0276854D01*
X0206321Y0276913D01*
X0206279Y0276974D01*
X0206240Y0277038D01*
X0206204Y0277103D01*
X0206171Y0277170D01*
X0206142Y0277239D01*
X0206117Y0277310D01*
X0206096Y0277381D01*
X0206078Y0277454D01*
X0206065Y0277527D01*
X0206055Y0277601D01*
X0206049Y0277675D01*
X0206047Y0277750D01*
X0188187Y0308000D02*
X0231187Y0308000D01*
X0231247Y0308002D01*
X0231308Y0308007D01*
X0231367Y0308016D01*
X0231426Y0308029D01*
X0231485Y0308045D01*
X0231542Y0308065D01*
X0231597Y0308088D01*
X0231652Y0308115D01*
X0231704Y0308144D01*
X0231755Y0308177D01*
X0231804Y0308213D01*
X0231850Y0308251D01*
X0231894Y0308293D01*
X0231936Y0308337D01*
X0231974Y0308383D01*
X0232010Y0308432D01*
X0232043Y0308483D01*
X0232072Y0308535D01*
X0232099Y0308590D01*
X0232122Y0308645D01*
X0232142Y0308702D01*
X0232158Y0308761D01*
X0232171Y0308820D01*
X0232180Y0308879D01*
X0232185Y0308940D01*
X0232187Y0309000D01*
X0232187Y0313000D01*
X0232187Y0322000D02*
X0232187Y0326000D01*
X0232185Y0326060D01*
X0232180Y0326121D01*
X0232171Y0326180D01*
X0232158Y0326239D01*
X0232142Y0326298D01*
X0232122Y0326355D01*
X0232099Y0326410D01*
X0232072Y0326465D01*
X0232043Y0326517D01*
X0232010Y0326568D01*
X0231974Y0326617D01*
X0231936Y0326663D01*
X0231894Y0326707D01*
X0231850Y0326749D01*
X0231804Y0326787D01*
X0231755Y0326823D01*
X0231704Y0326856D01*
X0231652Y0326885D01*
X0231597Y0326912D01*
X0231542Y0326935D01*
X0231485Y0326955D01*
X0231426Y0326971D01*
X0231367Y0326984D01*
X0231308Y0326993D01*
X0231247Y0326998D01*
X0231187Y0327000D01*
X0188187Y0327000D01*
X0188127Y0326998D01*
X0188066Y0326993D01*
X0188007Y0326984D01*
X0187948Y0326971D01*
X0187889Y0326955D01*
X0187832Y0326935D01*
X0187777Y0326912D01*
X0187722Y0326885D01*
X0187670Y0326856D01*
X0187619Y0326823D01*
X0187570Y0326787D01*
X0187524Y0326749D01*
X0187480Y0326707D01*
X0187438Y0326663D01*
X0187400Y0326617D01*
X0187364Y0326568D01*
X0187331Y0326517D01*
X0187302Y0326465D01*
X0187275Y0326410D01*
X0187252Y0326355D01*
X0187232Y0326298D01*
X0187216Y0326239D01*
X0187203Y0326180D01*
X0187194Y0326121D01*
X0187189Y0326060D01*
X0187187Y0326000D01*
X0187187Y0322000D01*
X0187187Y0313000D02*
X0187187Y0309000D01*
X0187189Y0308940D01*
X0187194Y0308879D01*
X0187203Y0308820D01*
X0187216Y0308761D01*
X0187232Y0308702D01*
X0187252Y0308645D01*
X0187275Y0308590D01*
X0187302Y0308535D01*
X0187331Y0308483D01*
X0187364Y0308432D01*
X0187400Y0308383D01*
X0187438Y0308337D01*
X0187480Y0308293D01*
X0187524Y0308251D01*
X0187570Y0308213D01*
X0187619Y0308177D01*
X0187670Y0308144D01*
X0187722Y0308115D01*
X0187777Y0308088D01*
X0187832Y0308065D01*
X0187889Y0308045D01*
X0187948Y0308029D01*
X0188007Y0308016D01*
X0188066Y0308007D01*
X0188127Y0308002D01*
X0188187Y0308000D01*
X0207187Y0315000D02*
X0207187Y0317500D01*
X0207187Y0320000D01*
X0208687Y0320000D02*
X0210687Y0320000D01*
X0210687Y0315000D01*
X0208687Y0315000D01*
X0208687Y0320000D01*
X0212187Y0320000D02*
X0212187Y0317500D01*
X0212187Y0315000D01*
X0167187Y0330750D02*
X0167187Y0335750D01*
X0164687Y0338250D01*
X0159687Y0338250D01*
X0157187Y0335750D01*
X0157187Y0330750D01*
X0159687Y0328250D01*
X0164687Y0328250D01*
X0167187Y0330750D01*
X0157187Y0330750D02*
X0154687Y0328250D01*
X0149687Y0328250D01*
X0147187Y0330750D01*
X0144687Y0328250D01*
X0139687Y0328250D01*
X0137187Y0330750D01*
X0134687Y0328250D01*
X0129687Y0328250D01*
X0127187Y0330750D01*
X0127187Y0335750D01*
X0129687Y0338250D01*
X0134687Y0338250D01*
X0137187Y0335750D01*
X0139687Y0338250D01*
X0144687Y0338250D01*
X0147187Y0335750D01*
X0147187Y0330750D01*
X0147187Y0335750D02*
X0149687Y0338250D01*
X0154687Y0338250D01*
X0157187Y0335750D01*
X0137187Y0335750D02*
X0137187Y0330750D01*
X0073604Y0298481D02*
X0073604Y0295879D01*
X0072737Y0295879D02*
X0074472Y0295879D01*
X0072737Y0297614D02*
X0073604Y0298481D01*
X0071525Y0298481D02*
X0070658Y0298481D01*
X0071092Y0298481D02*
X0071092Y0296313D01*
X0070658Y0295879D01*
X0070224Y0295879D01*
X0069790Y0296313D01*
X0511187Y0323000D02*
X0511187Y0328000D01*
X0513687Y0330500D01*
X0518687Y0330500D01*
X0521187Y0328000D01*
X0523687Y0330500D01*
X0528687Y0330500D01*
X0531187Y0328000D01*
X0533687Y0330500D01*
X0538687Y0330500D01*
X0541187Y0328000D01*
X0541187Y0323000D01*
X0538687Y0320500D01*
X0533687Y0320500D01*
X0531187Y0323000D01*
X0528687Y0320500D01*
X0523687Y0320500D01*
X0521187Y0323000D01*
X0518687Y0320500D01*
X0513687Y0320500D01*
X0511187Y0323000D01*
X0521187Y0323000D02*
X0521187Y0328000D01*
X0531187Y0328000D02*
X0531187Y0323000D01*
D12*
X0033937Y0208750D02*
X0033937Y0008750D01*
X0068937Y0008750D01*
X0068937Y0081250D01*
X0128937Y0081250D01*
X0128937Y0008750D01*
X0128937Y0001250D01*
X0068937Y0001250D01*
X0068937Y0008750D01*
X0128937Y0008750D01*
X0138937Y0008750D01*
X0138937Y0208750D01*
X0033937Y0208750D01*
X0088937Y0161250D02*
X0128937Y0161250D01*
X0128937Y0121250D01*
X0088937Y0121250D01*
X0088937Y0161250D01*
X0056437Y0141250D02*
X0056437Y0118750D01*
X0056435Y0118610D01*
X0056429Y0118470D01*
X0056419Y0118330D01*
X0056406Y0118190D01*
X0056388Y0118051D01*
X0056366Y0117912D01*
X0056341Y0117775D01*
X0056312Y0117637D01*
X0056279Y0117501D01*
X0056242Y0117366D01*
X0056201Y0117232D01*
X0056156Y0117099D01*
X0056108Y0116967D01*
X0056056Y0116837D01*
X0056001Y0116708D01*
X0055942Y0116581D01*
X0055879Y0116455D01*
X0055813Y0116331D01*
X0055744Y0116210D01*
X0055671Y0116090D01*
X0055594Y0115972D01*
X0055515Y0115857D01*
X0055432Y0115743D01*
X0055346Y0115633D01*
X0055257Y0115524D01*
X0055165Y0115418D01*
X0055070Y0115315D01*
X0054973Y0115214D01*
X0054872Y0115117D01*
X0054769Y0115022D01*
X0054663Y0114930D01*
X0054554Y0114841D01*
X0054444Y0114755D01*
X0054330Y0114672D01*
X0054215Y0114593D01*
X0054097Y0114516D01*
X0053977Y0114443D01*
X0053856Y0114374D01*
X0053732Y0114308D01*
X0053606Y0114245D01*
X0053479Y0114186D01*
X0053350Y0114131D01*
X0053220Y0114079D01*
X0053088Y0114031D01*
X0052955Y0113986D01*
X0052821Y0113945D01*
X0052686Y0113908D01*
X0052550Y0113875D01*
X0052412Y0113846D01*
X0052275Y0113821D01*
X0052136Y0113799D01*
X0051997Y0113781D01*
X0051857Y0113768D01*
X0051717Y0113758D01*
X0051577Y0113752D01*
X0051437Y0113750D01*
X0051297Y0113752D01*
X0051157Y0113758D01*
X0051017Y0113768D01*
X0050877Y0113781D01*
X0050738Y0113799D01*
X0050599Y0113821D01*
X0050462Y0113846D01*
X0050324Y0113875D01*
X0050188Y0113908D01*
X0050053Y0113945D01*
X0049919Y0113986D01*
X0049786Y0114031D01*
X0049654Y0114079D01*
X0049524Y0114131D01*
X0049395Y0114186D01*
X0049268Y0114245D01*
X0049142Y0114308D01*
X0049018Y0114374D01*
X0048897Y0114443D01*
X0048777Y0114516D01*
X0048659Y0114593D01*
X0048544Y0114672D01*
X0048430Y0114755D01*
X0048320Y0114841D01*
X0048211Y0114930D01*
X0048105Y0115022D01*
X0048002Y0115117D01*
X0047901Y0115214D01*
X0047804Y0115315D01*
X0047709Y0115418D01*
X0047617Y0115524D01*
X0047528Y0115633D01*
X0047442Y0115743D01*
X0047359Y0115857D01*
X0047280Y0115972D01*
X0047203Y0116090D01*
X0047130Y0116210D01*
X0047061Y0116331D01*
X0046995Y0116455D01*
X0046932Y0116581D01*
X0046873Y0116708D01*
X0046818Y0116837D01*
X0046766Y0116967D01*
X0046718Y0117099D01*
X0046673Y0117232D01*
X0046632Y0117366D01*
X0046595Y0117501D01*
X0046562Y0117637D01*
X0046533Y0117775D01*
X0046508Y0117912D01*
X0046486Y0118051D01*
X0046468Y0118190D01*
X0046455Y0118330D01*
X0046445Y0118470D01*
X0046439Y0118610D01*
X0046437Y0118750D01*
X0046437Y0141250D01*
X0046439Y0141390D01*
X0046445Y0141530D01*
X0046455Y0141670D01*
X0046468Y0141810D01*
X0046486Y0141949D01*
X0046508Y0142088D01*
X0046533Y0142225D01*
X0046562Y0142363D01*
X0046595Y0142499D01*
X0046632Y0142634D01*
X0046673Y0142768D01*
X0046718Y0142901D01*
X0046766Y0143033D01*
X0046818Y0143163D01*
X0046873Y0143292D01*
X0046932Y0143419D01*
X0046995Y0143545D01*
X0047061Y0143669D01*
X0047130Y0143790D01*
X0047203Y0143910D01*
X0047280Y0144028D01*
X0047359Y0144143D01*
X0047442Y0144257D01*
X0047528Y0144367D01*
X0047617Y0144476D01*
X0047709Y0144582D01*
X0047804Y0144685D01*
X0047901Y0144786D01*
X0048002Y0144883D01*
X0048105Y0144978D01*
X0048211Y0145070D01*
X0048320Y0145159D01*
X0048430Y0145245D01*
X0048544Y0145328D01*
X0048659Y0145407D01*
X0048777Y0145484D01*
X0048897Y0145557D01*
X0049018Y0145626D01*
X0049142Y0145692D01*
X0049268Y0145755D01*
X0049395Y0145814D01*
X0049524Y0145869D01*
X0049654Y0145921D01*
X0049786Y0145969D01*
X0049919Y0146014D01*
X0050053Y0146055D01*
X0050188Y0146092D01*
X0050324Y0146125D01*
X0050462Y0146154D01*
X0050599Y0146179D01*
X0050738Y0146201D01*
X0050877Y0146219D01*
X0051017Y0146232D01*
X0051157Y0146242D01*
X0051297Y0146248D01*
X0051437Y0146250D01*
X0051577Y0146248D01*
X0051717Y0146242D01*
X0051857Y0146232D01*
X0051997Y0146219D01*
X0052136Y0146201D01*
X0052275Y0146179D01*
X0052412Y0146154D01*
X0052550Y0146125D01*
X0052686Y0146092D01*
X0052821Y0146055D01*
X0052955Y0146014D01*
X0053088Y0145969D01*
X0053220Y0145921D01*
X0053350Y0145869D01*
X0053479Y0145814D01*
X0053606Y0145755D01*
X0053732Y0145692D01*
X0053856Y0145626D01*
X0053977Y0145557D01*
X0054097Y0145484D01*
X0054215Y0145407D01*
X0054330Y0145328D01*
X0054444Y0145245D01*
X0054554Y0145159D01*
X0054663Y0145070D01*
X0054769Y0144978D01*
X0054872Y0144883D01*
X0054973Y0144786D01*
X0055070Y0144685D01*
X0055165Y0144582D01*
X0055257Y0144476D01*
X0055346Y0144367D01*
X0055432Y0144257D01*
X0055515Y0144143D01*
X0055594Y0144028D01*
X0055671Y0143910D01*
X0055744Y0143790D01*
X0055813Y0143669D01*
X0055879Y0143545D01*
X0055942Y0143419D01*
X0056001Y0143292D01*
X0056056Y0143163D01*
X0056108Y0143033D01*
X0056156Y0142901D01*
X0056201Y0142768D01*
X0056242Y0142634D01*
X0056279Y0142499D01*
X0056312Y0142363D01*
X0056341Y0142225D01*
X0056366Y0142088D01*
X0056388Y0141949D01*
X0056406Y0141810D01*
X0056419Y0141670D01*
X0056429Y0141530D01*
X0056435Y0141390D01*
X0056437Y0141250D01*
X0178433Y0116898D02*
X0178433Y0115397D01*
X0179184Y0114646D01*
X0178433Y0116898D02*
X0179184Y0117649D01*
X0179934Y0117649D01*
X0182937Y0114646D01*
X0182937Y0117649D01*
X0182937Y0113045D02*
X0182937Y0110042D01*
X0182937Y0111543D02*
X0178433Y0111543D01*
X0179934Y0110042D01*
X0179184Y0108441D02*
X0178433Y0107690D01*
X0178433Y0106189D01*
X0179184Y0105438D01*
X0182186Y0105438D01*
X0182937Y0106189D01*
X0182937Y0107690D01*
X0182186Y0108441D01*
X0182186Y0103837D02*
X0179184Y0103837D01*
X0178433Y0103086D01*
X0178433Y0101585D01*
X0179184Y0100834D01*
X0182186Y0100834D01*
X0182937Y0101585D01*
X0182937Y0103086D01*
X0182186Y0103837D01*
X0206433Y0104086D02*
X0206433Y0102585D01*
X0207184Y0101834D01*
X0210186Y0101834D01*
X0210937Y0102585D01*
X0210937Y0104086D01*
X0210186Y0104837D01*
X0207184Y0104837D01*
X0206433Y0104086D01*
X0207184Y0106438D02*
X0210186Y0106438D01*
X0210937Y0107189D01*
X0210937Y0108690D01*
X0210186Y0109441D01*
X0210937Y0111042D02*
X0210937Y0114045D01*
X0210937Y0112543D02*
X0206433Y0112543D01*
X0207934Y0111042D01*
X0207184Y0109441D02*
X0206433Y0108690D01*
X0206433Y0107189D01*
X0207184Y0106438D01*
X0207934Y0115646D02*
X0206433Y0117147D01*
X0210937Y0117147D01*
X0210937Y0115646D02*
X0210937Y0118649D01*
X0235183Y0118148D02*
X0235183Y0116647D01*
X0235934Y0115896D01*
X0238936Y0115896D01*
X0235934Y0118899D01*
X0238936Y0118899D01*
X0239687Y0118148D01*
X0239687Y0116647D01*
X0238936Y0115896D01*
X0239687Y0114295D02*
X0239687Y0111292D01*
X0239687Y0112793D02*
X0235183Y0112793D01*
X0236684Y0111292D01*
X0235934Y0109691D02*
X0235183Y0108940D01*
X0235183Y0107439D01*
X0235934Y0106688D01*
X0238936Y0106688D01*
X0239687Y0107439D01*
X0239687Y0108940D01*
X0238936Y0109691D01*
X0238936Y0105087D02*
X0235934Y0105087D01*
X0235183Y0104336D01*
X0235183Y0102835D01*
X0235934Y0102084D01*
X0238936Y0102084D01*
X0239687Y0102835D01*
X0239687Y0104336D01*
X0238936Y0105087D01*
X0235183Y0118148D02*
X0235934Y0118899D01*
X0263683Y0117148D02*
X0263683Y0115647D01*
X0264434Y0114896D01*
X0265184Y0114896D01*
X0265935Y0115647D01*
X0265935Y0117899D01*
X0264434Y0117899D02*
X0263683Y0117148D01*
X0264434Y0117899D02*
X0267436Y0117899D01*
X0268187Y0117148D01*
X0268187Y0115647D01*
X0267436Y0114896D01*
X0267436Y0113295D02*
X0268187Y0112544D01*
X0268187Y0111043D01*
X0267436Y0110292D01*
X0264434Y0110292D01*
X0263683Y0111043D01*
X0263683Y0112544D01*
X0264434Y0113295D01*
X0264434Y0108691D02*
X0263683Y0107940D01*
X0263683Y0106439D01*
X0264434Y0105688D01*
X0267436Y0105688D01*
X0268187Y0106439D01*
X0268187Y0107940D01*
X0267436Y0108691D01*
X0264434Y0108691D01*
X0385433Y0108856D02*
X0385433Y0107355D01*
X0386184Y0106604D01*
X0389186Y0106604D01*
X0389937Y0107355D01*
X0389937Y0108856D01*
X0389186Y0109606D01*
X0389186Y0111208D02*
X0388436Y0111208D01*
X0387685Y0111958D01*
X0387685Y0113460D01*
X0388436Y0114210D01*
X0389186Y0114210D01*
X0389937Y0113460D01*
X0389937Y0111958D01*
X0389186Y0111208D01*
X0387685Y0111958D02*
X0386934Y0111208D01*
X0386184Y0111208D01*
X0385433Y0111958D01*
X0385433Y0113460D01*
X0386184Y0114210D01*
X0386934Y0114210D01*
X0387685Y0113460D01*
X0386184Y0109606D02*
X0385433Y0108856D01*
X0386184Y0105003D02*
X0385433Y0104252D01*
X0385433Y0102751D01*
X0386184Y0102000D01*
X0389186Y0102000D01*
X0389937Y0102751D01*
X0389937Y0104252D01*
X0389186Y0105003D01*
X0386184Y0105003D01*
X0423433Y0103752D02*
X0423433Y0102251D01*
X0424184Y0101500D01*
X0427186Y0101500D01*
X0427937Y0102251D01*
X0427937Y0103752D01*
X0427186Y0104503D01*
X0424184Y0104503D01*
X0423433Y0103752D01*
X0424184Y0106104D02*
X0427186Y0106104D01*
X0427937Y0106855D01*
X0427937Y0108356D01*
X0427186Y0109106D01*
X0427186Y0110708D02*
X0427937Y0110708D01*
X0427186Y0110708D02*
X0424184Y0113710D01*
X0423433Y0113710D01*
X0423433Y0110708D01*
X0424184Y0109106D02*
X0423433Y0108356D01*
X0423433Y0106855D01*
X0424184Y0106104D01*
X0458683Y0106855D02*
X0459434Y0106104D01*
X0462436Y0106104D01*
X0463187Y0106855D01*
X0463187Y0108356D01*
X0462436Y0109106D01*
X0462436Y0110708D02*
X0460935Y0110708D01*
X0460935Y0112960D01*
X0461686Y0113710D01*
X0462436Y0113710D01*
X0463187Y0112960D01*
X0463187Y0111458D01*
X0462436Y0110708D01*
X0460935Y0110708D02*
X0459434Y0112209D01*
X0458683Y0113710D01*
X0459434Y0109106D02*
X0458683Y0108356D01*
X0458683Y0106855D01*
X0459434Y0104503D02*
X0458683Y0103752D01*
X0458683Y0102251D01*
X0459434Y0101500D01*
X0462436Y0101500D01*
X0463187Y0102251D01*
X0463187Y0103752D01*
X0462436Y0104503D01*
X0459434Y0104503D01*
X0494433Y0103752D02*
X0494433Y0102251D01*
X0495184Y0101500D01*
X0498186Y0101500D01*
X0498937Y0102251D01*
X0498937Y0103752D01*
X0498186Y0104503D01*
X0495184Y0104503D01*
X0494433Y0103752D01*
X0495184Y0106104D02*
X0498186Y0106104D01*
X0498937Y0106855D01*
X0498937Y0108356D01*
X0498186Y0109106D01*
X0498186Y0110708D02*
X0498937Y0111458D01*
X0498937Y0112960D01*
X0498186Y0113710D01*
X0496685Y0113710D01*
X0495934Y0112960D01*
X0495934Y0112209D01*
X0496685Y0110708D01*
X0494433Y0110708D01*
X0494433Y0113710D01*
X0495184Y0109106D02*
X0494433Y0108356D01*
X0494433Y0106855D01*
X0495184Y0106104D01*
X0528683Y0106605D02*
X0529434Y0105854D01*
X0532436Y0105854D01*
X0533187Y0106605D01*
X0533187Y0108106D01*
X0532436Y0108856D01*
X0530935Y0110458D02*
X0530935Y0113460D01*
X0528683Y0112710D02*
X0530935Y0110458D01*
X0529434Y0108856D02*
X0528683Y0108106D01*
X0528683Y0106605D01*
X0529434Y0104253D02*
X0528683Y0103502D01*
X0528683Y0102001D01*
X0529434Y0101250D01*
X0532436Y0101250D01*
X0533187Y0102001D01*
X0533187Y0103502D01*
X0532436Y0104253D01*
X0529434Y0104253D01*
X0528683Y0112710D02*
X0533187Y0112710D01*
X0565683Y0112960D02*
X0566434Y0113710D01*
X0567184Y0113710D01*
X0567935Y0112960D01*
X0568686Y0113710D01*
X0569436Y0113710D01*
X0570187Y0112960D01*
X0570187Y0111458D01*
X0569436Y0110708D01*
X0569436Y0109106D02*
X0570187Y0108356D01*
X0570187Y0106855D01*
X0569436Y0106104D01*
X0566434Y0106104D01*
X0565683Y0106855D01*
X0565683Y0108356D01*
X0566434Y0109106D01*
X0566434Y0110708D02*
X0565683Y0111458D01*
X0565683Y0112960D01*
X0567935Y0112960D02*
X0567935Y0112209D01*
X0566434Y0104503D02*
X0565683Y0103752D01*
X0565683Y0102251D01*
X0566434Y0101500D01*
X0569436Y0101500D01*
X0570187Y0102251D01*
X0570187Y0103752D01*
X0569436Y0104503D01*
X0566434Y0104503D01*
X0599183Y0105605D02*
X0599934Y0104854D01*
X0602936Y0104854D01*
X0603687Y0105605D01*
X0603687Y0107106D01*
X0602936Y0107856D01*
X0603687Y0109458D02*
X0600684Y0112460D01*
X0599934Y0112460D01*
X0599183Y0111710D01*
X0599183Y0110208D01*
X0599934Y0109458D01*
X0599934Y0107856D02*
X0599183Y0107106D01*
X0599183Y0105605D01*
X0599934Y0103253D02*
X0599183Y0102502D01*
X0599183Y0101001D01*
X0599934Y0100250D01*
X0602936Y0100250D01*
X0603687Y0101001D01*
X0603687Y0102502D01*
X0602936Y0103253D01*
X0599934Y0103253D01*
X0603687Y0109458D02*
X0603687Y0112460D01*
X0636933Y0112209D02*
X0641437Y0112209D01*
X0641437Y0110708D02*
X0641437Y0113710D01*
X0638434Y0110708D02*
X0636933Y0112209D01*
X0637684Y0109106D02*
X0636933Y0108356D01*
X0636933Y0106855D01*
X0637684Y0106104D01*
X0640686Y0106104D01*
X0641437Y0106855D01*
X0641437Y0108356D01*
X0640686Y0109106D01*
X0640686Y0104503D02*
X0637684Y0104503D01*
X0636933Y0103752D01*
X0636933Y0102251D01*
X0637684Y0101500D01*
X0640686Y0101500D01*
X0641437Y0102251D01*
X0641437Y0103752D01*
X0640686Y0104503D01*
X0445136Y0163052D02*
X0442133Y0163052D01*
X0444385Y0165304D01*
X0444385Y0160800D01*
X0440532Y0163052D02*
X0439781Y0162301D01*
X0437529Y0162301D01*
X0437529Y0160800D02*
X0437529Y0165304D01*
X0439781Y0165304D01*
X0440532Y0164553D01*
X0440532Y0163052D01*
X0435928Y0165304D02*
X0434426Y0165304D01*
X0435177Y0165304D02*
X0435177Y0161551D01*
X0434426Y0160800D01*
X0433676Y0160800D01*
X0432925Y0161551D01*
X0289687Y0307000D02*
X0286187Y0307000D01*
X0289687Y0307000D02*
X0289687Y0314500D01*
X0289687Y0317000D01*
X0289687Y0324500D01*
X0286187Y0324500D01*
X0278187Y0324500D02*
X0264687Y0324500D01*
X0256187Y0324500D02*
X0254687Y0324500D01*
X0254687Y0307000D01*
X0256187Y0307000D01*
X0264687Y0307000D02*
X0278187Y0307000D01*
X0273687Y0314500D02*
X0273687Y0317000D01*
X0274687Y0317000D01*
X0273687Y0317000D02*
X0273687Y0319500D01*
X0272687Y0318000D02*
X0271687Y0318000D01*
X0271687Y0316000D01*
X0272687Y0316000D01*
X0272687Y0318000D01*
X0270687Y0317000D02*
X0269687Y0317000D01*
X0270687Y0317000D02*
X0270687Y0314500D01*
X0270687Y0317000D02*
X0270687Y0319500D01*
X0289687Y0317000D02*
X0289618Y0316998D01*
X0289549Y0316992D01*
X0289481Y0316983D01*
X0289414Y0316970D01*
X0289347Y0316953D01*
X0289281Y0316932D01*
X0289217Y0316908D01*
X0289154Y0316880D01*
X0289092Y0316849D01*
X0289032Y0316815D01*
X0288975Y0316777D01*
X0288919Y0316736D01*
X0288866Y0316693D01*
X0288815Y0316646D01*
X0288767Y0316597D01*
X0288722Y0316545D01*
X0288680Y0316490D01*
X0288641Y0316434D01*
X0288604Y0316375D01*
X0288572Y0316314D01*
X0288542Y0316252D01*
X0288516Y0316188D01*
X0288494Y0316123D01*
X0288475Y0316057D01*
X0288460Y0315990D01*
X0288449Y0315922D01*
X0288441Y0315853D01*
X0288437Y0315784D01*
X0288437Y0315716D01*
X0288441Y0315647D01*
X0288449Y0315578D01*
X0288460Y0315510D01*
X0288475Y0315443D01*
X0288494Y0315377D01*
X0288516Y0315312D01*
X0288542Y0315248D01*
X0288572Y0315186D01*
X0288604Y0315125D01*
X0288641Y0315066D01*
X0288680Y0315010D01*
X0288722Y0314955D01*
X0288767Y0314903D01*
X0288815Y0314854D01*
X0288866Y0314807D01*
X0288919Y0314764D01*
X0288975Y0314723D01*
X0289032Y0314685D01*
X0289092Y0314651D01*
X0289154Y0314620D01*
X0289217Y0314592D01*
X0289281Y0314568D01*
X0289347Y0314547D01*
X0289414Y0314530D01*
X0289481Y0314517D01*
X0289549Y0314508D01*
X0289618Y0314502D01*
X0289687Y0314500D01*
X0195043Y0328250D02*
X0192041Y0328250D01*
X0193542Y0328250D02*
X0193542Y0332754D01*
X0192041Y0331253D01*
X0190440Y0332003D02*
X0190440Y0329001D01*
X0189689Y0328250D01*
X0188188Y0328250D01*
X0187437Y0329001D01*
X0187437Y0332003D01*
X0188188Y0332754D01*
X0189689Y0332754D01*
X0190440Y0332003D01*
X0188938Y0329751D02*
X0190440Y0328250D01*
X0139347Y0340700D02*
X0136345Y0340700D01*
X0139347Y0343703D01*
X0139347Y0344453D01*
X0138597Y0345204D01*
X0137095Y0345204D01*
X0136345Y0344453D01*
X0134743Y0344453D02*
X0133993Y0345204D01*
X0131741Y0345204D01*
X0131741Y0340700D01*
X0131741Y0342201D02*
X0133993Y0342201D01*
X0134743Y0342952D01*
X0134743Y0344453D01*
X0130140Y0345204D02*
X0128638Y0345204D01*
X0129389Y0345204D02*
X0129389Y0341451D01*
X0128638Y0340700D01*
X0127888Y0340700D01*
X0127137Y0341451D01*
X0094681Y0346876D02*
X0094681Y0322888D01*
X0098618Y0322888D01*
X0098618Y0275250D01*
X0046256Y0275250D01*
X0046256Y0322888D01*
X0050193Y0322888D01*
X0050193Y0347139D01*
X0050195Y0347238D01*
X0050201Y0347337D01*
X0050210Y0347435D01*
X0050224Y0347533D01*
X0050241Y0347631D01*
X0050263Y0347728D01*
X0050288Y0347823D01*
X0050316Y0347918D01*
X0050349Y0348012D01*
X0050385Y0348104D01*
X0050425Y0348194D01*
X0050468Y0348284D01*
X0050514Y0348371D01*
X0050564Y0348456D01*
X0050618Y0348540D01*
X0050674Y0348621D01*
X0050734Y0348700D01*
X0050797Y0348776D01*
X0050863Y0348850D01*
X0050931Y0348922D01*
X0051003Y0348990D01*
X0051077Y0349056D01*
X0051153Y0349119D01*
X0051232Y0349179D01*
X0051313Y0349235D01*
X0051397Y0349289D01*
X0051482Y0349339D01*
X0051569Y0349385D01*
X0051659Y0349428D01*
X0051749Y0349468D01*
X0051841Y0349504D01*
X0051935Y0349537D01*
X0052030Y0349565D01*
X0052125Y0349590D01*
X0052222Y0349612D01*
X0052320Y0349629D01*
X0052418Y0349643D01*
X0052516Y0349652D01*
X0052615Y0349658D01*
X0052714Y0349660D01*
X0052714Y0349659D02*
X0091897Y0349659D01*
X0092001Y0349657D01*
X0092105Y0349651D01*
X0092209Y0349641D01*
X0092312Y0349628D01*
X0092415Y0349610D01*
X0092517Y0349589D01*
X0092618Y0349564D01*
X0092718Y0349535D01*
X0092817Y0349503D01*
X0092914Y0349466D01*
X0093010Y0349427D01*
X0093105Y0349383D01*
X0093198Y0349336D01*
X0093289Y0349286D01*
X0093378Y0349232D01*
X0093465Y0349175D01*
X0093550Y0349115D01*
X0093633Y0349052D01*
X0093713Y0348985D01*
X0093791Y0348916D01*
X0093866Y0348844D01*
X0093938Y0348769D01*
X0094007Y0348691D01*
X0094074Y0348611D01*
X0094137Y0348528D01*
X0094197Y0348443D01*
X0094254Y0348356D01*
X0094308Y0348267D01*
X0094358Y0348176D01*
X0094405Y0348083D01*
X0094449Y0347988D01*
X0094488Y0347892D01*
X0094525Y0347795D01*
X0094557Y0347696D01*
X0094586Y0347596D01*
X0094611Y0347495D01*
X0094632Y0347393D01*
X0094650Y0347290D01*
X0094663Y0347187D01*
X0094673Y0347083D01*
X0094679Y0346979D01*
X0094681Y0346875D01*
X0094681Y0322888D02*
X0094679Y0322750D01*
X0094673Y0322612D01*
X0094664Y0322474D01*
X0094650Y0322337D01*
X0094633Y0322200D01*
X0094611Y0322064D01*
X0094586Y0321928D01*
X0094558Y0321793D01*
X0094525Y0321659D01*
X0094489Y0321526D01*
X0094449Y0321394D01*
X0094405Y0321263D01*
X0094357Y0321133D01*
X0094306Y0321005D01*
X0094252Y0320878D01*
X0094194Y0320753D01*
X0094132Y0320629D01*
X0094067Y0320508D01*
X0093999Y0320388D01*
X0093927Y0320270D01*
X0093852Y0320154D01*
X0093773Y0320040D01*
X0093692Y0319929D01*
X0093607Y0319820D01*
X0093520Y0319713D01*
X0093429Y0319609D01*
X0093336Y0319507D01*
X0093240Y0319408D01*
X0093141Y0319312D01*
X0093039Y0319219D01*
X0092935Y0319128D01*
X0092828Y0319041D01*
X0092719Y0318956D01*
X0092608Y0318875D01*
X0092494Y0318796D01*
X0092378Y0318721D01*
X0092260Y0318649D01*
X0092140Y0318581D01*
X0092019Y0318516D01*
X0091895Y0318454D01*
X0091770Y0318396D01*
X0091643Y0318342D01*
X0091515Y0318291D01*
X0091385Y0318243D01*
X0091254Y0318199D01*
X0091122Y0318159D01*
X0090989Y0318123D01*
X0090855Y0318090D01*
X0090720Y0318062D01*
X0090584Y0318037D01*
X0090448Y0318015D01*
X0090311Y0317998D01*
X0090174Y0317984D01*
X0090036Y0317975D01*
X0089898Y0317969D01*
X0089760Y0317967D01*
X0055114Y0317967D01*
X0054976Y0317969D01*
X0054838Y0317975D01*
X0054700Y0317984D01*
X0054563Y0317998D01*
X0054426Y0318015D01*
X0054290Y0318037D01*
X0054154Y0318062D01*
X0054019Y0318090D01*
X0053885Y0318123D01*
X0053752Y0318159D01*
X0053620Y0318199D01*
X0053489Y0318243D01*
X0053359Y0318291D01*
X0053231Y0318342D01*
X0053104Y0318396D01*
X0052979Y0318454D01*
X0052855Y0318516D01*
X0052734Y0318581D01*
X0052614Y0318649D01*
X0052496Y0318721D01*
X0052380Y0318796D01*
X0052266Y0318875D01*
X0052155Y0318956D01*
X0052046Y0319041D01*
X0051939Y0319128D01*
X0051835Y0319219D01*
X0051733Y0319312D01*
X0051634Y0319408D01*
X0051538Y0319507D01*
X0051445Y0319609D01*
X0051354Y0319713D01*
X0051267Y0319820D01*
X0051182Y0319929D01*
X0051101Y0320040D01*
X0051022Y0320154D01*
X0050947Y0320270D01*
X0050875Y0320388D01*
X0050807Y0320508D01*
X0050742Y0320629D01*
X0050680Y0320753D01*
X0050622Y0320878D01*
X0050568Y0321005D01*
X0050517Y0321133D01*
X0050469Y0321263D01*
X0050425Y0321394D01*
X0050385Y0321526D01*
X0050349Y0321659D01*
X0050316Y0321793D01*
X0050288Y0321928D01*
X0050263Y0322064D01*
X0050241Y0322200D01*
X0050224Y0322337D01*
X0050210Y0322474D01*
X0050201Y0322612D01*
X0050195Y0322750D01*
X0050193Y0322888D01*
X0527925Y0314301D02*
X0528676Y0313550D01*
X0529426Y0313550D01*
X0530177Y0314301D01*
X0530177Y0318054D01*
X0529426Y0318054D02*
X0530928Y0318054D01*
X0532529Y0318054D02*
X0532529Y0313550D01*
X0532529Y0315051D02*
X0534781Y0315051D01*
X0535532Y0315802D01*
X0535532Y0317303D01*
X0534781Y0318054D01*
X0532529Y0318054D01*
X0537133Y0318054D02*
X0537133Y0315802D01*
X0538634Y0316553D01*
X0539385Y0316553D01*
X0540136Y0315802D01*
X0540136Y0314301D01*
X0539385Y0313550D01*
X0537884Y0313550D01*
X0537133Y0314301D01*
X0537133Y0318054D02*
X0540136Y0318054D01*
D13*
X0199437Y0177250D02*
X0199437Y0169750D01*
X0149437Y0169750D01*
X0149437Y0177250D01*
X0199437Y0177250D01*
X0199437Y0169750D02*
X0199437Y0152250D01*
X0149437Y0152250D01*
X0149437Y0169750D01*
D14*
X0058429Y0171419D02*
X0058429Y0162758D01*
X0035988Y0162758D01*
X0032445Y0166301D01*
X0032445Y0171419D01*
X0032445Y0180081D02*
X0032445Y0185199D01*
X0035988Y0188742D01*
X0058429Y0188742D01*
X0058429Y0180081D01*
X0057051Y0172010D02*
X0056957Y0171729D01*
X0056855Y0171450D01*
X0056747Y0171174D01*
X0056632Y0170901D01*
X0056511Y0170630D01*
X0056383Y0170363D01*
X0056248Y0170098D01*
X0056107Y0169837D01*
X0055960Y0169580D01*
X0055807Y0169326D01*
X0055647Y0169076D01*
X0055482Y0168830D01*
X0055310Y0168588D01*
X0055133Y0168351D01*
X0054950Y0168117D01*
X0054761Y0167889D01*
X0054566Y0167664D01*
X0054367Y0167445D01*
X0054162Y0167231D01*
X0053952Y0167022D01*
X0053737Y0166818D01*
X0053516Y0166619D01*
X0053292Y0166425D01*
X0053062Y0166238D01*
X0052828Y0166055D01*
X0052590Y0165879D01*
X0052347Y0165708D01*
X0052101Y0165544D01*
X0051850Y0165385D01*
X0051596Y0165233D01*
X0051337Y0165087D01*
X0051076Y0164947D01*
X0050811Y0164813D01*
X0050543Y0164686D01*
X0050272Y0164566D01*
X0049998Y0164452D01*
X0049722Y0164345D01*
X0049442Y0164245D01*
X0049161Y0164152D01*
X0048877Y0164065D01*
X0048592Y0163986D01*
X0048304Y0163913D01*
X0048015Y0163847D01*
X0047724Y0163789D01*
X0047432Y0163738D01*
X0047139Y0163693D01*
X0046845Y0163656D01*
X0046550Y0163626D01*
X0046254Y0163603D01*
X0045958Y0163588D01*
X0045661Y0163580D01*
X0045365Y0163578D01*
X0045068Y0163585D01*
X0044772Y0163598D01*
X0044476Y0163618D01*
X0044181Y0163646D01*
X0043887Y0163681D01*
X0043593Y0163723D01*
X0043301Y0163773D01*
X0043009Y0163829D01*
X0042720Y0163892D01*
X0042432Y0163963D01*
X0042145Y0164040D01*
X0041861Y0164125D01*
X0041579Y0164216D01*
X0041299Y0164314D01*
X0041022Y0164419D01*
X0040747Y0164531D01*
X0040475Y0164649D01*
X0040206Y0164774D01*
X0039940Y0164906D01*
X0039678Y0165043D01*
X0039419Y0165188D01*
X0039163Y0165338D01*
X0038911Y0165495D01*
X0038663Y0165658D01*
X0038420Y0165826D01*
X0038180Y0166001D01*
X0037945Y0166182D01*
X0037714Y0166368D01*
X0037487Y0166559D01*
X0037266Y0166756D01*
X0037049Y0166959D01*
X0036838Y0167167D01*
X0036631Y0167379D01*
X0036430Y0167597D01*
X0036234Y0167820D01*
X0036043Y0168047D01*
X0035858Y0168279D01*
X0035679Y0168515D01*
X0035506Y0168756D01*
X0035339Y0169001D01*
X0035177Y0169250D01*
X0035022Y0169502D01*
X0034873Y0169759D01*
X0034730Y0170018D01*
X0034593Y0170282D01*
X0034463Y0170548D01*
X0034340Y0170818D01*
X0034223Y0171090D01*
X0034113Y0171366D01*
X0034010Y0171644D01*
X0033913Y0171924D01*
X0033823Y0172207D01*
X0033823Y0179490D02*
X0033917Y0179771D01*
X0034019Y0180050D01*
X0034127Y0180326D01*
X0034242Y0180599D01*
X0034363Y0180870D01*
X0034491Y0181137D01*
X0034626Y0181402D01*
X0034767Y0181663D01*
X0034914Y0181920D01*
X0035067Y0182174D01*
X0035227Y0182424D01*
X0035392Y0182670D01*
X0035564Y0182912D01*
X0035741Y0183149D01*
X0035924Y0183383D01*
X0036113Y0183611D01*
X0036308Y0183836D01*
X0036507Y0184055D01*
X0036712Y0184269D01*
X0036922Y0184478D01*
X0037137Y0184682D01*
X0037358Y0184881D01*
X0037582Y0185075D01*
X0037812Y0185262D01*
X0038046Y0185445D01*
X0038284Y0185621D01*
X0038527Y0185792D01*
X0038773Y0185956D01*
X0039024Y0186115D01*
X0039278Y0186267D01*
X0039537Y0186413D01*
X0039798Y0186553D01*
X0040063Y0186687D01*
X0040331Y0186814D01*
X0040602Y0186934D01*
X0040876Y0187048D01*
X0041152Y0187155D01*
X0041432Y0187255D01*
X0041713Y0187348D01*
X0041997Y0187435D01*
X0042282Y0187514D01*
X0042570Y0187587D01*
X0042859Y0187653D01*
X0043150Y0187711D01*
X0043442Y0187762D01*
X0043735Y0187807D01*
X0044029Y0187844D01*
X0044324Y0187874D01*
X0044620Y0187897D01*
X0044916Y0187912D01*
X0045213Y0187920D01*
X0045509Y0187922D01*
X0045806Y0187915D01*
X0046102Y0187902D01*
X0046398Y0187882D01*
X0046693Y0187854D01*
X0046987Y0187819D01*
X0047281Y0187777D01*
X0047573Y0187727D01*
X0047865Y0187671D01*
X0048154Y0187608D01*
X0048442Y0187537D01*
X0048729Y0187460D01*
X0049013Y0187375D01*
X0049295Y0187284D01*
X0049575Y0187186D01*
X0049852Y0187081D01*
X0050127Y0186969D01*
X0050399Y0186851D01*
X0050668Y0186726D01*
X0050934Y0186594D01*
X0051196Y0186457D01*
X0051455Y0186312D01*
X0051711Y0186162D01*
X0051963Y0186005D01*
X0052211Y0185842D01*
X0052454Y0185674D01*
X0052694Y0185499D01*
X0052929Y0185318D01*
X0053160Y0185132D01*
X0053387Y0184941D01*
X0053608Y0184744D01*
X0053825Y0184541D01*
X0054036Y0184333D01*
X0054243Y0184121D01*
X0054444Y0183903D01*
X0054640Y0183680D01*
X0054831Y0183453D01*
X0055016Y0183221D01*
X0055195Y0182985D01*
X0055368Y0182744D01*
X0055535Y0182499D01*
X0055697Y0182250D01*
X0055852Y0181998D01*
X0056001Y0181741D01*
X0056144Y0181482D01*
X0056281Y0181218D01*
X0056411Y0180952D01*
X0056534Y0180682D01*
X0056651Y0180410D01*
X0056761Y0180134D01*
X0056864Y0179856D01*
X0056961Y0179576D01*
X0057051Y0179293D01*
X0057089Y0124000D02*
X0031285Y0124000D01*
X0031285Y0110000D01*
X0057089Y0110000D01*
X0057089Y0124000D01*
X0044636Y0085992D02*
X0039518Y0085992D01*
X0044636Y0085992D02*
X0048179Y0082449D01*
X0048179Y0060008D01*
X0039518Y0060008D01*
X0030856Y0060008D02*
X0022195Y0060008D01*
X0022195Y0082449D01*
X0025738Y0085992D01*
X0030856Y0085992D01*
X0038927Y0084614D02*
X0039208Y0084520D01*
X0039487Y0084418D01*
X0039763Y0084310D01*
X0040036Y0084195D01*
X0040307Y0084074D01*
X0040574Y0083946D01*
X0040839Y0083811D01*
X0041100Y0083670D01*
X0041357Y0083523D01*
X0041611Y0083370D01*
X0041861Y0083210D01*
X0042107Y0083045D01*
X0042349Y0082873D01*
X0042586Y0082696D01*
X0042820Y0082513D01*
X0043048Y0082324D01*
X0043273Y0082129D01*
X0043492Y0081930D01*
X0043706Y0081725D01*
X0043915Y0081515D01*
X0044119Y0081300D01*
X0044318Y0081079D01*
X0044512Y0080855D01*
X0044699Y0080625D01*
X0044882Y0080391D01*
X0045058Y0080153D01*
X0045229Y0079910D01*
X0045393Y0079664D01*
X0045552Y0079413D01*
X0045704Y0079159D01*
X0045850Y0078900D01*
X0045990Y0078639D01*
X0046124Y0078374D01*
X0046251Y0078106D01*
X0046371Y0077835D01*
X0046485Y0077561D01*
X0046592Y0077285D01*
X0046692Y0077005D01*
X0046785Y0076724D01*
X0046872Y0076440D01*
X0046951Y0076155D01*
X0047024Y0075867D01*
X0047090Y0075578D01*
X0047148Y0075287D01*
X0047199Y0074995D01*
X0047244Y0074702D01*
X0047281Y0074408D01*
X0047311Y0074113D01*
X0047334Y0073817D01*
X0047349Y0073521D01*
X0047357Y0073224D01*
X0047359Y0072928D01*
X0047352Y0072631D01*
X0047339Y0072335D01*
X0047319Y0072039D01*
X0047291Y0071744D01*
X0047256Y0071450D01*
X0047214Y0071156D01*
X0047164Y0070864D01*
X0047108Y0070572D01*
X0047045Y0070283D01*
X0046974Y0069995D01*
X0046897Y0069708D01*
X0046812Y0069424D01*
X0046721Y0069142D01*
X0046623Y0068862D01*
X0046518Y0068585D01*
X0046406Y0068310D01*
X0046288Y0068038D01*
X0046163Y0067769D01*
X0046031Y0067503D01*
X0045894Y0067241D01*
X0045749Y0066982D01*
X0045599Y0066726D01*
X0045442Y0066474D01*
X0045279Y0066226D01*
X0045111Y0065983D01*
X0044936Y0065743D01*
X0044755Y0065508D01*
X0044569Y0065277D01*
X0044378Y0065050D01*
X0044181Y0064829D01*
X0043978Y0064612D01*
X0043770Y0064401D01*
X0043558Y0064194D01*
X0043340Y0063993D01*
X0043117Y0063797D01*
X0042890Y0063606D01*
X0042658Y0063421D01*
X0042422Y0063242D01*
X0042181Y0063069D01*
X0041936Y0062902D01*
X0041687Y0062740D01*
X0041435Y0062585D01*
X0041178Y0062436D01*
X0040919Y0062293D01*
X0040655Y0062156D01*
X0040389Y0062026D01*
X0040119Y0061903D01*
X0039847Y0061786D01*
X0039571Y0061676D01*
X0039293Y0061573D01*
X0039013Y0061476D01*
X0038730Y0061386D01*
X0031447Y0061386D02*
X0031166Y0061480D01*
X0030887Y0061582D01*
X0030611Y0061690D01*
X0030338Y0061805D01*
X0030067Y0061926D01*
X0029800Y0062054D01*
X0029535Y0062189D01*
X0029274Y0062330D01*
X0029017Y0062477D01*
X0028763Y0062630D01*
X0028513Y0062790D01*
X0028267Y0062955D01*
X0028025Y0063127D01*
X0027788Y0063304D01*
X0027554Y0063487D01*
X0027326Y0063676D01*
X0027101Y0063871D01*
X0026882Y0064070D01*
X0026668Y0064275D01*
X0026459Y0064485D01*
X0026255Y0064700D01*
X0026056Y0064921D01*
X0025862Y0065145D01*
X0025675Y0065375D01*
X0025492Y0065609D01*
X0025316Y0065847D01*
X0025145Y0066090D01*
X0024981Y0066336D01*
X0024822Y0066587D01*
X0024670Y0066841D01*
X0024524Y0067100D01*
X0024384Y0067361D01*
X0024250Y0067626D01*
X0024123Y0067894D01*
X0024003Y0068165D01*
X0023889Y0068439D01*
X0023782Y0068715D01*
X0023682Y0068995D01*
X0023589Y0069276D01*
X0023502Y0069560D01*
X0023423Y0069845D01*
X0023350Y0070133D01*
X0023284Y0070422D01*
X0023226Y0070713D01*
X0023175Y0071005D01*
X0023130Y0071298D01*
X0023093Y0071592D01*
X0023063Y0071887D01*
X0023040Y0072183D01*
X0023025Y0072479D01*
X0023017Y0072776D01*
X0023015Y0073072D01*
X0023022Y0073369D01*
X0023035Y0073665D01*
X0023055Y0073961D01*
X0023083Y0074256D01*
X0023118Y0074550D01*
X0023160Y0074844D01*
X0023210Y0075136D01*
X0023266Y0075428D01*
X0023329Y0075717D01*
X0023400Y0076005D01*
X0023477Y0076292D01*
X0023562Y0076576D01*
X0023653Y0076858D01*
X0023751Y0077138D01*
X0023856Y0077415D01*
X0023968Y0077690D01*
X0024086Y0077962D01*
X0024211Y0078231D01*
X0024343Y0078497D01*
X0024480Y0078759D01*
X0024625Y0079018D01*
X0024775Y0079274D01*
X0024932Y0079526D01*
X0025095Y0079774D01*
X0025263Y0080017D01*
X0025438Y0080257D01*
X0025619Y0080492D01*
X0025805Y0080723D01*
X0025996Y0080950D01*
X0026193Y0081171D01*
X0026396Y0081388D01*
X0026604Y0081599D01*
X0026816Y0081806D01*
X0027034Y0082007D01*
X0027257Y0082203D01*
X0027484Y0082394D01*
X0027716Y0082579D01*
X0027952Y0082758D01*
X0028193Y0082931D01*
X0028438Y0083098D01*
X0028687Y0083260D01*
X0028939Y0083415D01*
X0029196Y0083564D01*
X0029455Y0083707D01*
X0029719Y0083844D01*
X0029985Y0083974D01*
X0030255Y0084097D01*
X0030527Y0084214D01*
X0030803Y0084324D01*
X0031081Y0084427D01*
X0031361Y0084524D01*
X0031644Y0084614D01*
X0282063Y0082205D02*
X0297811Y0082205D01*
X0297811Y0107795D01*
X0282063Y0107795D01*
X0282063Y0082205D01*
X0293750Y0070343D02*
X0301624Y0070343D01*
X0318500Y0070343D02*
X0326374Y0070343D01*
X0322063Y0082455D02*
X0337811Y0082455D01*
X0337811Y0108045D01*
X0322063Y0108045D01*
X0322063Y0082455D01*
X0316378Y0096400D02*
X0312406Y0096400D01*
X0316378Y0096400D02*
X0316378Y0101569D01*
X0311708Y0101600D02*
X0308721Y0101600D01*
X0303996Y0101569D02*
X0303996Y0096400D01*
X0307968Y0096400D01*
X0301624Y0050657D02*
X0293750Y0050657D01*
X0318500Y0050657D02*
X0326374Y0050657D01*
X0343587Y0179962D02*
X0343587Y0184900D01*
X0348525Y0179962D01*
X0349759Y0179962D01*
X0350993Y0181196D01*
X0350993Y0183665D01*
X0349759Y0184900D01*
X0350993Y0187512D02*
X0344821Y0187512D01*
X0343587Y0188747D01*
X0343587Y0191216D01*
X0344821Y0192450D01*
X0350993Y0192450D01*
X0606445Y0274801D02*
X0609988Y0271258D01*
X0632429Y0271258D01*
X0632429Y0279919D01*
X0631051Y0280510D02*
X0630957Y0280229D01*
X0630855Y0279950D01*
X0630747Y0279674D01*
X0630632Y0279401D01*
X0630511Y0279130D01*
X0630383Y0278863D01*
X0630248Y0278598D01*
X0630107Y0278337D01*
X0629960Y0278080D01*
X0629807Y0277826D01*
X0629647Y0277576D01*
X0629482Y0277330D01*
X0629310Y0277088D01*
X0629133Y0276851D01*
X0628950Y0276617D01*
X0628761Y0276389D01*
X0628566Y0276164D01*
X0628367Y0275945D01*
X0628162Y0275731D01*
X0627952Y0275522D01*
X0627737Y0275318D01*
X0627516Y0275119D01*
X0627292Y0274925D01*
X0627062Y0274738D01*
X0626828Y0274555D01*
X0626590Y0274379D01*
X0626347Y0274208D01*
X0626101Y0274044D01*
X0625850Y0273885D01*
X0625596Y0273733D01*
X0625337Y0273587D01*
X0625076Y0273447D01*
X0624811Y0273313D01*
X0624543Y0273186D01*
X0624272Y0273066D01*
X0623998Y0272952D01*
X0623722Y0272845D01*
X0623442Y0272745D01*
X0623161Y0272652D01*
X0622877Y0272565D01*
X0622592Y0272486D01*
X0622304Y0272413D01*
X0622015Y0272347D01*
X0621724Y0272289D01*
X0621432Y0272238D01*
X0621139Y0272193D01*
X0620845Y0272156D01*
X0620550Y0272126D01*
X0620254Y0272103D01*
X0619958Y0272088D01*
X0619661Y0272080D01*
X0619365Y0272078D01*
X0619068Y0272085D01*
X0618772Y0272098D01*
X0618476Y0272118D01*
X0618181Y0272146D01*
X0617887Y0272181D01*
X0617593Y0272223D01*
X0617301Y0272273D01*
X0617009Y0272329D01*
X0616720Y0272392D01*
X0616432Y0272463D01*
X0616145Y0272540D01*
X0615861Y0272625D01*
X0615579Y0272716D01*
X0615299Y0272814D01*
X0615022Y0272919D01*
X0614747Y0273031D01*
X0614475Y0273149D01*
X0614206Y0273274D01*
X0613940Y0273406D01*
X0613678Y0273543D01*
X0613419Y0273688D01*
X0613163Y0273838D01*
X0612911Y0273995D01*
X0612663Y0274158D01*
X0612420Y0274326D01*
X0612180Y0274501D01*
X0611945Y0274682D01*
X0611714Y0274868D01*
X0611487Y0275059D01*
X0611266Y0275256D01*
X0611049Y0275459D01*
X0610838Y0275667D01*
X0610631Y0275879D01*
X0610430Y0276097D01*
X0610234Y0276320D01*
X0610043Y0276547D01*
X0609858Y0276779D01*
X0609679Y0277015D01*
X0609506Y0277256D01*
X0609339Y0277501D01*
X0609177Y0277750D01*
X0609022Y0278002D01*
X0608873Y0278259D01*
X0608730Y0278518D01*
X0608593Y0278782D01*
X0608463Y0279048D01*
X0608340Y0279318D01*
X0608223Y0279590D01*
X0608113Y0279866D01*
X0608010Y0280144D01*
X0607913Y0280424D01*
X0607823Y0280707D01*
X0606445Y0279919D02*
X0606445Y0274801D01*
X0607823Y0287990D02*
X0607917Y0288271D01*
X0608019Y0288550D01*
X0608127Y0288826D01*
X0608242Y0289099D01*
X0608363Y0289370D01*
X0608491Y0289637D01*
X0608626Y0289902D01*
X0608767Y0290163D01*
X0608914Y0290420D01*
X0609067Y0290674D01*
X0609227Y0290924D01*
X0609392Y0291170D01*
X0609564Y0291412D01*
X0609741Y0291649D01*
X0609924Y0291883D01*
X0610113Y0292111D01*
X0610308Y0292336D01*
X0610507Y0292555D01*
X0610712Y0292769D01*
X0610922Y0292978D01*
X0611137Y0293182D01*
X0611358Y0293381D01*
X0611582Y0293575D01*
X0611812Y0293762D01*
X0612046Y0293945D01*
X0612284Y0294121D01*
X0612527Y0294292D01*
X0612773Y0294456D01*
X0613024Y0294615D01*
X0613278Y0294767D01*
X0613537Y0294913D01*
X0613798Y0295053D01*
X0614063Y0295187D01*
X0614331Y0295314D01*
X0614602Y0295434D01*
X0614876Y0295548D01*
X0615152Y0295655D01*
X0615432Y0295755D01*
X0615713Y0295848D01*
X0615997Y0295935D01*
X0616282Y0296014D01*
X0616570Y0296087D01*
X0616859Y0296153D01*
X0617150Y0296211D01*
X0617442Y0296262D01*
X0617735Y0296307D01*
X0618029Y0296344D01*
X0618324Y0296374D01*
X0618620Y0296397D01*
X0618916Y0296412D01*
X0619213Y0296420D01*
X0619509Y0296422D01*
X0619806Y0296415D01*
X0620102Y0296402D01*
X0620398Y0296382D01*
X0620693Y0296354D01*
X0620987Y0296319D01*
X0621281Y0296277D01*
X0621573Y0296227D01*
X0621865Y0296171D01*
X0622154Y0296108D01*
X0622442Y0296037D01*
X0622729Y0295960D01*
X0623013Y0295875D01*
X0623295Y0295784D01*
X0623575Y0295686D01*
X0623852Y0295581D01*
X0624127Y0295469D01*
X0624399Y0295351D01*
X0624668Y0295226D01*
X0624934Y0295094D01*
X0625196Y0294957D01*
X0625455Y0294812D01*
X0625711Y0294662D01*
X0625963Y0294505D01*
X0626211Y0294342D01*
X0626454Y0294174D01*
X0626694Y0293999D01*
X0626929Y0293818D01*
X0627160Y0293632D01*
X0627387Y0293441D01*
X0627608Y0293244D01*
X0627825Y0293041D01*
X0628036Y0292833D01*
X0628243Y0292621D01*
X0628444Y0292403D01*
X0628640Y0292180D01*
X0628831Y0291953D01*
X0629016Y0291721D01*
X0629195Y0291485D01*
X0629368Y0291244D01*
X0629535Y0290999D01*
X0629697Y0290750D01*
X0629852Y0290498D01*
X0630001Y0290241D01*
X0630144Y0289982D01*
X0630281Y0289718D01*
X0630411Y0289452D01*
X0630534Y0289182D01*
X0630651Y0288910D01*
X0630761Y0288634D01*
X0630864Y0288356D01*
X0630961Y0288076D01*
X0631051Y0287793D01*
X0632429Y0288581D02*
X0632429Y0297242D01*
X0609988Y0297242D01*
X0606445Y0293699D01*
X0606445Y0288581D01*
D15*
X0338957Y0200800D02*
X0335821Y0197664D01*
X0335821Y0199232D02*
X0338957Y0199232D01*
X0338957Y0197664D02*
X0335821Y0200800D01*
X0337389Y0200800D02*
X0337389Y0197664D01*
X0213159Y0266124D02*
X0212474Y0265440D01*
X0211790Y0265440D01*
X0210422Y0266808D01*
X0210422Y0267492D01*
X0211106Y0268176D01*
X0211790Y0268176D01*
X0213190Y0268207D02*
X0213190Y0270260D01*
X0215242Y0268207D01*
X0214558Y0269576D02*
X0213190Y0268207D01*
X0213159Y0266808D02*
X0213159Y0266124D01*
X0211427Y0264393D02*
X0210743Y0263709D01*
X0211085Y0264051D02*
X0209033Y0266103D01*
X0208691Y0265761D02*
X0209375Y0266445D01*
D16*
X0196187Y0309500D02*
X0223187Y0309500D01*
X0223187Y0312500D02*
X0196187Y0312500D01*
X0196054Y0312502D01*
X0195922Y0312507D01*
X0195790Y0312516D01*
X0195657Y0312528D01*
X0195526Y0312544D01*
X0195394Y0312563D01*
X0195264Y0312586D01*
X0195134Y0312612D01*
X0195004Y0312642D01*
X0194876Y0312675D01*
X0194748Y0312711D01*
X0194622Y0312751D01*
X0194496Y0312794D01*
X0194372Y0312841D01*
X0194249Y0312891D01*
X0194128Y0312944D01*
X0194008Y0313000D01*
X0196187Y0309500D02*
X0195993Y0309502D01*
X0195798Y0309509D01*
X0195604Y0309521D01*
X0195410Y0309538D01*
X0195216Y0309559D01*
X0195023Y0309585D01*
X0194831Y0309616D01*
X0194640Y0309651D01*
X0194449Y0309691D01*
X0194260Y0309736D01*
X0194071Y0309785D01*
X0193884Y0309839D01*
X0193698Y0309897D01*
X0193514Y0309960D01*
X0193331Y0310027D01*
X0193150Y0310099D01*
X0192971Y0310175D01*
X0192794Y0310255D01*
X0192619Y0310340D01*
X0192445Y0310429D01*
X0192274Y0310522D01*
X0192106Y0310619D01*
X0191940Y0310721D01*
X0191776Y0310826D01*
X0191615Y0310935D01*
X0191456Y0311049D01*
X0191301Y0311166D01*
X0191148Y0311286D01*
X0190998Y0311411D01*
X0190852Y0311539D01*
X0190708Y0311670D01*
X0190568Y0311805D01*
X0190431Y0311944D01*
X0190298Y0312086D01*
X0190168Y0312230D01*
X0190041Y0312378D01*
X0189918Y0312530D01*
X0189799Y0312684D01*
X0189684Y0312840D01*
X0189573Y0313000D01*
X0194008Y0322000D02*
X0194128Y0322056D01*
X0194249Y0322109D01*
X0194372Y0322159D01*
X0194496Y0322206D01*
X0194622Y0322249D01*
X0194748Y0322289D01*
X0194876Y0322325D01*
X0195004Y0322358D01*
X0195134Y0322388D01*
X0195264Y0322414D01*
X0195394Y0322437D01*
X0195526Y0322456D01*
X0195657Y0322472D01*
X0195790Y0322484D01*
X0195922Y0322493D01*
X0196054Y0322498D01*
X0196187Y0322500D01*
X0223187Y0322500D01*
X0223187Y0325500D02*
X0196187Y0325500D01*
X0195992Y0325498D01*
X0195798Y0325491D01*
X0195603Y0325479D01*
X0195409Y0325462D01*
X0195216Y0325441D01*
X0195023Y0325415D01*
X0194831Y0325384D01*
X0194639Y0325349D01*
X0194449Y0325309D01*
X0194259Y0325264D01*
X0194071Y0325215D01*
X0193884Y0325161D01*
X0193698Y0325103D01*
X0193514Y0325040D01*
X0193331Y0324973D01*
X0193150Y0324901D01*
X0192971Y0324825D01*
X0192794Y0324745D01*
X0192618Y0324660D01*
X0192445Y0324571D01*
X0192274Y0324478D01*
X0192106Y0324381D01*
X0191939Y0324279D01*
X0191776Y0324174D01*
X0191615Y0324064D01*
X0191456Y0323951D01*
X0191301Y0323834D01*
X0191148Y0323713D01*
X0190998Y0323589D01*
X0190852Y0323461D01*
X0190708Y0323329D01*
X0190568Y0323194D01*
X0190431Y0323056D01*
X0190298Y0322914D01*
X0190168Y0322769D01*
X0190041Y0322621D01*
X0189918Y0322470D01*
X0189799Y0322316D01*
X0189684Y0322159D01*
X0189572Y0322000D01*
X0205187Y0317500D02*
X0207187Y0317500D01*
X0212187Y0317500D02*
X0214187Y0317500D01*
X0223187Y0309500D02*
X0223382Y0309502D01*
X0223577Y0309509D01*
X0223771Y0309521D01*
X0223965Y0309538D01*
X0224158Y0309559D01*
X0224351Y0309585D01*
X0224544Y0309616D01*
X0224735Y0309651D01*
X0224926Y0309691D01*
X0225115Y0309736D01*
X0225303Y0309785D01*
X0225491Y0309839D01*
X0225676Y0309897D01*
X0225861Y0309960D01*
X0226043Y0310027D01*
X0226224Y0310099D01*
X0226403Y0310175D01*
X0226581Y0310255D01*
X0226756Y0310340D01*
X0226929Y0310429D01*
X0227100Y0310522D01*
X0227269Y0310620D01*
X0227435Y0310721D01*
X0227599Y0310826D01*
X0227760Y0310936D01*
X0227918Y0311049D01*
X0228074Y0311166D01*
X0228226Y0311287D01*
X0228376Y0311411D01*
X0228523Y0311539D01*
X0228666Y0311671D01*
X0228806Y0311806D01*
X0228943Y0311944D01*
X0229077Y0312086D01*
X0229207Y0312231D01*
X0229333Y0312379D01*
X0229456Y0312530D01*
X0229575Y0312684D01*
X0229690Y0312841D01*
X0229802Y0313000D01*
X0229801Y0322000D02*
X0229690Y0322160D01*
X0229575Y0322316D01*
X0229456Y0322470D01*
X0229333Y0322622D01*
X0229206Y0322770D01*
X0229076Y0322914D01*
X0228943Y0323056D01*
X0228806Y0323195D01*
X0228666Y0323330D01*
X0228522Y0323461D01*
X0228376Y0323589D01*
X0228226Y0323714D01*
X0228073Y0323834D01*
X0227918Y0323951D01*
X0227759Y0324065D01*
X0227598Y0324174D01*
X0227434Y0324279D01*
X0227268Y0324381D01*
X0227100Y0324478D01*
X0226929Y0324571D01*
X0226755Y0324660D01*
X0226580Y0324745D01*
X0226403Y0324825D01*
X0226224Y0324901D01*
X0226043Y0324973D01*
X0225860Y0325040D01*
X0225676Y0325103D01*
X0225490Y0325161D01*
X0225303Y0325215D01*
X0225114Y0325264D01*
X0224925Y0325309D01*
X0224734Y0325349D01*
X0224543Y0325384D01*
X0224351Y0325415D01*
X0224158Y0325441D01*
X0223964Y0325462D01*
X0223770Y0325479D01*
X0223576Y0325491D01*
X0223381Y0325498D01*
X0223187Y0325500D01*
X0223187Y0322500D02*
X0223320Y0322498D01*
X0223452Y0322493D01*
X0223584Y0322484D01*
X0223717Y0322472D01*
X0223848Y0322456D01*
X0223980Y0322437D01*
X0224110Y0322414D01*
X0224240Y0322388D01*
X0224370Y0322358D01*
X0224498Y0322325D01*
X0224626Y0322289D01*
X0224752Y0322249D01*
X0224878Y0322206D01*
X0225002Y0322159D01*
X0225125Y0322109D01*
X0225246Y0322056D01*
X0225366Y0322000D01*
X0225366Y0313000D02*
X0225246Y0312944D01*
X0225125Y0312891D01*
X0225002Y0312841D01*
X0224878Y0312794D01*
X0224752Y0312751D01*
X0224626Y0312711D01*
X0224498Y0312675D01*
X0224370Y0312642D01*
X0224240Y0312612D01*
X0224110Y0312586D01*
X0223980Y0312563D01*
X0223848Y0312544D01*
X0223717Y0312528D01*
X0223584Y0312516D01*
X0223452Y0312507D01*
X0223320Y0312502D01*
X0223187Y0312500D01*
D17*
X0277835Y0088235D02*
X0277284Y0087685D01*
X0277284Y0086584D01*
X0277835Y0086033D01*
X0277835Y0084552D02*
X0280037Y0082350D01*
X0280587Y0082350D01*
X0280587Y0084552D01*
X0280587Y0086033D02*
X0278385Y0088235D01*
X0277835Y0088235D01*
X0280587Y0088235D02*
X0280587Y0086033D01*
X0277835Y0084552D02*
X0277284Y0084552D01*
X0277284Y0082350D01*
X0281085Y0073101D02*
X0280534Y0072551D01*
X0280534Y0071450D01*
X0281085Y0070899D01*
X0280534Y0069418D02*
X0280534Y0067216D01*
X0280534Y0068317D02*
X0283837Y0068317D01*
X0283837Y0070899D02*
X0281635Y0073101D01*
X0281085Y0073101D01*
X0283837Y0073101D02*
X0283837Y0070899D01*
X0283287Y0065735D02*
X0281085Y0065735D01*
X0280534Y0065185D01*
X0280534Y0063533D01*
X0283837Y0063533D01*
X0283837Y0065185D01*
X0283287Y0065735D01*
X0283287Y0062052D02*
X0282186Y0062052D01*
X0282186Y0060951D01*
X0283287Y0062052D02*
X0283837Y0061501D01*
X0283837Y0060400D01*
X0283287Y0059850D01*
X0281085Y0059850D01*
X0280534Y0060400D01*
X0280534Y0061501D01*
X0281085Y0062052D01*
X0317284Y0082600D02*
X0317284Y0084802D01*
X0317835Y0084802D01*
X0320037Y0082600D01*
X0320587Y0082600D01*
X0320587Y0084802D01*
X0320587Y0086283D02*
X0320587Y0088485D01*
X0320587Y0087384D02*
X0317284Y0087384D01*
X0318385Y0086283D01*
X0335284Y0072500D02*
X0338587Y0072500D01*
X0338587Y0071399D02*
X0338587Y0073601D01*
X0336385Y0071399D02*
X0335284Y0072500D01*
X0335284Y0069918D02*
X0335284Y0067716D01*
X0335284Y0068817D02*
X0338587Y0068817D01*
X0338037Y0066235D02*
X0335835Y0066235D01*
X0335284Y0065685D01*
X0335284Y0064033D01*
X0338587Y0064033D01*
X0338587Y0065685D01*
X0338037Y0066235D01*
X0338037Y0062552D02*
X0336936Y0062552D01*
X0336936Y0061451D01*
X0338037Y0062552D02*
X0338587Y0062001D01*
X0338587Y0060900D01*
X0338037Y0060350D01*
X0335835Y0060350D01*
X0335284Y0060900D01*
X0335284Y0062001D01*
X0335835Y0062552D01*
D18*
X0335843Y0081470D03*
X0295843Y0081220D03*
M02*
